<svg xmlns="http://www.w3.org/2000/svg" xmlns:xlink="http://www.w3.org/1999/xlink" viewBox="0 0 1130.08 738.14"><defs><style>.cls-1{isolation:isolate;}.cls-2,.cls-4{fill:#45108a;}.cls-2,.cls-3,.cls-39{mix-blend-mode:screen;}.cls-5{opacity:0.2;}.cls-6{opacity:0;}.cls-7{opacity:0.09;}.cls-8{opacity:0.18;}.cls-9{opacity:0.27;}.cls-10{opacity:0.36;}.cls-11{opacity:0.45;}.cls-12{opacity:0.55;}.cls-13{opacity:0.64;}.cls-14{opacity:0.73;}.cls-15{opacity:0.82;}.cls-16{opacity:0.91;}.cls-17{fill:url(#linear-gradient);}.cls-18{fill:url(#linear-gradient-2);}.cls-19{fill:url(#linear-gradient-3);}.cls-20,.cls-31,.cls-32,.cls-33,.cls-35{mix-blend-mode:color-dodge;}.cls-20{fill:url(#Radial_Gradient_1);}.cls-21{fill:url(#linear-gradient-4);}.cls-22{fill:#1f0d3d;}.cls-23,.cls-31{fill:#3d065f;}.cls-24{fill:url(#linear-gradient-5);}.cls-25{fill:url(#linear-gradient-6);}.cls-26{fill:url(#linear-gradient-7);}.cls-27{fill:url(#linear-gradient-8);}.cls-28{fill:url(#linear-gradient-9);}.cls-29{fill:url(#linear-gradient-10);}.cls-30{fill:url(#linear-gradient-11);}.cls-32{fill:url(#radial-gradient);}.cls-33{fill:url(#radial-gradient-2);}.cls-34{fill:url(#New_Gradient_Swatch_copy_7);}.cls-35{fill:url(#Radial_Gradient_1-2);}.cls-36{fill:#a56ef4;}.cls-37{fill:#fff;}.cls-38{fill:#7c1dc9;}.cls-39{fill:url(#radial-gradient-3);}.cls-40,.cls-46,.cls-68{mix-blend-mode:multiply;}.cls-40{fill:url(#linear-gradient-12);}.cls-41{fill:url(#New_Gradient_Swatch_copy_36);}.cls-42{fill:url(#New_Gradient_Swatch_copy_35);}.cls-43{fill:url(#New_Gradient_Swatch_copy_35-2);}.cls-44{fill:#d1b4e3;}.cls-45{fill:url(#New_Gradient_Swatch_copy_36-2);}.cls-46{fill:#e6e7e8;}.cls-47{fill:url(#New_Gradient_Swatch_copy_35-3);}.cls-48{fill:url(#New_Gradient_Swatch_copy_36-3);}.cls-49{fill:#f1e8f6;}.cls-50{fill:url(#New_Gradient_Swatch_copy_35-4);}.cls-51{fill:url(#New_Gradient_Swatch_copy_35-5);}.Graphic-Style-184{fill:url(#linear-gradient-13);}.cls-52,.cls-53,.cls-56,.cls-57,.cls-59,.cls-60,.cls-62{opacity:0.5;}.cls-52{fill:url(#linear-gradient-14);}.cls-53{fill:url(#New_Gradient_Swatch_copy_36-4);}.cls-54{fill:url(#New_Gradient_Swatch_copy_35-6);}.cls-55{fill:url(#linear-gradient-16);}.cls-56{fill:url(#linear-gradient-18);}.cls-57{fill:url(#New_Gradient_Swatch_copy_36-5);}.cls-58{fill:url(#linear-gradient-20);}.cls-59{fill:url(#New_Gradient_Swatch_copy_36-6);}.cls-60{fill:url(#New_Gradient_Swatch_copy_36-7);}.cls-61{fill:url(#New_Gradient_Swatch_copy_36-8);}.Graphic-Style-183{fill:url(#linear-gradient-21);}.cls-62{fill:url(#New_Gradient_Swatch_copy_36-9);}.cls-63{fill:url(#New_Gradient_Swatch_copy_36-10);}.cls-64{fill:url(#New_Gradient_Swatch_copy_35-7);}.cls-65{fill:url(#New_Gradient_Swatch_copy_35-8);}.cls-66{fill:url(#New_Gradient_Swatch_copy_35-9);}.cls-67{fill:url(#linear-gradient-22);}.cls-68{fill:url(#linear-gradient-23);}.cls-69{fill:url(#New_Gradient_Swatch_copy_35-10);}.cls-70,.cls-71,.cls-72{fill:#1bb0d4;}.cls-71{opacity:0.4;}.cls-72{opacity:0.1;}</style><linearGradient id="linear-gradient" x1="4857.99" y1="350.78" x2="5631.44" y2="350.78" gradientTransform="matrix(-1, 0, 0, 1, 5803.52, 0)" gradientUnits="userSpaceOnUse"><stop offset="0" stop-color="#2f054a"/><stop offset="1" stop-color="#5824b0"/></linearGradient><linearGradient id="linear-gradient-2" x1="4959.68" y1="347.44" x2="5733.13" y2="347.44" gradientTransform="matrix(-1, 0, 0, 1, 5803.52, 0)" gradientUnits="userSpaceOnUse"><stop offset="0.06" stop-color="#2f0d5e"/><stop offset="0.28" stop-color="#2f105f"/><stop offset="0.47" stop-color="#311b61"/><stop offset="0.48" stop-color="#351f65"/><stop offset="0.5" stop-color="#422c73"/><stop offset="0.51" stop-color="#584188"/><stop offset="0.52" stop-color="#765fa7"/><stop offset="0.53" stop-color="#8770b8"/><stop offset="0.54" stop-color="#7e67ae"/><stop offset="0.56" stop-color="#5c468d"/><stop offset="0.59" stop-color="#442e75"/><stop offset="0.61" stop-color="#362066"/><stop offset="0.63" stop-color="#311b61"/><stop offset="0.67" stop-color="#2a1155"/><stop offset="0.75" stop-color="#230446"/><stop offset="0.81" stop-color="#200041"/><stop offset="1" stop-color="#200041"/></linearGradient><linearGradient id="linear-gradient-3" x1="4857.99" y1="330.77" x2="5631.44" y2="330.77" gradientTransform="matrix(-1, 0, 0, 1, 5803.52, 0)" gradientUnits="userSpaceOnUse"><stop offset="0" stop-color="#58098a"/><stop offset="1" stop-color="#9e3bdb"/></linearGradient><radialGradient id="Radial_Gradient_1" cx="507.03" cy="416.32" r="293.98" gradientUnits="userSpaceOnUse"><stop offset="0" stop-color="#fff"/><stop offset="1"/></radialGradient><linearGradient id="linear-gradient-4" x1="4865.72" y1="330.77" x2="5623.71" y2="330.77" gradientTransform="matrix(-1, 0, 0, 1, 5803.52, 0)" gradientUnits="userSpaceOnUse"><stop offset="0" stop-color="#2f054a"/><stop offset="1" stop-color="#5e1d9a"/></linearGradient><linearGradient id="linear-gradient-5" x1="597.38" y1="137.89" x2="463.13" y2="809.11" gradientUnits="userSpaceOnUse"><stop offset="0" stop-color="#861eb2"/><stop offset="0.43" stop-color="#5f27bd"/><stop offset="0.9" stop-color="#3d065f"/></linearGradient><linearGradient id="linear-gradient-6" x1="6771.59" y1="-134.63" x2="6808.86" y2="-134.63" gradientTransform="matrix(-0.87, 0.5, -0.5, 1.44, 6661.78, -2871)" gradientUnits="userSpaceOnUse"><stop offset="0" stop-color="#3d065f"/><stop offset="1" stop-color="#5f27bd"/></linearGradient><linearGradient id="linear-gradient-7" x1="6771.59" y1="-134.63" x2="6808.86" y2="-134.63" gradientTransform="matrix(-0.87, 0.5, -0.5, 1.44, 6661.78, -2871)" xlink:href="#linear-gradient"/><linearGradient id="linear-gradient-8" x1="6730.99" y1="-24.17" x2="6715.57" y2="4.58" gradientTransform="matrix(-0.87, 0.5, -0.5, 1.44, 6661.78, -2871)" gradientUnits="userSpaceOnUse"><stop offset="0.06" stop-color="#9f79b8"/><stop offset="0.26" stop-color="#a17bba"/><stop offset="0.36" stop-color="#a783bf"/><stop offset="0.43" stop-color="#b290c9"/><stop offset="0.49" stop-color="#c1a1d5"/><stop offset="0.51" stop-color="#c4a5d7"/><stop offset="0.52" stop-color="#cdb3dd"/><stop offset="0.53" stop-color="#dbc8e7"/><stop offset="0.55" stop-color="#efe7f4"/><stop offset="0.56" stop-color="#fff"/><stop offset="0.57" stop-color="#ece0f3"/><stop offset="0.58" stop-color="#ddc8ea"/><stop offset="0.59" stop-color="#d4b9e5"/><stop offset="0.6" stop-color="#d1b4e3"/><stop offset="0.66" stop-color="#b395d6"/><stop offset="0.72" stop-color="#9c7dcb"/><stop offset="0.77" stop-color="#8e6ec5"/><stop offset="0.81" stop-color="#8969c3"/><stop offset="1" stop-color="#b086cc"/></linearGradient><linearGradient id="linear-gradient-9" x1="6815.3" y1="-134.63" x2="6852.58" y2="-134.63" xlink:href="#linear-gradient-6"/><linearGradient id="linear-gradient-10" x1="6815.3" y1="-134.63" x2="6852.58" y2="-134.63" gradientTransform="matrix(-0.87, 0.5, -0.5, 1.44, 6661.78, -2871)" xlink:href="#linear-gradient"/><linearGradient id="linear-gradient-11" x1="6764.95" y1="-5.97" x2="6749.53" y2="22.79" xlink:href="#linear-gradient-8"/><radialGradient id="radial-gradient" cx="4236.22" cy="71.66" r="139.45" gradientTransform="matrix(-1, 0, 0, 0.66, 5001.3, 320.81)" gradientUnits="userSpaceOnUse"><stop offset="0" stop-color="#972a74"/><stop offset="0.04" stop-color="#8a266a"/><stop offset="0.19" stop-color="#601b4a"/><stop offset="0.35" stop-color="#3d112f"/><stop offset="0.51" stop-color="#230a1b"/><stop offset="0.67" stop-color="#0f040c"/><stop offset="0.83" stop-color="#040103"/><stop offset="1"/></radialGradient><radialGradient id="radial-gradient-2" cx="6068.96" cy="2350.22" r="72.57" gradientTransform="matrix(0, -1, -0.66, 0, 1990.21, 6629.28)" xlink:href="#radial-gradient"/><linearGradient id="New_Gradient_Swatch_copy_7" x1="250.08" y1="404.62" x2="397.21" y2="404.62" gradientUnits="userSpaceOnUse"><stop offset="0.04" stop-color="#138bbd"/><stop offset="0.23" stop-color="#169ac7"/><stop offset="0.59" stop-color="#1fc3df"/><stop offset="1" stop-color="#2af6ff"/></linearGradient><radialGradient id="Radial_Gradient_1-2" cx="323.66" cy="425.17" r="54.26" xlink:href="#Radial_Gradient_1"/><radialGradient id="radial-gradient-3" cx="329.99" cy="399.21" r="26.32" gradientTransform="translate(645.84 -11.28) rotate(77.15)" gradientUnits="userSpaceOnUse"><stop offset="0.1" stop-color="#fff"/><stop offset="0.13" stop-color="#c778ce"/><stop offset="0.15" stop-color="#9f19ab"/><stop offset="0.17" stop-color="#93179e"/><stop offset="0.21" stop-color="#711279"/><stop offset="0.26" stop-color="#520d58"/><stop offset="0.32" stop-color="#38093d"/><stop offset="0.38" stop-color="#240626"/><stop offset="0.46" stop-color="#130315"/><stop offset="0.55" stop-color="#080109"/><stop offset="0.67" stop-color="#020002"/><stop offset="1"/></radialGradient><linearGradient id="linear-gradient-12" x1="883.22" y1="414.74" x2="495.7" y2="107.52" gradientUnits="userSpaceOnUse"><stop offset="0" stop-color="#fff"/><stop offset="1" stop-color="#939598"/></linearGradient><linearGradient id="New_Gradient_Swatch_copy_36" x1="712.26" y1="120.89" x2="777.62" y2="40.39" gradientUnits="userSpaceOnUse"><stop offset="0.1" stop-color="#45108a"/><stop offset="1" stop-color="#7c1dc9"/></linearGradient><linearGradient id="New_Gradient_Swatch_copy_35" x1="827.04" y1="284.41" x2="938.6" y2="534.73" gradientUnits="userSpaceOnUse"><stop offset="0" stop-color="#9f79c8"/><stop offset="0.14" stop-color="#a580cb"/><stop offset="0.33" stop-color="#b492d3"/><stop offset="0.55" stop-color="#cdb0e1"/><stop offset="0.58" stop-color="#d1b4e3"/><stop offset="0.76" stop-color="#dbc4e9"/><stop offset="1" stop-color="#ebdef3"/></linearGradient><linearGradient id="New_Gradient_Swatch_copy_35-2" x1="613.17" y1="158.95" x2="755.48" y2="236.95" xlink:href="#New_Gradient_Swatch_copy_35"/><linearGradient id="New_Gradient_Swatch_copy_36-2" x1="767.76" y1="276.11" x2="982.47" y2="169.26" xlink:href="#New_Gradient_Swatch_copy_36"/><linearGradient id="New_Gradient_Swatch_copy_35-3" x1="540.41" y1="112.94" x2="594.08" y2="395.88" xlink:href="#New_Gradient_Swatch_copy_35"/><linearGradient id="New_Gradient_Swatch_copy_36-3" x1="573.78" y1="397.75" x2="626.39" y2="32.33" xlink:href="#New_Gradient_Swatch_copy_36"/><linearGradient id="New_Gradient_Swatch_copy_35-4" x1="651.82" y1="271.79" x2="879.74" y2="139.43" xlink:href="#New_Gradient_Swatch_copy_35"/><linearGradient id="New_Gradient_Swatch_copy_35-5" x1="592.79" y1="250.42" x2="743.15" y2="100.59" xlink:href="#New_Gradient_Swatch_copy_35"/><linearGradient id="linear-gradient-13" x1="446.8" y1="248.67" x2="578.51" y2="219.15" xlink:href="#New_Gradient_Swatch_copy_7"/><linearGradient id="linear-gradient-14" x1="554.55" y1="154.69" x2="498.03" y2="226.13" xlink:href="#New_Gradient_Swatch_copy_7"/><linearGradient id="New_Gradient_Swatch_copy_36-4" x1="446.8" y1="248.67" x2="578.51" y2="219.15" xlink:href="#New_Gradient_Swatch_copy_36"/><linearGradient id="New_Gradient_Swatch_copy_35-6" x1="483.36" y1="221.99" x2="621.84" y2="250.89" xlink:href="#New_Gradient_Swatch_copy_35"/><linearGradient id="linear-gradient-16" x1="508.48" y1="214.2" x2="569.97" y2="292.4" xlink:href="#New_Gradient_Swatch_copy_7"/><linearGradient id="linear-gradient-18" x1="673.31" y1="182.6" x2="606.13" y2="317.32" xlink:href="#New_Gradient_Swatch_copy_7"/><linearGradient id="New_Gradient_Swatch_copy_36-5" x1="566.51" y1="316.74" x2="698.21" y2="287.22" xlink:href="#New_Gradient_Swatch_copy_36"/><linearGradient id="linear-gradient-20" x1="517.81" y1="187.31" x2="572.19" y2="168.82" xlink:href="#New_Gradient_Swatch_copy_7"/><linearGradient id="New_Gradient_Swatch_copy_36-6" x1="507.62" y1="197.48" x2="607.64" y2="175.06" xlink:href="#New_Gradient_Swatch_copy_36"/><linearGradient id="New_Gradient_Swatch_copy_36-7" x1="492.13" y1="289.73" x2="623.83" y2="260.21" xlink:href="#New_Gradient_Swatch_copy_36"/><linearGradient id="New_Gradient_Swatch_copy_36-8" x1="688.79" y1="299.91" x2="802.47" y2="265.87" xlink:href="#New_Gradient_Swatch_copy_36"/><linearGradient id="linear-gradient-21" x1="700.78" y1="211.78" x2="765.88" y2="192.29" xlink:href="#New_Gradient_Swatch_copy_7"/><linearGradient id="New_Gradient_Swatch_copy_36-9" x1="700.78" y1="211.78" x2="765.88" y2="192.29" xlink:href="#New_Gradient_Swatch_copy_36"/><linearGradient id="New_Gradient_Swatch_copy_36-10" x1="612.53" y1="335.96" x2="589.78" y2="71.5" xlink:href="#New_Gradient_Swatch_copy_36"/><linearGradient id="New_Gradient_Swatch_copy_35-7" x1="719.57" y1="357.62" x2="729.44" y2="379.76" xlink:href="#New_Gradient_Swatch_copy_35"/><linearGradient id="New_Gradient_Swatch_copy_35-8" x1="623.31" y1="176.63" x2="670.94" y2="387.42" xlink:href="#New_Gradient_Swatch_copy_35"/><linearGradient id="New_Gradient_Swatch_copy_35-9" x1="786.2" y1="201.25" x2="695.5" y2="374.1" xlink:href="#New_Gradient_Swatch_copy_35"/><linearGradient id="linear-gradient-22" x1="724.94" y1="279.1" x2="693.48" y2="298.29" gradientUnits="userSpaceOnUse"><stop offset="0.02" stop-color="#45108a"/><stop offset="0.29" stop-color="#3d065f"/><stop offset="1" stop-color="#12054e"/><stop offset="1" stop-color="#10054d"/></linearGradient><linearGradient id="linear-gradient-23" x1="653.02" y1="188.55" x2="613.57" y2="157.27" gradientUnits="userSpaceOnUse"><stop offset="0" stop-color="#fff"/><stop offset="1" stop-color="#bcbec0"/></linearGradient><linearGradient id="New_Gradient_Swatch_copy_35-10" x1="712.16" y1="272.4" x2="709.67" y2="375.48" xlink:href="#New_Gradient_Swatch_copy_35"/></defs><title>home-2</title><g class="cls-1"><g id="fc836297-f37e-43a2-86b4-5406f4a63596"><path class="cls-2" d="M882.37,501.58l-4.54-2.67a1.32,1.32,0,1,1,1.33-2.27l4.54,2.67a1.32,1.32,0,0,1-.67,2.45A1.34,1.34,0,0,1,882.37,501.58Zm-9.08-5.35-4.53-2.67a1.31,1.31,0,1,1,1.33-2.26l4.54,2.67a1.31,1.31,0,0,1,.47,1.8,1.32,1.32,0,0,1-1.14.65A1.26,1.26,0,0,1,873.29,496.23Zm-9.07-5.34-4.54-2.67A1.32,1.32,0,0,1,861,486l4.54,2.67a1.32,1.32,0,0,1,.46,1.8,1.3,1.3,0,0,1-1.13.65A1.35,1.35,0,0,1,864.22,490.89Zm-9.07-5.35-4.54-2.67a1.31,1.31,0,0,1,1.34-2.26l4.53,2.67a1.31,1.31,0,0,1,.47,1.8,1.3,1.3,0,0,1-1.13.65A1.26,1.26,0,0,1,855.15,485.54Zm-9.08-5.34-4.53-2.67a1.32,1.32,0,0,1,1.34-2.27l4.53,2.67a1.32,1.32,0,0,1,.47,1.81,1.34,1.34,0,0,1-1.14.64A1.38,1.38,0,0,1,846.07,480.2ZM837,474.86l-4.53-2.67a1.32,1.32,0,1,1,1.33-2.27l4.54,2.67a1.32,1.32,0,0,1-.67,2.45A1.35,1.35,0,0,1,837,474.86Z"/><path class="cls-2" d="M741,580.51l-4.54-2.67a1.31,1.31,0,1,1,1.34-2.26l4.53,2.67a1.31,1.31,0,0,1,.47,1.8,1.3,1.3,0,0,1-1.13.65A1.26,1.26,0,0,1,741,580.51Zm-9.07-5.34-4.54-2.67a1.32,1.32,0,1,1,1.34-2.27l4.53,2.67a1.32,1.32,0,0,1,.47,1.81,1.32,1.32,0,0,1-1.8.46Zm-9.08-5.34-4.53-2.67a1.32,1.32,0,1,1,1.33-2.27l4.54,2.67a1.31,1.31,0,0,1,.47,1.8,1.32,1.32,0,0,1-1.14.65A1.35,1.35,0,0,1,722.84,569.83Zm-9.07-5.35-4.54-2.67a1.32,1.32,0,0,1,1.34-2.27l4.54,2.67a1.33,1.33,0,0,1,.46,1.81,1.31,1.31,0,0,1-1.13.64A1.25,1.25,0,0,1,713.77,564.48Zm-9.07-5.34-4.54-2.67a1.33,1.33,0,0,1-.46-1.81,1.31,1.31,0,0,1,1.8-.46l4.53,2.67a1.31,1.31,0,0,1,.47,1.8,1.3,1.3,0,0,1-1.13.65A1.35,1.35,0,0,1,704.7,559.14Zm-9.07-5.35-4.54-2.67a1.32,1.32,0,1,1,1.33-2.27l4.54,2.68a1.31,1.31,0,0,1,.47,1.8,1.35,1.35,0,0,1-1.14.65A1.23,1.23,0,0,1,695.63,553.79Z"/><path class="cls-2" d="M610.66,656.31l-4.54-2.67a1.32,1.32,0,1,1,1.33-2.27L612,654a1.32,1.32,0,0,1-1.33,2.27ZM601.58,651l-4.53-2.67a1.31,1.31,0,1,1,1.33-2.26l4.54,2.67a1.32,1.32,0,0,1,.47,1.8,1.35,1.35,0,0,1-1.14.65A1.26,1.26,0,0,1,601.58,651Zm-9.07-5.34L588,643a1.32,1.32,0,0,1,1.34-2.27l4.54,2.67a1.32,1.32,0,0,1,.46,1.8,1.3,1.3,0,0,1-1.13.65A1.35,1.35,0,0,1,592.51,645.62Zm-9.07-5.35-4.54-2.67a1.31,1.31,0,0,1,1.34-2.26l4.53,2.67a1.31,1.31,0,0,1,.47,1.8,1.32,1.32,0,0,1-1.14.65A1.25,1.25,0,0,1,583.44,640.27Zm-9.08-5.34-4.53-2.67a1.32,1.32,0,1,1,1.34-2.27l4.53,2.67a1.32,1.32,0,0,1,.47,1.81,1.34,1.34,0,0,1-1.14.64A1.38,1.38,0,0,1,574.36,634.93Zm-9.07-5.34-4.53-2.68a1.31,1.31,0,1,1,1.33-2.26l4.54,2.67a1.32,1.32,0,0,1-.67,2.45A1.35,1.35,0,0,1,565.29,629.59Z"/><g class="cls-3"><path class="cls-4" d="M759,382.89l-72.52,41.87L614.08,383l72.52-41.87L759,382.89Zm5.41,0L686.58,338l-77.91,45,77.8,44.92,77.91-45Z"/><polygon class="cls-4" points="675.53 433.86 598.03 389.11 601.18 387.3 678.67 432.04 675.53 433.86"/><polygon class="cls-4" points="666.54 439.05 589.04 394.3 592.19 392.49 669.68 437.23 666.54 439.05"/><polygon class="cls-4" points="621.21 423.43 579.9 399.58 583.05 397.76 624.36 421.61 621.21 423.43"/><path class="cls-4" d="M859.38,440.87l-72.52,41.87L714.49,441,787,399.09l72.37,41.78Zm5.41,0L787,396l-77.92,45,77.8,44.92,77.91-45Z"/><polygon class="cls-4" points="775.94 491.83 698.45 447.09 701.59 445.27 779.09 490.01 775.94 491.83"/><polygon class="cls-4" points="766.95 497.02 689.46 452.28 692.6 450.46 770.1 495.2 766.95 497.02"/><polygon class="cls-4" points="721.63 481.4 680.32 457.55 683.46 455.74 724.77 479.59 721.63 481.4"/><path class="cls-4" d="M624.12,460.75,551.6,502.62l-72.37-41.79L551.75,419l72.37,41.78Zm5.41,0-77.8-44.92-77.91,45,77.8,44.92,77.91-45Z"/><polygon class="cls-4" points="540.68 511.71 463.18 466.97 466.33 465.15 543.83 509.89 540.68 511.71"/><polygon class="cls-4" points="531.69 516.9 454.19 472.16 457.34 470.34 534.84 515.08 531.69 516.9"/><polygon class="cls-4" points="486.37 501.29 445.05 477.43 448.2 475.62 489.51 499.47 486.37 501.29"/><path class="cls-4" d="M724.54,518.72,652,560.59l-72.37-41.78,72.51-41.87,72.38,41.78Zm5.41,0-77.8-44.91-77.91,45L652,563.72l77.92-45Z"/><polygon class="cls-4" points="641.1 569.68 563.6 524.94 566.74 523.12 644.24 567.87 641.1 569.68"/><polygon class="cls-4" points="632.11 574.87 554.61 530.13 557.75 528.31 635.25 573.06 632.11 574.87"/><polygon class="cls-4" points="586.78 559.26 545.47 535.41 548.62 533.59 589.93 557.44 586.78 559.26"/><path class="cls-4" d="M488.67,539l-72.51,41.87L343.79,539l72.51-41.86L488.67,539Zm5.41,0L416.29,494l-77.92,45,77.8,44.91,77.91-45Z"/><polygon class="cls-4" points="405.23 589.91 327.74 545.17 330.88 543.35 408.38 588.09 405.23 589.91"/><polygon class="cls-4" points="396.24 595.1 318.75 550.36 321.89 548.54 399.39 593.28 396.24 595.1"/><polygon class="cls-4" points="350.92 579.49 309.61 555.63 312.75 553.82 354.06 577.67 350.92 579.49"/><path class="cls-4" d="M589.09,596.92l-72.52,41.87L444.2,597l72.52-41.87,72.37,41.78Zm5.41,0L516.7,552l-77.91,45,77.8,44.92,77.91-45Z"/><polygon class="cls-4" points="505.65 647.88 428.15 603.14 431.3 601.32 508.79 646.07 505.65 647.88"/><polygon class="cls-4" points="496.66 653.07 419.16 608.33 422.31 606.51 499.8 651.26 496.66 653.07"/><polygon class="cls-4" points="451.33 637.46 410.02 613.61 413.17 611.79 454.48 635.64 451.33 637.46"/><path class="cls-4" d="M726.37,305l26.5,15.3a4.36,4.36,0,0,0,4,0c1.08-.62,1.08-1.64,0-2.28l-26.5-15.29a4.33,4.33,0,0,0-3.95,0A1.2,1.2,0,0,0,726.37,305Zm23.79,16.86-26.5-15.3a4.4,4.4,0,0,0-3.95,0,1.2,1.2,0,0,0,0,2.28l26.5,15.3a4.33,4.33,0,0,0,3.95,0A1.2,1.2,0,0,0,750.16,321.82Zm-6.65,3.84L717,310.36a4.36,4.36,0,0,0-3.95,0,1.2,1.2,0,0,0,0,2.28l26.5,15.3a4.36,4.36,0,0,0,3.95,0A1.2,1.2,0,0,0,743.51,325.66Z"/><path class="cls-4" d="M452,685.62,262.68,576.29c-12.48-7.2-12.54-18.88-.15-26l445.9-257.44c12.39-7.16,32.62-7.12,45.09.08L942.89,402.23c12.47,7.2,12.53,18.88.14,26L497.13,685.7C484.74,692.86,464.51,692.82,452,685.62ZM751.72,293.94c-11.47-6.63-30.08-6.66-41.48-.08L264.34,551.3c-11.4,6.58-11.34,17.33.13,24L453.84,684.58c11.47,6.63,30.08,6.66,41.48.08l445.9-257.44c11.4-6.58,11.34-17.33-.13-24Z"/><path class="cls-4" d="M907.49,415.27c0,.81-1.14,1.47-2.55,1.47s-2.55-.67-2.56-1.48,1.14-1.47,2.55-1.47S907.48,414.46,907.49,415.27Z"/><path class="cls-4" d="M903.6,403.48h-.42V405h.41c10.55,0,19.16,5,19.2,11.07a.43.43,0,0,1,0,.05h2.55a.2.2,0,0,0,0,0C925.31,409.14,915.55,403.5,903.6,403.48Z"/><path class="cls-4" d="M903.63,409.37l-.42,0v1.47l.42,0c4.92,0,8.94,2.32,9,5.17v0l2.55,0V416C915.12,412.37,910,409.38,903.63,409.37Z"/><path class="cls-4" d="M903.61,406.43h-.42v1.47h.42c7.74,0,14,3.66,14.07,8.13v0h2.55V416C920.22,410.75,912.75,406.44,903.61,406.43Z"/><polygon class="cls-4" points="854.36 388.14 777.92 344.01 782.87 341.15 859.31 385.29 854.36 388.14"/></g><g class="cls-5"><path class="cls-6" d="M429.79,650.55c13.19,0,25.16-2.88,34.62-8.35L946.86,364.51c12.63-7.29,19.87-18.83,19.87-31.65,0-14.06-8.72-27.15-23.92-35.93L734.71,176.78c-11.94-6.89-26.88-10.69-42.05-10.69-13.2,0-25.17,2.89-34.63,8.35L175.58,452.14C163,459.43,155.71,471,155.71,483.79c0,14,8.72,27.14,23.93,35.92l208.1,120.15C399.68,646.75,414.61,650.55,429.79,650.55Z"/><path class="cls-7" d="M658.42,175.27,176,453c-12.13,7-19,18-18.94,30.19.05,13.32,8.4,25.78,23,34.21L378.73,632.09c.32.19,10.07,5.76,10.44,5.88,12.25,6.69,27.48,10.08,42.32,9.48a74.27,74.27,0,0,0,34.14-9.13L945.42,362.16c12.13-7,19-18,18.94-30.19-.06-13.32-8.41-25.79-23-34.21L734.51,178.33a87.15,87.15,0,0,0-15.37-6.83,89.65,89.65,0,0,0-26.27-4.29C679.78,167.09,667.79,169.86,658.42,175.27Z"/><path class="cls-8" d="M658.8,176.1,176.35,453.8c-11.63,6.72-18.13,17.19-18,28.74.12,12.58,8.1,24.41,22.07,32.48L380.05,630.29c.64.37,9.81,5.55,10.56,5.78a80.58,80.58,0,0,0,42.58,8.27c10.79,0,25.92-5.43,33.66-9.9L944,359.81c11.63-6.71,18.13-17.18,18-28.73-.12-12.59-8.09-24.42-22.07-32.49l-205.6-118.7A98.79,98.79,0,0,0,719.1,173a88.88,88.88,0,0,0-26-4.61C680.1,168.08,668.09,170.74,658.8,176.1Z"/><path class="cls-9" d="M659.19,176.94,176.74,454.63c-11.14,6.43-17.27,16.37-17.09,27.28.18,11.85,7.79,23,21.15,30.76L381.38,628.48c1,.56,9.54,5.35,10.66,5.69a78.2,78.2,0,0,0,42.85,7.06c9.59,0,26.29-6.69,33.17-10.67L942.52,357.47c11.14-6.43,17.27-16.37,17.09-27.29-.18-11.84-7.79-23-21.15-30.75l-204.36-118a114.33,114.33,0,0,0-15-7.05,88.63,88.63,0,0,0-25.78-4.93C680.42,169.07,668.38,171.63,659.19,176.94Z"/><path class="cls-10" d="M659.58,177.77,177.13,455.46c-10.64,6.15-16.4,15.55-16.17,25.83.24,11.11,7.48,21.68,20.22,29L382.71,626.68c1.28.74,9.27,5.13,10.76,5.59a75.7,75.7,0,0,0,43.12,5.86c8.39,0,26.67-8,32.69-11.45L941.07,355.12c10.64-6.14,16.41-15.55,16.17-25.83-.24-11.11-7.48-21.68-20.23-29L733.9,183A136,136,0,0,0,719,175.83a88.13,88.13,0,0,0-25.52-5.25C680.74,170.07,668.68,172.51,659.58,177.77Z"/><path class="cls-11" d="M660,178.6,177.51,456.3C167.37,462.15,162,471,162.27,480.66c.3,10.38,7.17,20.31,19.3,27.32L384,624.87c1.6.93,9,4.93,10.88,5.51,13.5,5.91,29.9,7.64,43.38,4.64,7.19,0,27-9.24,32.2-12.22l469.13-270c10.15-5.85,15.54-14.72,15.25-24.37-.3-10.37-7.17-20.31-19.3-27.31L733.7,184.54c-2.59-1.5-11.73-6.19-14.7-7.27a87.9,87.9,0,0,0-25.28-5.57C681.06,171.06,669,173.39,660,178.6Z"/><path class="cls-12" d="M660.35,179.43,177.9,457.13c-9.65,5.57-14.67,13.9-14.32,22.91.36,9.64,6.86,18.94,18.38,25.59l203.4,117.44c1.92,1.11,8.75,4.72,11,5.41,13.81,5.71,30.51,7,43.65,3.44,6,0,27.42-10.51,31.72-13L938.18,350.43c9.64-5.57,14.67-13.91,14.31-22.92-.35-9.64-6.85-18.94-18.37-25.59L733.5,186.09c-2.16-1.25-12.07-6.45-14.54-7.37-7.75-2.92-16.25-5.36-25-5.9C681.38,172.05,669.28,174.27,660.35,179.43Z"/><path class="cls-13" d="M660.74,180.26,178.29,458c-9.15,5.28-13.8,13.08-13.39,21.46.41,8.9,6.54,17.57,17.44,23.87l204.35,118a82.67,82.67,0,0,0,11.09,5.32c14.12,5.52,31.11,6.43,43.91,2.23,4.8,0,27.8-11.78,31.24-13.77l463.8-267c9.15-5.28,13.8-13.08,13.39-21.46-.42-8.9-6.54-17.57-17.45-23.87L733.3,187.64c-1.73-1-12.41-6.72-14.38-7.48-7.66-3-16.06-5.59-24.78-6.22C681.7,173.05,669.58,175.16,660.74,180.26Z"/><path class="cls-14" d="M661.12,181.09,178.68,458.79c-8.66,5-12.94,12.26-12.47,20,.48,8.17,6.23,16.21,16.52,22.15L388,619.46a73.46,73.46,0,0,0,11.2,5.22c14.44,5.33,31.72,5.83,44.18,1,3.6,0,28.17-13.06,30.75-14.55L935.28,345.73c8.65-5,12.94-12.26,12.47-20-.48-8.17-6.23-16.21-16.53-22.15L733.1,189.2c-1.29-.75-12.74-7-14.21-7.6-7.57-3-15.88-5.82-24.53-6.54C682,174,669.88,176,661.12,181.09Z"/><path class="cls-15" d="M661.51,181.92,179.06,459.62c-8.15,4.71-12.07,11.44-11.54,18.55.54,7.43,5.92,14.84,15.6,20.42L389.34,617.66a67.79,67.79,0,0,0,11.3,5.13c14.75,5.12,32.33,5.21,44.45-.19,2.4,0,28.55-14.33,30.27-15.32L933.83,343.39c8.16-4.71,12.07-11.45,11.55-18.55-.54-7.43-5.93-14.84-15.6-20.43L732.9,190.75c-.86-.5-13.07-7.31-14-7.71-7.48-3.08-15.68-6-24.28-6.86C682.34,175,670.18,176.92,661.51,181.92Z"/><path class="cls-16" d="M661.9,182.75,179.45,460.45c-7.66,4.42-11.21,10.62-10.62,17.09.6,6.7,5.61,13.47,14.68,18.71l207.16,119.6a60.85,60.85,0,0,0,11.41,5c15.06,4.93,32.94,4.6,44.71-1.4,1.2,0,28.93-15.59,29.79-16.09L932.38,341c7.67-4.42,11.21-10.62,10.62-17.09-.59-6.7-5.61-13.47-14.67-18.71L732.7,192.3c-.43-.25-13.4-7.61-13.89-7.82-7.4-3.14-15.49-6.28-24-7.18C682.66,176,670.48,177.8,661.9,182.75Z"/><path d="M448.49,616.39l482.45-277.7c14.48-8.36,12.66-23-4.06-32.61L718.78,185.93c-16.72-9.66-42-10.7-56.49-2.34L179.84,461.28c-14.48,8.36-12.67,23,4,32.62L392,614.05C408.71,623.7,434,624.75,448.49,616.39Z"/></g><path class="cls-17" d="M381.45,565.5,186.9,453.17c-22-12.67-19.2-34.8,6.14-49.44L650.53,139.6c25.34-14.63,63.68-16.22,85.62-3.55L930.71,248.38c21.95,12.67,19.19,34.8-6.15,49.44L467.07,562C441.73,576.58,403.4,578.17,381.45,565.5Z"/><path class="cls-18" d="M381.45,562.16,186.9,449.83c-9.81-5.66-14.68-13.21-14.82-21.13,0-.7,0-16,.08-16.66.81-9.18,7.86-4.12,20.88-11.64L650.53,136.27c25.34-14.63,63.68-16.22,85.62-3.55L930.71,245.05c9.8,5.66,14.67-4.3,14.81,3.62,0,.69,0,18.88-.07,19.57-.79,9.2-7.85,18.71-20.89,26.24L467.07,558.61C441.73,573.24,403.4,574.83,381.45,562.16Z"/><path class="cls-19" d="M381.45,545.49,186.9,433.16c-22-12.67-19.2-34.8,6.14-49.43L650.53,119.6c25.34-14.63,63.68-16.22,85.62-3.55L930.71,228.38c21.95,12.67,19.19,34.8-6.15,49.43L467.07,541.94C441.73,556.57,403.4,558.16,381.45,545.49Z"/><path class="cls-20" d="M186.9,431,381.45,543.3c21.95,12.67,60.28,11.08,85.62-3.55L924.56,275.62c13.34-7.7,20.41-17.48,20.93-26.86.55,10-6.55,20.75-20.93,29.05L467.07,541.94c-25.34,14.63-63.67,16.22-85.62,3.55L186.9,433.16c-10.4-6-15.24-14.12-14.78-22.57C172.54,418.24,177.4,425.5,186.9,431Z"/><path class="cls-21" d="M198.18,387,656.23,122.57c22.21-12.83,55.82-14.22,75-3.11L924.81,231.19c19.24,11.11,16.82,30.51-5.39,43.33L461.38,539c-22.22,12.83-55.82,14.22-75.06,3.11L192.8,430.35C173.56,419.25,176,399.84,198.18,387Z"/><path class="cls-22" d="M207.06,390.83,662.83,127.69c18.59-10.73,46.72-11.9,62.83-2.6L915.05,234.44c16.11,9.3,14.09,25.54-4.51,36.27L454.78,533.85c-18.6,10.73-46.73,11.9-62.83,2.6L202.55,427.1C186.45,417.81,188.47,401.57,207.06,390.83Z"/><path class="cls-23" d="M724,128.58c-15.17-8.77-39.7-8.81-54.79-.1l-460.79,266c-15.08,8.7-15,22.87.17,31.63L393.6,533c15.18,8.77,39.71,8.81,54.79.1L909.18,267c15.09-8.71,15-22.87-.17-31.64Z"/><path class="cls-24" d="M421.15,535.81c9.66,0,18.67-2.13,25.37-6l460.79-266c6.05-3.5,9.39-7.93,9.39-12.48s-3.4-9.1-9.56-12.66l-185-106.81c-6.81-3.94-15.94-6.1-25.68-6.1s-18.66,2.13-25.36,6l-460.79,266c-6.06,3.5-9.39,7.93-9.39,12.48s3.39,9.1,9.56,12.66l185,106.82C402.29,533.65,411.41,535.81,421.15,535.81Z"/><path class="cls-25" d="M838.16,342.3l21.2-12.24c2.65-1.53,4.8-5.63,4.8-9.16h0c0-3.53-2.15-5.15-4.8-3.62l-21.2,12.24c-2.65,1.53-4.8,5.63-4.8,9.16h0C833.36,342.21,835.51,343.83,838.16,342.3Z"/><path class="cls-26" d="M838.16,342.3l21.2-12.24c2.65-1.53,4.8-5.63,4.8-9.16h0c0-3.53-2.15-5.15-4.8-3.62l-21.2,12.24c-2.65,1.53-4.8,5.63-4.8,9.16h0C833.36,342.21,835.51,343.83,838.16,342.3Z"/><path class="cls-27" d="M836.25,341.63a2.72,2.72,0,0,0,1.28-.41L858.74,329c2.26-1.31,4.17-5,4.17-8.08,0-1.36-.43-2.95-1.64-2.95a2.61,2.61,0,0,0-1.28.41L838.78,330.6c-2.26,1.31-4.16,5-4.16,8.08C834.62,340,835.05,341.63,836.25,341.63Z"/><path class="cls-28" d="M800.3,364.16l21.2-12.24c2.65-1.53,4.8-5.63,4.8-9.16h0c0-3.53-2.15-5.15-4.8-3.62l-21.2,12.24c-2.65,1.53-4.8,5.63-4.8,9.16h0C795.5,364.07,797.65,365.69,800.3,364.16Z"/><path class="cls-29" d="M800.3,364.16l21.2-12.24c2.65-1.53,4.8-5.63,4.8-9.16h0c0-3.53-2.15-5.15-4.8-3.62l-21.2,12.24c-2.65,1.53-4.8,5.63-4.8,9.16h0C795.5,364.07,797.65,365.69,800.3,364.16Z"/><path class="cls-30" d="M798.39,363.48a2.7,2.7,0,0,0,1.28-.4l21.21-12.25c2.26-1.3,4.17-5,4.17-8.07,0-1.36-.43-2.95-1.64-2.95a2.61,2.61,0,0,0-1.28.41l-21.21,12.24c-2.26,1.31-4.16,5-4.16,8.08C796.76,361.9,797.19,363.48,798.39,363.48Z"/><path class="cls-31" d="M615.48,456.63,924.56,277.39c13-7.53,20.1-17,20.89-26.23,0-.31,0-4,.06-8.12,0,.08,0,19.09-.06,19.79-.79,9.19-7.85,18.7-20.89,26.23Z"/><ellipse class="cls-32" cx="765.04" cy="368.58" rx="139.45" ry="92.57" transform="translate(-82.94 323.18) rotate(-22.66)"/><ellipse class="cls-33" cx="430.14" cy="560.62" rx="48.17" ry="72.57" transform="translate(-251.9 745.38) rotate(-67.66)"/><path class="cls-34" d="M313.29,444.81,254,410.6c-5.86-3.38-5.13-9.29,1.64-13.19l55.47-32c6.76-3.91,17-4.33,22.85-.95l59.26,34.21c5.86,3.38,5.12,9.29-1.64,13.2l-55.48,32C329.38,447.77,319.15,448.19,313.29,444.81Z"/><path class="cls-35" d="M391.62,409.75l-55.48,32c-6.76,3.9-17,4.33-22.85.94L254,408.51a7.31,7.31,0,0,1-3.83-4.6c-.44,2.49.78,4.93,3.83,6.69l59.25,34.21c5.86,3.38,16.09,3,22.85-.95l55.48-32c4.24-2.45,6.1-5.69,5.47-8.59C396.68,405.54,394.86,407.88,391.62,409.75Z"/><path d="M266.39,494.37l34.82,20.11h0c0-6.36-3.87-13.75-8.64-16.51L275,487.84c-4.77-2.75-8.63.17-8.63,6.53Z"/><path class="cls-36" d="M522,429.53,489.76,410.9c-3.61-2.09-3.63-5.47,0-7.54L514.58,389a14.64,14.64,0,0,1,12.32-.36l9-5.17c7-4.05,18.47-4,25.53,0l8.07,4.66c7.06,4.08,7.1,10.69.08,14.74l-9,5.18c2.94,2.1,2.74,5.18-.62,7.11L535.1,429.56A14.45,14.45,0,0,1,522,429.53Zm3.41-39.24a9.61,9.61,0,0,0-8.66,0l-24.87,14.36c-2.38,1.37-2.36,3.62,0,5l32.28,18.64a9.6,9.6,0,0,0,8.67,0l24.86-14.35c2.38-1.38,2.37-3.62,0-5l-1.51-.87,11.13-6.42c5.8-3.35,5.77-8.83-.07-12.2l-8.07-4.66c-5.85-3.38-15.33-3.39-21.13,0L527,391.16Zm26.19,15.12-20.1-11.6,9.11-5.27c4.25-2.45,11.19-2.44,15.47,0l4.59,2.65c4.28,2.47,4.3,6.48,0,8.93Zm-15.71-11.6,15.7,9.07,6.92-4c3.05-1.76,3-4.63,0-6.4l-4.59-2.64a12.23,12.23,0,0,0-11.07,0Z"/><path class="cls-36" d="M518,416.81l-6.24-3.61,6.32-3.64c-.62-1.58.19-3.26,2.18-4.41a12.89,12.89,0,0,1,11.65,0c3.22,1.87,3.24,4.88,0,6.73a12.67,12.67,0,0,1-7.63,1.26Z"/><path class="cls-37" d="M351.13,385.52c-10.14-4.66-24.94-4.78-35.18-.28-7.76,3.4-12,8.78-11.31,14.37.31,2.55-1.22,5-4.21,6.72l-4.21,2.43c-2.24,1.3-2.62,3.25-1.19,4.8l-4.12,2.38c-2.47,1.42-2.46,3.76,0,5.19l3.34,1.93a10,10,0,0,0,9,0l4.12-2.38a11.18,11.18,0,0,0,8.31-.69l4.2-2.43c3-1.73,7.22-2.59,11.88-2.42,8.21.29,16.24-1.45,22-4.79C365.8,403.44,364.92,391.82,351.13,385.52ZM332,413.35c-5.48-.2-10.68.88-14.27,2.95l-4.2,2.43a6.17,6.17,0,0,1-5.57,0l-3.36-1.94L324,405.57l11.54,0A1.8,1.8,0,0,0,337,405c.24-.33.11-.72-.34-1l-12.74-7.36a2.47,2.47,0,0,0-1.71-.2c-.58.14-1,.47-1,.84l0,7.25-18.9,10.92-3.88-2.24c-1.54-.89-1.55-2.33,0-3.22l4.22-2.43c3.62-2.09,5.48-5.05,5.11-8.11-.61-5,3.16-9.78,10.09-12.82,9.12-4,22.29-3.9,31.33.25.81.37,1.57.77,2.28,1.18,10,5.8,10.11,15.21.12,21C346.44,412.06,339.28,413.61,332,413.35Z"/><path class="cls-36" d="M462.06,449.26l-4.12-2.38a14.78,14.78,0,0,0-13.35,0L416.68,463c-6.87-.7-13.82.56-18.75,3.4-8.32,4.8-8.28,12.65.1,17.48s22,4.86,30.27.06c4.93-2.85,7.1-6.86,5.89-10.83L462.1,457C465.77,454.85,465.75,451.39,462.06,449.26Zm-2.14,6.45-29.06,16.78.17.47c1.32,3.54-.52,7.16-4.9,9.69-7.13,4.12-18.77,4.09-25.94,0s-7.21-10.86-.08-15c4.39-2.54,10.66-3.6,16.77-2.83l.82.1,29.07-16.79a10,10,0,0,1,9,0l4.13,2.38C462.39,452,462.4,454.28,459.92,455.71Z"/><path class="cls-36" d="M447.21,457.83l-4.12-2.38a3.66,3.66,0,0,0-3.29,0l-20.78,12-3-.37a21.8,21.8,0,0,0-13.08,2.2c-5.56,3.21-5.53,8.45.06,11.68s14.66,3.24,20.22,0c3.42-2,4.84-4.79,3.82-7.55l-.64-1.71,20.78-12C448.13,459.21,448.12,458.36,447.21,457.83Z"/><path class="cls-36" d="M464.94,332l-3.25-1.87,2.3-1.34c1.58-.91,1.57-2.39,0-3.3l-4.81-2.78a6.32,6.32,0,0,0-5.73,0L451.12,324l-4.53-2.62c-3-1.72-8.32-1.5-11.67.43l-37.48,21.64c-2,1.17-3.19,2.81-3.19,4.51a4.33,4.33,0,0,0,2.44,3.71l3.25,1.88L397.45,355c-1.58.91-1.57,2.39,0,3.3l4.81,2.78a6.32,6.32,0,0,0,5.73,0l2.49-1.44,4.54,2.61a10.31,10.31,0,0,0,5.14,1.21,13.31,13.31,0,0,0,6.52-1.64l37.49-21.64c2-1.17,3.18-2.81,3.18-4.5A4.33,4.33,0,0,0,464.94,332Zm-2,6-37.48,21.64c-2.58,1.49-6.94,1.68-9.1.43L398,349.45c-.43-.25-1.15-.77-1.15-1.49s.71-1.59,1.9-2.28L436.21,324a10.77,10.77,0,0,1,5.23-1.29,8,8,0,0,1,3.87.86l18.34,10.6c.43.24,1.16.77,1.16,1.49S464.1,337.28,462.9,338Z"/><polygon class="cls-36" points="419.4 337.16 430.75 343.71 409.95 349.34 443.31 344.9 433.05 338.97 452.2 334.61 419.4 337.16"/><path class="cls-36" d="M429.61,387.12a21.43,21.43,0,0,1-10.53-2.45l-59.26-34.21c-2.94-1.7-4.57-4.11-4.57-6.79,0-3.13,2.27-6.24,6.21-8.51l55.48-32a27.76,27.76,0,0,1,13.53-3.39A21.43,21.43,0,0,1,441,302.18l59.26,34.21c2.94,1.7,4.56,4.11,4.56,6.79,0,3.14-2.26,6.24-6.2,8.52l-55.48,32A27.76,27.76,0,0,1,429.61,387.12Zm.86-84.95a25.36,25.36,0,0,0-12.32,3.07l-55.47,32c-3.17,1.83-5,4.16-5,6.4,0,1.77,1.19,3.44,3.35,4.68l59.26,34.21a19,19,0,0,0,9.31,2.12,25.35,25.35,0,0,0,12.32-3.06l55.47-32c3.17-1.83,5-4.17,5-6.41,0-1.79-1.16-3.41-3.35-4.67l-59.26-34.22A19.07,19.07,0,0,0,430.47,302.17Z"/><path class="cls-36" d="M535.13,447.62a21.54,21.54,0,0,1-10.53-2.44L465.34,411c-2.94-1.7-4.56-4.1-4.56-6.78,0-3.14,2.26-6.24,6.2-8.52l55.47-32A27.93,27.93,0,0,1,536,360.24a21.43,21.43,0,0,1,10.53,2.45l59.26,34.21c2.94,1.7,4.56,4.11,4.56,6.78,0,3.14-2.26,6.24-6.2,8.52l-55.48,32A27.76,27.76,0,0,1,535.13,447.62Zm.86-84.94a25.35,25.35,0,0,0-12.32,3.06l-55.47,32c-3.17,1.83-5,4.17-5,6.41,0,1.77,1.19,3.43,3.35,4.67l59.25,34.22a19.14,19.14,0,0,0,9.32,2.12,25.36,25.36,0,0,0,12.32-3.07l55.47-32c3.17-1.83,5-4.16,5-6.41,0-1.77-1.19-3.43-3.35-4.67L545.3,364.8A19,19,0,0,0,536,362.68Z"/><path class="cls-36" d="M428.74,508.82a21.5,21.5,0,0,1-10.54-2.45L359,472.15c-2.95-1.69-4.57-4.1-4.57-6.78,0-3.13,2.26-6.24,6.21-8.52l55.47-32a27.83,27.83,0,0,1,13.54-3.4,21.43,21.43,0,0,1,10.53,2.45l59.26,34.21c2.94,1.7,4.56,4.11,4.56,6.79,0,3.13-2.26,6.24-6.2,8.51l-55.48,32A27.79,27.79,0,0,1,428.74,508.82Zm.86-84.95a25.33,25.33,0,0,0-12.32,3.07l-55.47,32c-3.17,1.83-5,4.17-5,6.41,0,1.8,1.16,3.41,3.35,4.68l59.25,34.21a19,19,0,0,0,9.32,2.12,25.29,25.29,0,0,0,12.31-3.07l55.48-32c3.17-1.83,5-4.16,5-6.4,0-1.77-1.18-3.43-3.34-4.68L438.91,426A19,19,0,0,0,429.6,423.87Z"/><path class="cls-38" d="M330,397.57a1.21,1.21,0,0,1-1.22-1.22v-.29a1.22,1.22,0,0,1,2.43,0v.29A1.21,1.21,0,0,1,330,397.57Zm0-5.16a1.22,1.22,0,0,1-1.22-1.22v-4.88a1.22,1.22,0,0,1,2.43,0v4.88A1.22,1.22,0,0,1,330,392.41Zm0-9.75a1.22,1.22,0,0,1-1.22-1.22v-4.88a1.22,1.22,0,0,1,2.43,0v4.88A1.22,1.22,0,0,1,330,382.66Zm0-9.75a1.22,1.22,0,0,1-1.22-1.22v-4.88a1.22,1.22,0,1,1,2.43,0v4.88A1.22,1.22,0,0,1,330,372.91Zm0-9.75a1.22,1.22,0,0,1-1.22-1.22v-4.88a1.22,1.22,0,0,1,2.43,0v4.88A1.22,1.22,0,0,1,330,363.16Zm0-9.75a1.22,1.22,0,0,1-1.22-1.22v-4.88a1.22,1.22,0,0,1,2.43,0v4.88A1.22,1.22,0,0,1,330,353.41Zm0-9.75a1.22,1.22,0,0,1-1.22-1.22v-4.88a1.22,1.22,0,0,1,2.43,0v4.88A1.22,1.22,0,0,1,330,343.66Zm0-9.75a1.22,1.22,0,0,1-1.22-1.22v-4.87a1.22,1.22,0,1,1,2.43,0v4.87A1.22,1.22,0,0,1,330,333.91Zm0-9.75a1.22,1.22,0,0,1-1.22-1.22v-4.87a1.22,1.22,0,1,1,2.43,0v4.87A1.22,1.22,0,0,1,330,324.16Zm0-9.75a1.22,1.22,0,0,1-1.22-1.22v-4.87a1.22,1.22,0,1,1,2.43,0v4.87A1.22,1.22,0,0,1,330,314.41Zm0-9.75a1.22,1.22,0,0,1-1.22-1.22v-4.87a1.22,1.22,0,1,1,2.43,0v4.87A1.22,1.22,0,0,1,330,304.66Zm0-9.75a1.21,1.21,0,0,1-1.22-1.22v-4.87a1.22,1.22,0,1,1,2.43,0v4.87A1.21,1.21,0,0,1,330,294.91Zm0-9.75a1.21,1.21,0,0,1-1.22-1.22v-4.87a1.22,1.22,0,1,1,2.43,0v4.87A1.21,1.21,0,0,1,330,285.16Zm0-9.75a1.21,1.21,0,0,1-1.22-1.22v-4.87a1.22,1.22,0,1,1,2.43,0v4.87A1.21,1.21,0,0,1,330,275.41Zm0-9.75a1.21,1.21,0,0,1-1.22-1.22v-4.87a1.22,1.22,0,1,1,2.43,0v4.87A1.21,1.21,0,0,1,330,265.66Zm0-9.75a1.21,1.21,0,0,1-1.22-1.22v-4.87a1.22,1.22,0,1,1,2.43,0v4.87A1.21,1.21,0,0,1,330,255.91Z"/><circle class="cls-39" cx="329.99" cy="399.21" r="26.32" transform="translate(-132.59 632.18) rotate(-77.15)"/><polygon class="cls-40" points="476.76 266.14 523.35 292.82 523.68 307.91 585.53 343.89 674.42 379.19 844.33 338.67 829.4 331.74 889.65 241.63 704.63 130.19 476.76 266.14"/><polygon class="cls-41" points="580.1 49.53 759.95 154.17 863.36 168.94 683.39 66.37 580.1 49.53"/><polygon class="cls-42" points="759.89 154.17 759.89 330.68 778.47 320.18 778.5 316.3 844.6 277.18 848.62 278.67 863.36 269.94 863.36 168.94 759.89 154.17"/><polygon class="cls-43" points="759.95 154.17 759.95 330.68 580.1 225.98 580.1 49.53 759.95 154.17"/><polygon class="cls-44" points="774.24 229.63 852.95 182.34 852.95 276.11 848.62 278.67 844.59 277.18 778.5 316.3 778.47 320.18 774.24 322.69 774.24 229.63"/><polygon class="cls-45" points="844.59 277.18 844.59 192.34 778.5 232.04 778.5 316.3 844.59 277.18"/><polygon class="cls-46" points="844.59 198.8 844.59 192.34 778.5 232.04 778.5 237.92 844.59 198.8"/><polygon class="cls-46" points="844.59 200.04 844.59 196.6 778.5 236.31 778.5 239.16 844.59 200.04"/><polygon class="cls-46" points="844.59 206.73 844.59 203.29 778.5 243 778.5 245.85 844.59 206.73"/><polygon class="cls-46" points="844.59 213.42 844.59 209.98 778.5 249.69 778.5 252.54 844.59 213.42"/><polygon class="cls-46" points="844.59 220.11 844.59 216.67 778.5 256.37 778.5 259.23 844.59 220.11"/><polygon class="cls-46" points="844.59 226.8 844.59 223.36 778.5 263.06 778.5 265.92 844.59 226.8"/><polygon class="cls-46" points="844.59 233.49 844.59 230.05 778.5 269.75 778.5 272.61 844.59 233.49"/><polygon class="cls-46" points="844.59 240.18 844.59 236.74 778.5 276.44 778.5 279.3 844.59 240.18"/><polygon class="cls-46" points="844.59 246.87 844.59 243.43 778.5 283.13 778.5 285.99 844.59 246.87"/><polygon class="cls-46" points="844.59 253.56 844.59 250.12 778.5 289.82 778.5 292.67 844.59 253.56"/><polygon class="cls-46" points="844.59 260.25 844.59 256.81 778.5 296.51 778.5 299.36 844.59 260.25"/><polygon class="cls-46" points="844.59 266.93 844.59 263.5 778.5 303.2 778.5 306.05 844.59 266.93"/><polygon class="cls-46" points="844.59 273.62 844.59 270.19 778.5 309.89 778.5 312.74 844.59 273.62"/><polygon class="cls-47" points="660.78 258.78 660.78 371.18 476.76 266.14 476.76 153.11 660.78 258.78"/><polygon class="cls-48" points="660.78 259.84 747.09 111.41 563.07 6.37 476.76 154.17 660.78 259.84"/><polygon class="cls-49" points="489.63 273 489.63 174.51 528.93 197.55 528.93 295.86 489.63 273"/><polygon class="cls-44" points="524.67 199.99 524.67 288.44 493.9 270.54 493.9 181.96 524.67 199.99"/><polygon class="cls-50" points="660.78 371.18 660.78 259.84 746.72 110.28 746.72 323.08 660.78 371.18"/><polygon class="cls-51" points="665.03 119.58 585.53 166.08 585.53 343.89 598.48 336.31 598.48 223.81 665.03 119.58"/><polygon class="Graphic-Style-184" points="497.81 268.59 524.67 284.21 524.67 199.99 497.81 184.25 497.81 268.59"/><polygon class="cls-52" points="497.81 268.59 524.67 199.99 497.81 184.25 497.81 268.59"/><path class="cls-53" d="M497.81,184.25v84.34l26.86,15.62V200Zm24.72,96.25-22.59-13.14V188l22.59,13.24Z"/><polygon class="cls-54" points="585.53 166.08 585.53 343.89 523.68 307.91 523.68 129.82 585.53 166.08"/><polygon class="cls-49" points="534.96 314.05 534.96 215.57 574.25 238.6 574.25 336.92 534.96 314.05"/><polygon class="cls-44" points="569.99 241.05 569.99 329.5 539.22 311.6 539.22 223.01 569.99 241.05"/><polygon class="cls-49" points="609.34 341.07 609.34 242.58 648.63 265.62 648.63 363.93 609.34 341.07"/><polygon class="cls-44" points="644.37 268.06 644.37 356.51 613.6 338.61 613.6 250.03 644.37 268.06"/><polygon class="cls-49" points="534.96 202.62 534.96 149.45 574.25 172.49 574.25 225.49 534.96 202.62"/><polygon class="cls-44" points="569.99 174.93 569.99 218.07 539.22 200.17 539.22 156.9 569.99 174.93"/><polygon class="Graphic-Style-184" points="543.13 309.64 569.99 325.27 569.99 241.05 543.13 225.3 543.13 309.64"/><polygon class="cls-55" points="543.13 309.64 569.99 241.05 543.13 225.3 543.13 309.64"/><polygon class="Graphic-Style-184" points="617.51 336.66 644.37 352.28 644.37 268.06 617.51 252.32 617.51 336.66"/><polygon class="cls-56" points="617.51 336.66 644.37 268.06 617.51 252.32 617.51 336.66"/><polygon class="Graphic-Style-184" points="543.13 198.21 569.99 213.84 569.99 174.93 543.13 159.19 543.13 198.21"/><path class="cls-57" d="M617.51,252.32v84.34l26.86,15.62V268.06Zm24.73,96.25-22.6-13.14V256l22.6,13.24Z"/><polygon class="cls-58" points="543.13 198.21 569.99 174.93 543.13 159.19 543.13 198.21"/><path class="cls-59" d="M543.13,159.19v39L570,213.84V174.93Zm24.73,50.94L545.26,197V162.91l22.6,13.24Z"/><path class="cls-60" d="M543.13,225.3v84.34L570,325.27V241.05Zm24.73,96.26-22.6-13.14V229l22.6,13.24Z"/><polygon class="cls-44" points="683.84 248.03 690.59 244.15 730.2 221.11 730.2 163.61 683.84 248.03"/><polygon class="cls-49" points="695.17 236.56 725.93 218.66 725.93 180.72 695.17 236.56"/><polygon class="cls-44" points="684.55 259.73 730.2 233.61 730.2 332.1 684.55 358.05 684.55 259.73"/><polygon class="cls-49" points="688.82 262.18 688.82 350.63 725.93 329.64 725.93 241.06 688.82 262.18"/><polygon class="cls-61" points="722.38 327.69 722.38 243.14 688.82 262.18 688.82 346.61 722.38 327.69"/><path class="cls-46" d="M688.81,262.18v84.43l33.57-18.92V243.14Zm31.44,64.26L691,343V263.42l29.3-16.62Z"/><polygon class="Graphic-Style-183" points="722.38 187.17 698.43 230.64 722.38 216.7 722.38 187.17"/><path class="cls-62" d="M698.43,230.64l24-13.94V187.17Zm21.82-15.16L704,224.92l16.24-29.46Z"/><polygon class="cls-63" points="585.53 166.08 665.03 119.58 603.18 83.6 523.68 129.82 585.53 166.08"/><polygon class="cls-64" points="674.39 374.01 674.39 379.19 760.02 330.61 760.02 325.42 674.39 374.01"/><polygon class="cls-65" points="674.42 374.01 674.42 379.19 660.76 371.17 660.76 366.02 674.42 374.01"/><polygon class="cls-66" points="660.76 366.02 674.42 374.01 760.02 325.42 746.69 317.68 660.76 366.02"/><path class="cls-67" d="M696.56,296.48a4.85,4.85,0,0,1-2.19,3.79c-1.21.7-2.2.14-2.2-1.25a4.86,4.86,0,0,1,2.2-3.79C695.58,294.53,696.56,295.09,696.56,296.48Z"/><polygon class="cls-68" points="598.48 223.81 665.03 119.58 617.19 234.52 598.48 223.81"/><polygon class="cls-69" points="660.76 366.02 760.02 325.42 746.69 317.68 660.76 366.02"/><polygon class="cls-49" points="844.59 192.34 844.59 277.18 848.62 278.67 848.62 190.17 844.59 192.34"/><path class="cls-36" d="M677,523.57l-31.77-18.35-27.58,15.93,31.78,18.34Zm-27.59,13.85-28.18-16.27,24-13.86,28.19,16.27Zm45.32-22.22-35-20.21A14.2,14.2,0,0,0,647,495L603.6,520l47.85,27.63,43.36-25C698.33,520.57,698.31,517.25,694.77,515.2Zm-43.33,30.36L607.17,520,643.9,498.8l44.27,25.56ZM690,523.33l-44.27-25.56,3.06-1.77a10.26,10.26,0,0,1,9.24,0l35,20.21c2.55,1.48,2.56,3.87,0,5.33Zm-4.05-8.58a4.3,4.3,0,0,0-3.89,0,1.18,1.18,0,0,0,0,2.24,4.27,4.27,0,0,0,3.89,0A1.18,1.18,0,0,0,685.9,514.75Zm-8.45-4.88a4.3,4.3,0,0,0-3.89,0c-1.07.62-1.06,1.62,0,2.25a4.3,4.3,0,0,0,3.89,0C678.53,511.5,678.52,510.49,677.45,509.87ZM669,505a4.33,4.33,0,0,0-3.89,0,1.19,1.19,0,0,0,0,2.25,4.33,4.33,0,0,0,3.89,0A1.19,1.19,0,0,0,669,505Zm-8.45-4.88a4.3,4.3,0,0,0-3.89,0c-1.07.61-1.06,1.62,0,2.24a4.3,4.3,0,0,0,3.89,0A1.19,1.19,0,0,0,660.55,500.11Z"/><path class="cls-36" d="M538.32,609.6l7.19-4.15c3.37-2,3.36-5.13,0-7.09l-31.2-18a13.61,13.61,0,0,0-12.29,0l-7.19,4.15a15.35,15.35,0,0,0-9.55,1.45l-16.57,9.57,1.7,1,7.25-4.18,47.16,27.23-7.25,4.18,1.7,1,16.57-9.56C538.38,613.63,539.19,611.51,538.32,609.6Zm-34.64-28.3a9.84,9.84,0,0,1,8.89,0l31.21,18c2.46,1.42,2.47,3.73,0,5.14l-6.48,3.74a7.49,7.49,0,0,0-1.57-1.22l-.58-.33,1.31-.76c2.46-1.42,2.45-3.75,0-5.18l-8.84-5.1a10,10,0,0,0-7.56-.61c1.34-1.39,1-3.18-1-4.36l-8.84-5.11a9.91,9.91,0,0,0-9,0l-1.31.75-.58-.33a11.47,11.47,0,0,0-2.11-.91ZM516,595.6l-14.43-8.33,1.32-.76a6.14,6.14,0,0,1,5.57,0l8.84,5.1c1.54.89,1.55,2.34,0,3.22Zm17.46,10.07L519,597.34l1.32-.76a6.17,6.17,0,0,1,5.57,0l8.84,5.11c1.54.89,1.55,2.33,0,3.22Zm-54.17-14.36,7.63-4.41a11.83,11.83,0,0,1,10.67,0L534.07,608c2.95,1.71,3,4.47,0,6.16l-7.63,4.41Z"/><path class="cls-36" d="M819.19,448.1l-2.59-19.72c-.33-2.49-4-4.64-8.36-4.82l-34.16-1.5a13.2,13.2,0,0,0-7,1.5l-28,16.14,49.54,28.6,28-16.14C818.45,451.09,819.39,449.61,819.19,448.1Zm-15.86,1.69-32.17-18.57,2.25-1.3,32.16,18.57Zm-33.84-17.61,32.17,18.57-20,11.57-32.17-18.57Zm19.14,34.19-5.33-3.08,25.62-14.79L773.4,428l-25.63,14.79-5.33-3.08,26.3-15.18a9.8,9.8,0,0,1,5.18-1.1l34.16,1.5c3.18.14,5.92,1.72,6.16,3.56l2.6,19.72c.14,1.11-.56,2.2-1.92,3Z"/><path class="cls-36" d="M896.71,518.15a15.28,15.28,0,0,1-8-1.69,6.6,6.6,0,0,1-2.54-2.37,4.43,4.43,0,0,1-.6-2.7,5.56,5.56,0,0,1,1.15-2.69,8.87,8.87,0,0,1,2.72-2.32,16,16,0,0,1,4.06-1.61,20.91,20.91,0,0,1,4.61-.64,18.79,18.79,0,0,1,4.62.39,13.44,13.44,0,0,1,4.06,1.5,6.8,6.8,0,0,1,3.21,3.1,3.5,3.5,0,0,1-.25,3.1l-3-.31a2.67,2.67,0,0,0,.16-2.57,5.31,5.31,0,0,0-2.25-2.17,9.19,9.19,0,0,0-3.07-1.09,14.69,14.69,0,0,0-3.45-.2,16.18,16.18,0,0,0-3.45.59,13.83,13.83,0,0,0-3,1.27,7.32,7.32,0,0,0-2.22,1.84,4.14,4.14,0,0,0-.92,2.05,3.05,3.05,0,0,0,.45,2,5.24,5.24,0,0,0,1.92,1.75c2,1.13,4.66,1.6,8.1,1.43l2.46-1.42-3.87-2.24,1.71-1,5.79,3.34-8.89,5.13-1.92-1.11Z"/><path class="cls-36" d="M903.09,524.91a4.84,4.84,0,0,1-1.43-1.19,2.33,2.33,0,0,1-.53-1.31,2.14,2.14,0,0,1,.35-1.29,3.8,3.8,0,0,1,1.28-1.13,6.08,6.08,0,0,1,2-.72,9.24,9.24,0,0,1,2.42-.06,12.95,12.95,0,0,1,5.13,1.66,11.52,11.52,0,0,1,1.77,1.22,7.59,7.59,0,0,1,1.27,1.28l1.06-.6c1.07-.62,1.61-1.28,1.61-2s-.55-1.37-1.66-2a14.73,14.73,0,0,0-5.73-1.53l.7-1.25a17.73,17.73,0,0,1,6.84,2c1.74,1,2.62,2,2.67,3.14s-.76,2.12-2.44,3.09l-5.34,3.09c-.52.3-.56.59-.1.87l-1.91,1.1-.66-.29-.5-.26c-.44-.26-.66-.53-.66-.83a1,1,0,0,1,.47-.82l.88-.56a13.56,13.56,0,0,1-4-.26A12.11,12.11,0,0,1,903.09,524.91Zm2.24-.62a10,10,0,0,0,2.65,1,8.66,8.66,0,0,0,2.72.22,3,3,0,0,0,1.46-.28l1.94-1.12a9.17,9.17,0,0,0-2.74-2.3,8.77,8.77,0,0,0-3.42-1.17,4.61,4.61,0,0,0-2.88.46,2.39,2.39,0,0,0-.81.71,1.28,1.28,0,0,0-.23.83,1.64,1.64,0,0,0,.37.85A3.26,3.26,0,0,0,905.33,524.29Z"/><path class="cls-36" d="M932.74,528.83a11.07,11.07,0,0,0-3.8-1.21,10.33,10.33,0,0,0-4,.25l-8.09,4.67-2.22-1.29,13.11-7.56,2.07,1.19-3,1.76a15,15,0,0,1,4-.24,9.24,9.24,0,0,1,3.32.83l.43.25a1.91,1.91,0,0,1,.28.19Z"/><path class="cls-36" d="M927.53,539a4.86,4.86,0,0,1-1.43-1.19,2.43,2.43,0,0,1-.54-1.31,2.08,2.08,0,0,1,.36-1.29,3.6,3.6,0,0,1,1.28-1.13,6,6,0,0,1,2-.72,9.23,9.23,0,0,1,2.42-.07,13.19,13.19,0,0,1,2.59.55A12.46,12.46,0,0,1,936.8,535a12.64,12.64,0,0,1,1.77,1.23,8,8,0,0,1,1.27,1.28l1-.61q1.61-.93,1.62-2c0-.7-.55-1.38-1.66-2a14.65,14.65,0,0,0-5.73-1.53l.7-1.25a17.68,17.68,0,0,1,6.83,2c1.74,1,2.63,2.05,2.68,3.14s-.77,2.12-2.44,3.08l-5.35,3.09c-.52.3-.55.6-.09.88l-1.91,1.1-.66-.29q-.25-.12-.51-.27c-.43-.25-.66-.52-.66-.82a1,1,0,0,1,.48-.82l.88-.57a13.3,13.3,0,0,1-4-.25A12.34,12.34,0,0,1,927.53,539Zm2.23-.63a9.75,9.75,0,0,0,2.66,1,8.64,8.64,0,0,0,2.72.22,3,3,0,0,0,1.46-.29l1.93-1.11a9,9,0,0,0-2.73-2.31,8.8,8.8,0,0,0-3.42-1.16,4.67,4.67,0,0,0-2.88.45,2.57,2.57,0,0,0-.82.72,1.29,1.29,0,0,0-.22.83,1.56,1.56,0,0,0,.37.85A3.18,3.18,0,0,0,929.76,538.39Z"/><path class="cls-36" d="M944.13,548.48a5,5,0,0,1-1.91-1.74,3,3,0,0,1-.46-2,3.91,3.91,0,0,1,.89-1.95,7.17,7.17,0,0,1,2.07-1.71,13.1,13.1,0,0,1,3.06-1.26,15.4,15.4,0,0,1,3.43-.53,13.75,13.75,0,0,1,3.4.27,10,10,0,0,1,3,1.12,4.38,4.38,0,0,1,2.08,2.13,3.6,3.6,0,0,1,0,2.36l2.61-1.51,2,1.14-13,7.48a9.71,9.71,0,0,1-3,1.12,12.57,12.57,0,0,1-3.24.2,14,14,0,0,1-3.24-.59,15.08,15.08,0,0,1-3-1.29A7.25,7.25,0,0,1,936,549.2a3.32,3.32,0,0,1-.21-2.58l2.42.09a2.44,2.44,0,0,0,.29,2.17,5.83,5.83,0,0,0,2.1,1.88,9.79,9.79,0,0,0,2,.86,9.58,9.58,0,0,0,2.18.38,8.86,8.86,0,0,0,2.23-.16,7,7,0,0,0,2.15-.82l2.31-1.33a13.13,13.13,0,0,1-2,.11,13.73,13.73,0,0,1-2-.17,10.65,10.65,0,0,1-1.81-.45A7.94,7.94,0,0,1,944.13,548.48Zm2.49-.65a6.29,6.29,0,0,0,1.61.64,9.85,9.85,0,0,0,1.88.32,10.73,10.73,0,0,0,1.88,0,7,7,0,0,0,1.59-.33l3.76-2.18a2.72,2.72,0,0,0,.51-1.13,2.54,2.54,0,0,0,0-1.13,2.72,2.72,0,0,0-.56-1.06,3.81,3.81,0,0,0-1.08-.88,6.59,6.59,0,0,0-2.23-.8,10.25,10.25,0,0,0-2.48-.13,12,12,0,0,0-2.46.43,8.86,8.86,0,0,0-2.09.86,4.75,4.75,0,0,0-1.51,1.28,2.67,2.67,0,0,0-.57,1.43,2.39,2.39,0,0,0,.39,1.43A3.73,3.73,0,0,0,946.62,547.83Z"/><path class="cls-36" d="M961,558.35a6.64,6.64,0,0,1-2.19-1.89,3.35,3.35,0,0,1-.65-2.07,3.71,3.71,0,0,1,.79-2.06,7,7,0,0,1,2.13-1.79,11.81,11.81,0,0,1,3.11-1.23,15.78,15.78,0,0,1,7.15-.06,11.42,11.42,0,0,1,3.27,1.27,6.19,6.19,0,0,1,2.16,1.88,3.37,3.37,0,0,1,.62,2.06,3.62,3.62,0,0,1-.81,2,7,7,0,0,1-2.05,1.72l-.52.28a3.31,3.31,0,0,1-.39.19l-10.94-6.32a4.57,4.57,0,0,0-1.33,1.29,2.3,2.3,0,0,0,.08,2.68,4.09,4.09,0,0,0,1.3,1.14,7.52,7.52,0,0,0,1.35.58,10.06,10.06,0,0,0,1.53.38,9.16,9.16,0,0,0,1.57.13,7.16,7.16,0,0,0,1.5-.18l1.4,1.41a11.45,11.45,0,0,1-2.23.25,14.48,14.48,0,0,1-2.36-.16,13.7,13.7,0,0,1-2.34-.55A11.66,11.66,0,0,1,961,558.35Zm12.21-1.83a4,4,0,0,0,1.25-1.26,2.38,2.38,0,0,0,.36-1.34,2.44,2.44,0,0,0-.51-1.3,4.38,4.38,0,0,0-1.36-1.14,7.26,7.26,0,0,0-2-.79,10.5,10.5,0,0,0-2.25-.29,11.24,11.24,0,0,0-2.31.23,8.66,8.66,0,0,0-2.15.73Z"/><path class="cls-36" d="M743.62,592.22l17.81-10.28,2.27,1.32-9.84,5.68,19.12-.36,2.45,1.42-15.06.38L758,600.52l-2.47-1.43,2.14-8.76-6.32.06-5.45,3.14Z"/><path class="cls-36" d="M760.38,601.89l13.11-7.56,2.22,1.28-13.11,7.57Zm15.57-9,2.76-1.6,2.22,1.28-2.76,1.6Z"/><path class="cls-36" d="M774.3,609.18l-.77-.17c-.31-.08-.65-.16-1-.27s-.74-.24-1.13-.4a7.58,7.58,0,0,1-1.11-.54,2.68,2.68,0,0,1-1.43-1.59c-.15-.6.25-1.17,1.18-1.71l8.82-5.09-1.79-1,1.73-1,1.79,1,4.37-2.52,2.23,1.28-4.37,2.52,3,1.71-1.73,1-3-1.7-8.13,4.69c-.45.3-.65.6-.58.89a1.29,1.29,0,0,0,.69.77,5.42,5.42,0,0,0,1.41.57c.51.13.87.21,1.09.24Z"/><path class="cls-36" d="M781.87,606.7a11.79,11.79,0,0,1,3.09-1.22,14.69,14.69,0,0,1,3.51-.46,15.93,15.93,0,0,1,3.57.38,11.64,11.64,0,0,1,3.28,1.27,5.65,5.65,0,0,1,2.53,2.46,2.77,2.77,0,0,1-.16,2.59l-2.85-.86a1.78,1.78,0,0,0,0-1.65,3.63,3.63,0,0,0-1.51-1.47,7.24,7.24,0,0,0-2.08-.78,9.7,9.7,0,0,0-2.41-.21,10.81,10.81,0,0,0-2.45.35,8.79,8.79,0,0,0-2.28.92,5.16,5.16,0,0,0-1.58,1.32,2.86,2.86,0,0,0-.62,1.45,2.18,2.18,0,0,0,.35,1.4,3.59,3.59,0,0,0,1.33,1.21,6.89,6.89,0,0,0,1.31.57,9.75,9.75,0,0,0,1.47.34,9.24,9.24,0,0,0,1.47.1,4.7,4.7,0,0,0,1.29-.16l1.52,1.63a10.06,10.06,0,0,1-2.17.28,12.8,12.8,0,0,1-2.31-.14,14.62,14.62,0,0,1-2.31-.55,11.37,11.37,0,0,1-2.13-.94,6.4,6.4,0,0,1-2.18-1.9,3.42,3.42,0,0,1-.64-2.07,3.73,3.73,0,0,1,.79-2.06A7.11,7.11,0,0,1,781.87,606.7Z"/><path class="cls-36" d="M802.25,626.07,800,624.78l7.34-4.23c1.35-.78,2.13-1.5,2.32-2.15s-.17-1.25-1.08-1.77A6.2,6.2,0,0,0,807,616a10.92,10.92,0,0,0-1.94-.29,12.22,12.22,0,0,0-2.09,0,10,10,0,0,0-2.06.41l-7.9,4.57-2.23-1.29,18.33-10.58,2.23,1.28-8,4.64a14.19,14.19,0,0,1,4.36-.07,10.45,10.45,0,0,1,3.73,1.23,3.91,3.91,0,0,1,1.55,1.39,1.68,1.68,0,0,1,.13,1.41,3.47,3.47,0,0,1-1.05,1.41,12.38,12.38,0,0,1-2,1.38Z"/><path class="cls-36" d="M811.93,632a6.64,6.64,0,0,1-2.19-1.89,3.33,3.33,0,0,1-.65-2.07,3.56,3.56,0,0,1,.79-2,6.9,6.9,0,0,1,2.13-1.8,12.16,12.16,0,0,1,3.11-1.23,15.78,15.78,0,0,1,7.15-.06,11.71,11.71,0,0,1,3.27,1.27A6,6,0,0,1,827.7,626a3.34,3.34,0,0,1,.62,2,3.56,3.56,0,0,1-.81,2,6.84,6.84,0,0,1-2,1.73l-.52.29-.39.18-10.94-6.32a4.45,4.45,0,0,0-1.33,1.29,2.32,2.32,0,0,0,.08,2.69,4.19,4.19,0,0,0,1.3,1.13,7.54,7.54,0,0,0,1.35.59,11.37,11.37,0,0,0,1.53.37,9.16,9.16,0,0,0,1.57.13,7.16,7.16,0,0,0,1.5-.18l1.4,1.41a11.45,11.45,0,0,1-2.23.25,14.48,14.48,0,0,1-2.36-.16,14,14,0,0,1-2.35-.55A11.87,11.87,0,0,1,811.93,632Zm12.21-1.83a4.15,4.15,0,0,0,1.25-1.26,2.32,2.32,0,0,0,.36-1.34,2.47,2.47,0,0,0-.51-1.3,4.5,4.5,0,0,0-1.36-1.14,7.24,7.24,0,0,0-2-.78,9.38,9.38,0,0,0-2.25-.29,10,10,0,0,0-2.31.22,9.08,9.08,0,0,0-2.15.73Z"/><path class="cls-36" d="M833.36,644l-2.23-1.28,7.33-4.24c1.41-.81,2.22-1.52,2.43-2.14s-.13-1.17-1-1.68a6.84,6.84,0,0,0-1.63-.64,12.46,12.46,0,0,0-2-.33,11.78,11.78,0,0,0-2.14,0,9.37,9.37,0,0,0-2.07.4l-7.91,4.56-2.22-1.28L835,629.85l2,1.17-2.81,1.62a14,14,0,0,1,4.47,0,11.81,11.81,0,0,1,4,1.38,3.65,3.65,0,0,1,1.48,1.34,1.57,1.57,0,0,1,.06,1.37,3.9,3.9,0,0,1-1.1,1.38,14.42,14.42,0,0,1-2,1.36Z"/><path class="cls-36" d="M630.42,673.42a7.18,7.18,0,0,1-2.3.84,10.66,10.66,0,0,1-2.59.19,12.07,12.07,0,0,1-2.6-.43,10.29,10.29,0,0,1-2.36-1l-8.51-4.92,17.82-10.29L638.8,663a3.21,3.21,0,0,1,1.3,1.21,2.15,2.15,0,0,1,.24,1.34,2.7,2.7,0,0,1-.64,1.32,4.67,4.67,0,0,1-1.35,1.11,8.69,8.69,0,0,1-3.13,1,9.86,9.86,0,0,1-3.59-.13,2.44,2.44,0,0,1,.77,2.37A3.77,3.77,0,0,1,630.42,673.42Zm-1.9-1.56a3.18,3.18,0,0,0,1-.8,1.83,1.83,0,0,0,.42-.91,1.38,1.38,0,0,0-.2-.89,2.22,2.22,0,0,0-.86-.79l-6.42-3.7-6.12,3.53,6.24,3.61a4.57,4.57,0,0,0,1.41.52,7.75,7.75,0,0,0,1.6.16,6.55,6.55,0,0,0,1.6-.2A5,5,0,0,0,628.52,671.86Zm1.68-11.59-6,3.44L630,667a4.44,4.44,0,0,0,1.35.5,6.38,6.38,0,0,0,1.51.13,6.55,6.55,0,0,0,1.52-.21,5.14,5.14,0,0,0,1.36-.53,3.51,3.51,0,0,0,1-.8,1.83,1.83,0,0,0,.41-.86,1.22,1.22,0,0,0-.21-.85,2.28,2.28,0,0,0-.82-.73Z"/><path class="cls-36" d="M634.87,681.59a6.74,6.74,0,0,1-2.19-1.89,3.44,3.44,0,0,1-.65-2.07,3.66,3.66,0,0,1,.79-2,7.07,7.07,0,0,1,2.14-1.8,11.41,11.41,0,0,1,3.1-1.23,15.47,15.47,0,0,1,3.55-.44,15,15,0,0,1,3.6.38,11.59,11.59,0,0,1,3.28,1.27,6.28,6.28,0,0,1,2.16,1.88,3.36,3.36,0,0,1,.61,2.06,3.55,3.55,0,0,1-.8,2,7,7,0,0,1-2.06,1.73l-.52.28a1.77,1.77,0,0,1-.38.18l-11-6.31a4.4,4.4,0,0,0-1.32,1.29,2.31,2.31,0,0,0-.4,1.37,2.49,2.49,0,0,0,.47,1.31,3.89,3.89,0,0,0,1.31,1.13,6.4,6.4,0,0,0,1.35.59,9.66,9.66,0,0,0,1.52.38,9.27,9.27,0,0,0,1.58.13,7.25,7.25,0,0,0,1.5-.18L644,683a12.17,12.17,0,0,1-2.23.25,14.28,14.28,0,0,1-2.35-.16,14.83,14.83,0,0,1-2.35-.55A11.66,11.66,0,0,1,634.87,681.59Zm12.21-1.83a4,4,0,0,0,1.25-1.26,2.31,2.31,0,0,0,.36-1.35,2.44,2.44,0,0,0-.51-1.29,4.47,4.47,0,0,0-1.35-1.15,7.72,7.72,0,0,0-2-.78,9.52,9.52,0,0,0-2.26-.28,9.91,9.91,0,0,0-2.3.22,9.14,9.14,0,0,0-2.16.72Z"/><path class="cls-36" d="M650,690.34a5.36,5.36,0,0,1-2-1.78,3.13,3.13,0,0,1-.51-2,3.92,3.92,0,0,1,.85-2,7.45,7.45,0,0,1,2.12-1.76,13.18,13.18,0,0,1,3.07-1.26A16.48,16.48,0,0,1,657,681a14.4,14.4,0,0,1,3.36.25,9.57,9.57,0,0,1,3,1.08,4.17,4.17,0,0,1,2,2.12,3.22,3.22,0,0,1,0,2.31l7.83-4.53,2.23,1.29-15.62,9c-.52.29-.56.58-.1.87l-1.91,1.1-.64-.29-.44-.22a1.27,1.27,0,0,1-.72-.92.89.89,0,0,1,.53-.87l1.11-.64a13.67,13.67,0,0,1-4.09,0A10.38,10.38,0,0,1,650,690.34Zm2.44-.8a6.32,6.32,0,0,0,1.47.6,10.7,10.7,0,0,0,1.84.33,10.39,10.39,0,0,0,1.93,0,5.8,5.8,0,0,0,1.68-.35l3.77-2.17a2.34,2.34,0,0,0,.51-1.08,2.53,2.53,0,0,0,0-1.16,2.94,2.94,0,0,0-.56-1.08,3.57,3.57,0,0,0-1-.87,6.89,6.89,0,0,0-2.19-.79,10.2,10.2,0,0,0-2.47-.15,11.29,11.29,0,0,0-2.46.41,9.5,9.5,0,0,0-2.12.88,4.89,4.89,0,0,0-1.52,1.28,2.67,2.67,0,0,0-.58,1.45,2.35,2.35,0,0,0,.38,1.42A3.69,3.69,0,0,0,652.48,689.54Z"/><path class="cls-36" d="M679.53,694.17a10.85,10.85,0,0,0-3.8-1.2,10.52,10.52,0,0,0-4,.24l-8.09,4.67-2.22-1.28L674.49,689l2.07,1.2-3,1.75a15,15,0,0,1,4-.23,9,9,0,0,1,3.32.83l.43.25a1.36,1.36,0,0,1,.28.18Z"/><path class="cls-36" d="M676.39,705.56a6.31,6.31,0,0,1-2.16-1.89,3.36,3.36,0,0,1-.62-2.07,3.65,3.65,0,0,1,.81-2,6.73,6.73,0,0,1,2.11-1.77,11.74,11.74,0,0,1,3.1-1.23,16.56,16.56,0,0,1,3.52-.46,15.38,15.38,0,0,1,3.58.36,11.4,11.4,0,0,1,3.25,1.23,6.42,6.42,0,0,1,2.15,1.88,3.49,3.49,0,0,1,.63,2.08,3.77,3.77,0,0,1-.8,2,7,7,0,0,1-2.12,1.8,12.37,12.37,0,0,1-3.06,1.21,15.38,15.38,0,0,1-3.53.46,16,16,0,0,1-3.59-.36A11.38,11.38,0,0,1,676.39,705.56Zm2.39-6.43a5.26,5.26,0,0,0-1.57,1.3,2.7,2.7,0,0,0-.6,1.42,2.24,2.24,0,0,0,.36,1.4,3.49,3.49,0,0,0,1.33,1.2,7,7,0,0,0,2.08.77,10.91,10.91,0,0,0,2.45.21,11.16,11.16,0,0,0,2.5-.35,9.22,9.22,0,0,0,2.26-.91,5.29,5.29,0,0,0,1.56-1.3,2.75,2.75,0,0,0,.61-1.44,2.27,2.27,0,0,0-.36-1.41,3.77,3.77,0,0,0-1.33-1.21,7,7,0,0,0-2.1-.76,10.92,10.92,0,0,0-2.44-.19,11.69,11.69,0,0,0-2.49.36A8.56,8.56,0,0,0,678.78,699.13Z"/><path class="cls-36" d="M692.16,714.66a6,6,0,0,1-2.16-1.89,3.35,3.35,0,0,1-.62-2.06,3.68,3.68,0,0,1,.81-2,6.94,6.94,0,0,1,2.1-1.77,12.31,12.31,0,0,1,3.11-1.23,15.93,15.93,0,0,1,3.52-.45,15,15,0,0,1,3.58.35,11.13,11.13,0,0,1,3.25,1.24,6.31,6.31,0,0,1,2.15,1.88,3.4,3.4,0,0,1,.62,2.07,3.73,3.73,0,0,1-.79,2,7,7,0,0,1-2.12,1.79,12.06,12.06,0,0,1-3.07,1.21,14.7,14.7,0,0,1-3.52.46,15.46,15.46,0,0,1-3.59-.36A11.38,11.38,0,0,1,692.16,714.66Zm2.38-6.42a5,5,0,0,0-1.56,1.29,2.73,2.73,0,0,0-.6,1.43,2.27,2.27,0,0,0,.36,1.4,3.66,3.66,0,0,0,1.33,1.2,7,7,0,0,0,2.08.77,10.91,10.91,0,0,0,2.45.21,11.17,11.17,0,0,0,2.5-.36,8.7,8.7,0,0,0,2.26-.91,5.24,5.24,0,0,0,1.55-1.29,2.75,2.75,0,0,0,.62-1.45,2.21,2.21,0,0,0-.37-1.41,3.7,3.7,0,0,0-1.32-1.2,7,7,0,0,0-2.1-.76,10.92,10.92,0,0,0-2.44-.2,11.27,11.27,0,0,0-2.5.37A8.49,8.49,0,0,0,694.54,708.24Z"/><path class="cls-36" d="M722.31,731.77l-2.23-1.28,7.34-4.23c1.37-.79,2.16-1.51,2.36-2.14s-.13-1.21-1-1.71a7.24,7.24,0,0,0-3.41-.86,12,12,0,0,0-4,.57l-7.89,4.55-2.22-1.29,7.33-4.23c1.41-.81,2.21-1.53,2.4-2.14s-.14-1.19-1-1.69a7.16,7.16,0,0,0-3.37-.86,11.71,11.71,0,0,0-4,.55l-7.91,4.57-2.22-1.29,13.11-7.57,2,1.17-2.81,1.63a14.43,14.43,0,0,1,4.34-.09,10.1,10.1,0,0,1,3.7,1.22c1.11.64,1.69,1.32,1.75,2a2.41,2.41,0,0,1-1.1,2,12.15,12.15,0,0,1,8.22,1.06,3.76,3.76,0,0,1,1.49,1.34,1.56,1.56,0,0,1,.07,1.38,3.88,3.88,0,0,1-1.09,1.39,12.35,12.35,0,0,1-2,1.37Z"/><path class="cls-36" d="M169.26,239.11a6.63,6.63,0,0,1-2.08.77,9.57,9.57,0,0,1-2.34.16,10.79,10.79,0,0,1-2.34-.38,9.46,9.46,0,0,1-2.14-.89l-7.68-4.44,16.1-9.3,8.05,4.65a2.88,2.88,0,0,1,1.16,1.1,1.89,1.89,0,0,1,.23,1.21,2.54,2.54,0,0,1-.58,1.19,4.57,4.57,0,0,1-1.22,1,7.93,7.93,0,0,1-2.83.93,8.84,8.84,0,0,1-3.24-.12,2.19,2.19,0,0,1,.69,2.15A3.39,3.39,0,0,1,169.26,239.11Zm-1.72-1.41a2.84,2.84,0,0,0,.86-.72,1.65,1.65,0,0,0,.38-.82,1.23,1.23,0,0,0-.18-.8,2,2,0,0,0-.78-.71L162,231.3l-5.53,3.19,5.63,3.26a4.34,4.34,0,0,0,1.28.47,6.82,6.82,0,0,0,2.89,0A4.46,4.46,0,0,0,167.54,237.7Zm1.52-10.46-5.38,3.1,5.16,3a4.23,4.23,0,0,0,1.22.46,6.24,6.24,0,0,0,1.37.12,7.06,7.06,0,0,0,1.37-.19,5.16,5.16,0,0,0,1.23-.48,3.11,3.11,0,0,0,.88-.73,1.64,1.64,0,0,0,.37-.78,1.14,1.14,0,0,0-.19-.76,2,2,0,0,0-.74-.66Z"/><path class="cls-36" d="M184.62,241.12a9.93,9.93,0,0,0-3.43-1.09,9.31,9.31,0,0,0-3.65.23l-7.3,4.21-2-1.16,11.83-6.83,1.87,1.08-2.74,1.58a13.75,13.75,0,0,1,3.6-.21,8.51,8.51,0,0,1,3,.75l.39.22.25.17Z"/><path class="cls-36" d="M177.09,248.42l11.83-6.83,2,1.16-11.83,6.83Zm14.06-8.11,2.49-1.44,2,1.16-2.5,1.44Z"/><path class="cls-36" d="M187.51,254.6a4.58,4.58,0,0,1-1.72-1.57,2.78,2.78,0,0,1-.41-1.78,3.48,3.48,0,0,1,.8-1.77,6.67,6.67,0,0,1,1.87-1.54,11.34,11.34,0,0,1,2.76-1.13,13.61,13.61,0,0,1,3.1-.48,12.1,12.1,0,0,1,3.07.24,9,9,0,0,1,2.73,1,3.9,3.9,0,0,1,1.88,1.92,3.18,3.18,0,0,1,0,2.13l2.36-1.36,1.78,1L194,258.05a8.54,8.54,0,0,1-2.71,1,11.51,11.51,0,0,1-2.93.19,12.31,12.31,0,0,1-2.92-.54,12.78,12.78,0,0,1-2.7-1.16,6.4,6.4,0,0,1-2.61-2.3,3,3,0,0,1-.19-2.33l2.18.08a2.21,2.21,0,0,0,.26,2,5.33,5.33,0,0,0,1.9,1.7,9,9,0,0,0,1.79.77,8.32,8.32,0,0,0,2,.35,8.09,8.09,0,0,0,2-.15,6.22,6.22,0,0,0,1.94-.74l2.09-1.2a11.93,11.93,0,0,1-1.8.1,12.53,12.53,0,0,1-1.76-.15,10.23,10.23,0,0,1-1.63-.41A7.35,7.35,0,0,1,187.51,254.6Zm2.25-.59a5.64,5.64,0,0,0,1.46.58,9.43,9.43,0,0,0,1.7.29,9.54,9.54,0,0,0,1.69,0,6.51,6.51,0,0,0,1.43-.3l3.41-2a2.58,2.58,0,0,0,.46-1,2.51,2.51,0,0,0,0-1,2.56,2.56,0,0,0-.51-1,3.49,3.49,0,0,0-1-.79,5.73,5.73,0,0,0-2-.72,9.28,9.28,0,0,0-2.24-.12,10.23,10.23,0,0,0-2.21.39,8.47,8.47,0,0,0-1.9.77,4.4,4.4,0,0,0-1.36,1.16,2.47,2.47,0,0,0-.51,1.29,2.07,2.07,0,0,0,.35,1.29A3.48,3.48,0,0,0,189.76,254Z"/><path class="cls-36" d="M208.05,266.3l-2-1.16,6.62-3.82c1.22-.71,1.92-1.36,2.09-1.95s-.15-1.12-1-1.6a5.41,5.41,0,0,0-1.43-.54,9.56,9.56,0,0,0-1.75-.27,10.93,10.93,0,0,0-1.89,0,8.67,8.67,0,0,0-1.85.37l-7.14,4.12-2-1.16,16.55-9.56,2,1.16L209,256.12a13,13,0,0,1,3.93-.06,9.43,9.43,0,0,1,3.37,1.11,3.58,3.58,0,0,1,1.4,1.25,1.53,1.53,0,0,1,.12,1.28,3.27,3.27,0,0,1-1,1.27,11.38,11.38,0,0,1-1.77,1.25Z"/><path class="cls-36" d="M218.38,271.58l-.69-.15-.93-.24q-.49-.15-1-.36a7.24,7.24,0,0,1-1-.49,2.43,2.43,0,0,1-1.29-1.44c-.13-.54.23-1,1.07-1.54l8-4.59-1.62-.94,1.57-.9,1.62.93,3.94-2.28,2,1.16L226.05,263l2.66,1.54-1.56.91-2.67-1.54-7.35,4.24c-.41.27-.58.53-.52.8a1.19,1.19,0,0,0,.62.69,5.13,5.13,0,0,0,1.28.52c.45.11.78.18,1,.21Z"/><path class="cls-36" d="M230.57,279.3l-2-1.16,6.62-3.82c1.27-.74,2-1.38,2.19-1.93s-.12-1.07-.91-1.52a6,6,0,0,0-1.47-.58,12.43,12.43,0,0,0-1.81-.3,11.43,11.43,0,0,0-1.94,0,8.64,8.64,0,0,0-1.86.37l-7.14,4.12-2-1.16,11.84-6.83,1.82,1.05L231.35,269a12.46,12.46,0,0,1,4,0,10.69,10.69,0,0,1,3.66,1.24,3.26,3.26,0,0,1,1.33,1.21,1.4,1.4,0,0,1,.06,1.23,3.55,3.55,0,0,1-1,1.25,12.73,12.73,0,0,1-1.8,1.24Z"/><path class="cls-36" d="M239.31,284.61a6,6,0,0,1-2-1.7,3.07,3.07,0,0,1-.59-1.88,3.36,3.36,0,0,1,.72-1.85,6.28,6.28,0,0,1,1.92-1.62,10.84,10.84,0,0,1,2.81-1.11,13.61,13.61,0,0,1,3.2-.4,14.19,14.19,0,0,1,3.25.35,10.35,10.35,0,0,1,3,1.14,5.66,5.66,0,0,1,2,1.7,3.13,3.13,0,0,1,.56,1.86,3.28,3.28,0,0,1-.73,1.8,6.32,6.32,0,0,1-1.86,1.56l-.47.25a3.52,3.52,0,0,1-.35.17l-9.88-5.71a4,4,0,0,0-1.19,1.17,2.09,2.09,0,0,0-.36,1.24,2.22,2.22,0,0,0,.43,1.18,3.38,3.38,0,0,0,1.17,1,6.81,6.81,0,0,0,1.22.54,10.69,10.69,0,0,0,1.38.34,9.6,9.6,0,0,0,1.42.11,6,6,0,0,0,1.36-.16l1.25,1.27a9.89,9.89,0,0,1-2,.23,12.85,12.85,0,0,1-2.13-.14,14.35,14.35,0,0,1-2.11-.5A10.37,10.37,0,0,1,239.31,284.61Zm11-1.65a3.7,3.7,0,0,0,1.13-1.14,2,2,0,0,0-.14-2.38,3.87,3.87,0,0,0-1.22-1,6.61,6.61,0,0,0-1.79-.7,8.64,8.64,0,0,0-2-.26,9,9,0,0,0-2.07.2,8,8,0,0,0-1.95.66Z"/><path class="cls-36" d="M252.27,292.09a9.42,9.42,0,0,1-2.39-1.89,4.23,4.23,0,0,1-1.12-2.12l2.21-.27a4.86,4.86,0,0,0,.91,1.9,6.22,6.22,0,0,0,1.82,1.5,6.67,6.67,0,0,0,2.57.9,3.46,3.46,0,0,0,2.2-.39,1,1,0,0,0,.53-.54.86.86,0,0,0-.08-.67,3.88,3.88,0,0,0-.64-.84c-.31-.31-.67-.68-1.1-1.08s-1-1-1.32-1.37a3.13,3.13,0,0,1-.69-1.07,1,1,0,0,1,.08-.9,2.75,2.75,0,0,1,.95-.81,6.11,6.11,0,0,1,1.93-.7,8,8,0,0,1,2.13-.11,9.53,9.53,0,0,1,2.15.43,10.24,10.24,0,0,1,2,.89,7.33,7.33,0,0,1,2.08,1.7,3.52,3.52,0,0,1,.83,1.79l-2.12.17a2.87,2.87,0,0,0-.7-1.55,5.84,5.84,0,0,0-1.59-1.3,6.41,6.41,0,0,0-2.32-.8,3.41,3.41,0,0,0-2.25.42,1.2,1.2,0,0,0-.53.48.63.63,0,0,0,0,.55,3,3,0,0,0,.52.72c.25.27.57.58.95.94.61.56,1.11,1.07,1.51,1.51a4,4,0,0,1,.79,1.23,1.26,1.26,0,0,1,0,1,2.37,2.37,0,0,1-1,.89,6.64,6.64,0,0,1-3.91.79A10.45,10.45,0,0,1,252.27,292.09Z"/><path class="cls-36" d="M264.11,298.93a9.88,9.88,0,0,1-2.39-1.89,4.16,4.16,0,0,1-1.11-2.13l2.2-.27a4.86,4.86,0,0,0,.91,1.9,6.16,6.16,0,0,0,1.81,1.51,6.77,6.77,0,0,0,2.58.9,3.6,3.6,0,0,0,2.2-.39,1.13,1.13,0,0,0,.54-.55.89.89,0,0,0-.09-.66,3.39,3.39,0,0,0-.64-.84c-.3-.32-.67-.68-1.1-1.08s-1-1-1.32-1.37A3.22,3.22,0,0,1,267,293a1,1,0,0,1,.09-.89,2.57,2.57,0,0,1,.95-.81,6,6,0,0,1,1.92-.71,8,8,0,0,1,2.13-.1,9.51,9.51,0,0,1,2.15.42,10.28,10.28,0,0,1,2,.9,7.33,7.33,0,0,1,2.08,1.7,3.57,3.57,0,0,1,.83,1.79l-2.11.16a3,3,0,0,0-.71-1.54,5.76,5.76,0,0,0-1.58-1.3,6.4,6.4,0,0,0-2.33-.8,3.41,3.41,0,0,0-2.25.41,1.33,1.33,0,0,0-.53.48.65.65,0,0,0,0,.56,3,3,0,0,0,.52.72c.25.26.57.58,1,.94.61.56,1.11,1.06,1.51,1.51a4,4,0,0,1,.79,1.23,1.24,1.24,0,0,1,0,1,2.45,2.45,0,0,1-1,.9,6.54,6.54,0,0,1-3.9.78A10.33,10.33,0,0,1,264.11,298.93Z"/><g class="cls-3"><path class="cls-70" d="M279.28,227.11c-29.83-17.22-30-45.15-.34-62.27s78-17,107.86.2,30,45.16.33,62.27S309.11,244.34,279.28,227.11Zm103.92-60c-27.84-16.08-73-16.16-100.64-.19S255,209,282.87,225s73,16.15,100.64.18S411,183.18,383.2,167.12Z"/><path class="cls-71" d="M264.11,235.87c-38.24-22.08-38.43-57.89-.43-79.84s100-21.83,138.28.25,38.43,57.9.43,79.84S302.36,258,264.11,235.87ZM396.56,159.4c-35.25-20.35-92.42-20.46-127.45-.23s-34.85,53.23.4,73.59S361.93,253.21,397,233,431.81,179.75,396.56,159.4Z"/><path class="cls-72" d="M247.93,245.21c-47.22-27.26-47.46-71.48-.53-98.58s123.52-26.95,170.74.31,47.46,71.49.54,98.58S295.15,272.48,247.93,245.21Zm163-94.12c-43.23-25-113.36-25.08-156.32-.28s-42.74,65.29.49,90.25,113.36,25.09,156.32.28S454.18,176.05,411,151.09Z"/><path class="cls-70" d="M347.83,202.08c8.16-4.71,7.53-12.57-1.82-16.87a31.8,31.8,0,0,0-23.87-.19c-5.57,2.45-8.12,6.15-7.68,9.76.24,2-.92,3.92-3.34,5.32l-3,1.75c-1.54.89-1.53,2.33,0,3.22L314.9,209a6.13,6.13,0,0,0,5.58,0l3-1.74a18.11,18.11,0,0,1,9.38-1.93C338.26,205.53,343.74,204.45,347.83,202.08Z"/><path class="cls-70" d="M305.5,210.5h0c-2-1.16-1.76-3.19.56-4.53l.42-.24,7.28,4.2-.42.25C311,211.52,307.51,211.66,305.5,210.5Z"/><path class="cls-70" d="M332.2,180q1.68-.06,3.36,0l0-7c0-.54-.76-1-1.68-1s-1.68.43-1.67,1Z"/><path class="cls-70" d="M317.77,183.36l-8.6-5a2.61,2.61,0,0,0-2.37,0,.72.72,0,0,0,0,1.37l8.6,5A23.19,23.19,0,0,1,317.77,183.36Z"/><path class="cls-70" d="M358.46,195.08l12.11,0c.93,0,1.68-.43,1.67-1s-.75-1-1.68-1l-12.11,0A7.79,7.79,0,0,1,358.46,195.08Z"/><path class="cls-70" d="M351.29,184.06c.4.23.76.48,1.13.72l8.53-4.92a.72.72,0,0,0,0-1.37,2.61,2.61,0,0,0-2.37,0L350,183.42C350.46,183.63,350.9,183.84,351.29,184.06Z"/><path class="cls-70" d="M361.11,208.38l-8.59-5c-.36.25-.72.49-1.12.72s-.82.43-1.25.65l8.59,5a2.61,2.61,0,0,0,2.37,0A.72.72,0,0,0,361.11,208.38Z"/><path class="cls-70" d="M306.81,208.42c-.46.37-.42.89.16,1.23a2.61,2.61,0,0,0,2.14.09Z"/></g></g></g></svg>