<svg xmlns="http://www.w3.org/2000/svg" xmlns:xlink="http://www.w3.org/1999/xlink" viewBox="0 0 1130.08 738.14"><defs><style>.cls-1,.cls-2{isolation:isolate;}.cls-2{fill:#6c63ff;opacity:0.1;}.cls-3,.cls-5{fill:#45108a;}.cls-3,.cls-4,.cls-40{mix-blend-mode:screen;}.cls-6{opacity:0.2;}.cls-7{opacity:0;}.cls-8{opacity:0.09;}.cls-9{opacity:0.18;}.cls-10{opacity:0.27;}.cls-11{opacity:0.36;}.cls-12{opacity:0.45;}.cls-13{opacity:0.55;}.cls-14{opacity:0.64;}.cls-15{opacity:0.73;}.cls-16{opacity:0.82;}.cls-17{opacity:0.91;}.cls-18{fill:url(#linear-gradient);}.cls-19{fill:url(#linear-gradient-2);}.cls-20{fill:url(#linear-gradient-3);}.cls-21,.cls-32,.cls-33,.cls-34,.cls-36{mix-blend-mode:color-dodge;}.cls-21{fill:url(#Radial_Gradient_1);}.cls-22{fill:url(#linear-gradient-4);}.cls-23{fill:#1f0d3d;}.cls-24,.cls-32{fill:#3d065f;}.cls-25{fill:url(#linear-gradient-5);}.cls-26{fill:url(#linear-gradient-6);}.cls-27{fill:url(#linear-gradient-7);}.cls-28{fill:url(#linear-gradient-8);}.cls-29{fill:url(#linear-gradient-9);}.cls-30{fill:url(#linear-gradient-10);}.cls-31{fill:url(#linear-gradient-11);}.cls-33{fill:url(#radial-gradient);}.cls-34{fill:url(#radial-gradient-2);}.cls-35{fill:url(#New_Gradient_Swatch_copy_7);}.cls-36{fill:url(#Radial_Gradient_1-2);}.cls-37{fill:#a56ef4;}.cls-38{fill:#fff;}.cls-39{fill:#7c1dc9;}.cls-40{fill:url(#radial-gradient-3);}.cls-41,.cls-47,.cls-69{mix-blend-mode:multiply;}.cls-41{fill:url(#linear-gradient-12);}.cls-42{fill:url(#New_Gradient_Swatch_copy_36);}.cls-43{fill:url(#New_Gradient_Swatch_copy_35);}.cls-44{fill:url(#New_Gradient_Swatch_copy_35-2);}.cls-45{fill:#d1b4e3;}.cls-46{fill:url(#New_Gradient_Swatch_copy_36-2);}.cls-47{fill:#e6e7e8;}.cls-48{fill:url(#New_Gradient_Swatch_copy_35-3);}.cls-49{fill:url(#New_Gradient_Swatch_copy_36-3);}.cls-50{fill:#f1e8f6;}.cls-51{fill:url(#New_Gradient_Swatch_copy_35-4);}.cls-52{fill:url(#New_Gradient_Swatch_copy_35-5);}.Graphic-Style-184{fill:url(#linear-gradient-13);}.cls-53,.cls-54,.cls-57,.cls-58,.cls-60,.cls-61,.cls-63{opacity:0.5;}.cls-53{fill:url(#linear-gradient-14);}.cls-54{fill:url(#New_Gradient_Swatch_copy_36-4);}.cls-55{fill:url(#New_Gradient_Swatch_copy_35-6);}.cls-56{fill:url(#linear-gradient-16);}.cls-57{fill:url(#linear-gradient-18);}.cls-58{fill:url(#New_Gradient_Swatch_copy_36-5);}.cls-59{fill:url(#linear-gradient-20);}.cls-60{fill:url(#New_Gradient_Swatch_copy_36-6);}.cls-61{fill:url(#New_Gradient_Swatch_copy_36-7);}.cls-62{fill:url(#New_Gradient_Swatch_copy_36-8);}.Graphic-Style-183{fill:url(#linear-gradient-21);}.cls-63{fill:url(#New_Gradient_Swatch_copy_36-9);}.cls-64{fill:url(#New_Gradient_Swatch_copy_36-10);}.cls-65{fill:url(#New_Gradient_Swatch_copy_35-7);}.cls-66{fill:url(#New_Gradient_Swatch_copy_35-8);}.cls-67{fill:url(#New_Gradient_Swatch_copy_35-9);}.cls-68{fill:url(#linear-gradient-22);}.cls-69{fill:url(#linear-gradient-23);}.cls-70{fill:url(#New_Gradient_Swatch_copy_35-10);}.cls-71,.cls-72,.cls-73{fill:#1bb0d4;}.cls-72{opacity:0.4;}.cls-73{opacity:0.1;}</style><linearGradient id="linear-gradient" x1="4756.31" y1="350.48" x2="5529.76" y2="350.48" gradientTransform="matrix(-1, 0, 0, 1, 5803.52, 0)" gradientUnits="userSpaceOnUse"><stop offset="0" stop-color="#2f054a"/><stop offset="1" stop-color="#5824b0"/></linearGradient><linearGradient id="linear-gradient-2" x1="4858" y1="347.15" x2="5631.45" y2="347.15" gradientTransform="matrix(-1, 0, 0, 1, 5803.52, 0)" gradientUnits="userSpaceOnUse"><stop offset="0.06" stop-color="#2f0d5e"/><stop offset="0.28" stop-color="#2f105f"/><stop offset="0.47" stop-color="#311b61"/><stop offset="0.48" stop-color="#351f65"/><stop offset="0.5" stop-color="#422c73"/><stop offset="0.51" stop-color="#584188"/><stop offset="0.52" stop-color="#765fa7"/><stop offset="0.53" stop-color="#8770b8"/><stop offset="0.54" stop-color="#7e67ae"/><stop offset="0.56" stop-color="#5c468d"/><stop offset="0.59" stop-color="#442e75"/><stop offset="0.61" stop-color="#362066"/><stop offset="0.63" stop-color="#311b61"/><stop offset="0.67" stop-color="#2a1155"/><stop offset="0.75" stop-color="#230446"/><stop offset="0.81" stop-color="#200041"/><stop offset="1" stop-color="#200041"/></linearGradient><linearGradient id="linear-gradient-3" x1="4756.31" y1="330.47" x2="5529.76" y2="330.47" gradientTransform="matrix(-1, 0, 0, 1, 5803.52, 0)" gradientUnits="userSpaceOnUse"><stop offset="0" stop-color="#58098a"/><stop offset="1" stop-color="#9e3bdb"/></linearGradient><radialGradient id="Radial_Gradient_1" cx="608.71" cy="416.02" r="293.98" gradientUnits="userSpaceOnUse"><stop offset="0" stop-color="#fff"/><stop offset="1"/></radialGradient><linearGradient id="linear-gradient-4" x1="4764.04" y1="330.47" x2="5522.03" y2="330.47" gradientTransform="matrix(-1, 0, 0, 1, 5803.52, 0)" gradientUnits="userSpaceOnUse"><stop offset="0" stop-color="#2f054a"/><stop offset="1" stop-color="#5e1d9a"/></linearGradient><linearGradient id="linear-gradient-5" x1="699.06" y1="137.59" x2="564.82" y2="808.82" gradientUnits="userSpaceOnUse"><stop offset="0" stop-color="#861eb2"/><stop offset="0.43" stop-color="#5f27bd"/><stop offset="0.9" stop-color="#3d065f"/></linearGradient><linearGradient id="linear-gradient-6" x1="6624.96" y1="-84.04" x2="6662.24" y2="-84.04" gradientTransform="matrix(-0.87, 0.5, -0.5, 1.44, 6661.78, -2871)" gradientUnits="userSpaceOnUse"><stop offset="0" stop-color="#3d065f"/><stop offset="1" stop-color="#5f27bd"/></linearGradient><linearGradient id="linear-gradient-7" x1="6624.96" y1="-84.04" x2="6662.24" y2="-84.04" gradientTransform="matrix(-0.87, 0.5, -0.5, 1.44, 6661.78, -2871)" xlink:href="#linear-gradient"/><linearGradient id="linear-gradient-8" x1="6584.37" y1="26.41" x2="6568.95" y2="55.17" gradientTransform="matrix(-0.87, 0.5, -0.5, 1.44, 6661.78, -2871)" gradientUnits="userSpaceOnUse"><stop offset="0.06" stop-color="#9f79b8"/><stop offset="0.26" stop-color="#a17bba"/><stop offset="0.36" stop-color="#a783bf"/><stop offset="0.43" stop-color="#b290c9"/><stop offset="0.49" stop-color="#c1a1d5"/><stop offset="0.51" stop-color="#c4a5d7"/><stop offset="0.52" stop-color="#cdb3dd"/><stop offset="0.53" stop-color="#dbc8e7"/><stop offset="0.55" stop-color="#efe7f4"/><stop offset="0.56" stop-color="#fff"/><stop offset="0.57" stop-color="#ece0f3"/><stop offset="0.58" stop-color="#ddc8ea"/><stop offset="0.59" stop-color="#d4b9e5"/><stop offset="0.6" stop-color="#d1b4e3"/><stop offset="0.66" stop-color="#b395d6"/><stop offset="0.72" stop-color="#9c7dcb"/><stop offset="0.77" stop-color="#8e6ec5"/><stop offset="0.81" stop-color="#8969c3"/><stop offset="1" stop-color="#b086cc"/></linearGradient><linearGradient id="linear-gradient-9" x1="6668.68" y1="-84.04" x2="6705.95" y2="-84.04" xlink:href="#linear-gradient-6"/><linearGradient id="linear-gradient-10" x1="6668.68" y1="-84.04" x2="6705.95" y2="-84.04" gradientTransform="matrix(-0.87, 0.5, -0.5, 1.44, 6661.78, -2871)" xlink:href="#linear-gradient"/><linearGradient id="linear-gradient-11" x1="6618.33" y1="44.62" x2="6602.91" y2="73.37" xlink:href="#linear-gradient-8"/><radialGradient id="radial-gradient" cx="4142.27" cy="130.27" r="139.45" gradientTransform="matrix(-1, 0, 0, 0.66, 5009.03, 281.62)" gradientUnits="userSpaceOnUse"><stop offset="0" stop-color="#972a74"/><stop offset="0.04" stop-color="#8a266a"/><stop offset="0.19" stop-color="#601b4a"/><stop offset="0.35" stop-color="#3d112f"/><stop offset="0.51" stop-color="#230a1b"/><stop offset="0.67" stop-color="#0f040c"/><stop offset="0.83" stop-color="#040103"/><stop offset="1"/></radialGradient><radialGradient id="radial-gradient-2" cx="5975.02" cy="2291.58" r="72.57" gradientTransform="matrix(0, -1, -0.66, 0, 2052.96, 6535.04)" xlink:href="#radial-gradient"/><linearGradient id="New_Gradient_Swatch_copy_7" x1="351.76" y1="404.33" x2="498.89" y2="404.33" gradientUnits="userSpaceOnUse"><stop offset="0.04" stop-color="#138bbd"/><stop offset="0.23" stop-color="#169ac7"/><stop offset="0.59" stop-color="#1fc3df"/><stop offset="1" stop-color="#2af6ff"/></linearGradient><radialGradient id="Radial_Gradient_1-2" cx="425.35" cy="424.88" r="54.26" xlink:href="#Radial_Gradient_1"/><radialGradient id="radial-gradient-3" cx="431.67" cy="398.91" r="26.32" gradientTransform="translate(724.62 -110.64) rotate(77.15)" gradientUnits="userSpaceOnUse"><stop offset="0.1" stop-color="#fff"/><stop offset="0.13" stop-color="#c778ce"/><stop offset="0.15" stop-color="#9f19ab"/><stop offset="0.17" stop-color="#93179e"/><stop offset="0.21" stop-color="#711279"/><stop offset="0.26" stop-color="#520d58"/><stop offset="0.32" stop-color="#38093d"/><stop offset="0.38" stop-color="#240626"/><stop offset="0.46" stop-color="#130315"/><stop offset="0.55" stop-color="#080109"/><stop offset="0.67" stop-color="#020002"/><stop offset="1"/></radialGradient><linearGradient id="linear-gradient-12" x1="984.9" y1="414.45" x2="597.38" y2="107.23" gradientUnits="userSpaceOnUse"><stop offset="0" stop-color="#fff"/><stop offset="1" stop-color="#939598"/></linearGradient><linearGradient id="New_Gradient_Swatch_copy_36" x1="813.95" y1="120.59" x2="879.3" y2="40.1" gradientUnits="userSpaceOnUse"><stop offset="0.1" stop-color="#45108a"/><stop offset="1" stop-color="#7c1dc9"/></linearGradient><linearGradient id="New_Gradient_Swatch_copy_35" x1="928.72" y1="284.11" x2="1040.28" y2="534.43" gradientUnits="userSpaceOnUse"><stop offset="0" stop-color="#9f79c8"/><stop offset="0.14" stop-color="#a580cb"/><stop offset="0.33" stop-color="#b492d3"/><stop offset="0.55" stop-color="#cdb0e1"/><stop offset="0.58" stop-color="#d1b4e3"/><stop offset="0.76" stop-color="#dbc4e9"/><stop offset="1" stop-color="#ebdef3"/></linearGradient><linearGradient id="New_Gradient_Swatch_copy_35-2" x1="714.85" y1="158.65" x2="857.16" y2="236.65" xlink:href="#New_Gradient_Swatch_copy_35"/><linearGradient id="New_Gradient_Swatch_copy_36-2" x1="869.44" y1="275.81" x2="1084.15" y2="168.96" xlink:href="#New_Gradient_Swatch_copy_36"/><linearGradient id="New_Gradient_Swatch_copy_35-3" x1="642.09" y1="112.64" x2="695.76" y2="395.59" xlink:href="#New_Gradient_Swatch_copy_35"/><linearGradient id="New_Gradient_Swatch_copy_36-3" x1="675.46" y1="397.45" x2="728.07" y2="32.04" xlink:href="#New_Gradient_Swatch_copy_36"/><linearGradient id="New_Gradient_Swatch_copy_35-4" x1="753.5" y1="271.5" x2="981.42" y2="139.14" xlink:href="#New_Gradient_Swatch_copy_35"/><linearGradient id="New_Gradient_Swatch_copy_35-5" x1="694.47" y1="250.12" x2="844.83" y2="100.29" xlink:href="#New_Gradient_Swatch_copy_35"/><linearGradient id="linear-gradient-13" x1="548.49" y1="248.38" x2="680.19" y2="218.86" xlink:href="#New_Gradient_Swatch_copy_7"/><linearGradient id="linear-gradient-14" x1="656.23" y1="154.39" x2="599.72" y2="225.84" xlink:href="#New_Gradient_Swatch_copy_7"/><linearGradient id="New_Gradient_Swatch_copy_36-4" x1="548.49" y1="248.38" x2="680.19" y2="218.86" xlink:href="#New_Gradient_Swatch_copy_36"/><linearGradient id="New_Gradient_Swatch_copy_35-6" x1="585.04" y1="221.7" x2="723.52" y2="250.59" xlink:href="#New_Gradient_Swatch_copy_35"/><linearGradient id="linear-gradient-16" x1="610.16" y1="213.9" x2="671.65" y2="292.11" xlink:href="#New_Gradient_Swatch_copy_7"/><linearGradient id="linear-gradient-18" x1="774.99" y1="182.3" x2="707.81" y2="317.02" xlink:href="#New_Gradient_Swatch_copy_7"/><linearGradient id="New_Gradient_Swatch_copy_36-5" x1="668.19" y1="316.45" x2="799.89" y2="286.93" xlink:href="#New_Gradient_Swatch_copy_36"/><linearGradient id="linear-gradient-20" x1="619.49" y1="187.01" x2="673.87" y2="168.53" xlink:href="#New_Gradient_Swatch_copy_7"/><linearGradient id="New_Gradient_Swatch_copy_36-6" x1="609.3" y1="197.19" x2="709.33" y2="174.77" xlink:href="#New_Gradient_Swatch_copy_36"/><linearGradient id="New_Gradient_Swatch_copy_36-7" x1="593.81" y1="289.43" x2="725.51" y2="259.91" xlink:href="#New_Gradient_Swatch_copy_36"/><linearGradient id="New_Gradient_Swatch_copy_36-8" x1="790.47" y1="299.61" x2="904.15" y2="265.57" xlink:href="#New_Gradient_Swatch_copy_36"/><linearGradient id="linear-gradient-21" x1="802.46" y1="211.49" x2="867.56" y2="191.99" xlink:href="#New_Gradient_Swatch_copy_7"/><linearGradient id="New_Gradient_Swatch_copy_36-9" x1="802.46" y1="211.49" x2="867.56" y2="191.99" xlink:href="#New_Gradient_Swatch_copy_36"/><linearGradient id="New_Gradient_Swatch_copy_36-10" x1="714.21" y1="335.67" x2="691.46" y2="71.21" xlink:href="#New_Gradient_Swatch_copy_36"/><linearGradient id="New_Gradient_Swatch_copy_35-7" x1="821.25" y1="357.32" x2="831.12" y2="379.46" xlink:href="#New_Gradient_Swatch_copy_35"/><linearGradient id="New_Gradient_Swatch_copy_35-8" x1="724.99" y1="176.33" x2="772.62" y2="387.12" xlink:href="#New_Gradient_Swatch_copy_35"/><linearGradient id="New_Gradient_Swatch_copy_35-9" x1="887.88" y1="200.95" x2="797.18" y2="373.81" xlink:href="#New_Gradient_Swatch_copy_35"/><linearGradient id="linear-gradient-22" x1="826.62" y1="278.8" x2="795.16" y2="298" gradientUnits="userSpaceOnUse"><stop offset="0.02" stop-color="#45108a"/><stop offset="0.29" stop-color="#3d065f"/><stop offset="1" stop-color="#12054e"/><stop offset="1" stop-color="#10054d"/></linearGradient><linearGradient id="linear-gradient-23" x1="754.7" y1="188.26" x2="715.25" y2="156.98" gradientUnits="userSpaceOnUse"><stop offset="0" stop-color="#fff"/><stop offset="1" stop-color="#bcbec0"/></linearGradient><linearGradient id="New_Gradient_Swatch_copy_35-10" x1="813.84" y1="272.1" x2="811.35" y2="375.19" xlink:href="#New_Gradient_Swatch_copy_35"/></defs><title>home</title><g class="cls-1"><g id="fc836297-f37e-43a2-86b4-5406f4a63596"><path class="cls-2" d="M584.45,136.52c-71.37,12.06-142.64,6.89-211.2-.63S236.3,118.55,164.9,121.51c-45.93,1.9-97.08,11-129.15,37.45C4.88,184.4.07,218.73,0,249.72-.07,273,2,297.15,18.47,315.72c11.48,12.88,29.15,22.11,42.46,34,46.31,41.3,32.23,106.33,1.84,161.62-14.26,25.94-31.7,51.45-41.41,78s-11,55,6.38,76.65C45,687.46,78.27,699.56,113,705.83c70.54,12.74,149.13,4.83,225.17-5.89C506.46,676.13,673,639,839.2,602c61.49-13.71,123.25-27.48,182.49-47.24,32.91-11,66.41-24.69,87.66-46,27-27,27.68-63.93,1.66-86-43.66-37-142.48-28.79-176.25-71.09-18.58-23.29-10.49-54.92,4.3-82.86,31.71-59.92,93-119.12,85.06-178.86-5.48-41-47.29-74.93-103.33-83.77-58.74-9.26-134.18,8.3-168,49.56C718,98.23,647.47,125.84,584.45,136.52Z"/><path class="cls-3" d="M984.05,501.28l-4.54-2.67a1.32,1.32,0,1,1,1.34-2.27l4.53,2.68a1.31,1.31,0,0,1,.47,1.8,1.33,1.33,0,0,1-1.13.65A1.26,1.26,0,0,1,984.05,501.28ZM975,495.94l-4.53-2.67a1.32,1.32,0,1,1,1.33-2.27l4.54,2.67a1.32,1.32,0,0,1-.67,2.45A1.38,1.38,0,0,1,975,495.94Zm-9.07-5.35-4.53-2.67a1.31,1.31,0,1,1,1.33-2.26l4.54,2.67a1.32,1.32,0,0,1-.67,2.45A1.26,1.26,0,0,1,965.9,490.59Zm-9.07-5.34-4.54-2.67a1.32,1.32,0,0,1,1.34-2.27l4.54,2.67a1.32,1.32,0,0,1,.46,1.8,1.3,1.3,0,0,1-1.13.65A1.35,1.35,0,0,1,956.83,485.25Zm-9.07-5.35-4.54-2.67a1.31,1.31,0,1,1,1.34-2.26l4.53,2.67a1.31,1.31,0,0,1,.47,1.8,1.32,1.32,0,0,1-1.14.65A1.25,1.25,0,0,1,947.76,479.9Zm-9.08-5.34-4.53-2.67a1.32,1.32,0,1,1,1.33-2.27l4.54,2.67a1.32,1.32,0,0,1-.67,2.45A1.38,1.38,0,0,1,938.68,474.56Z"/><path class="cls-3" d="M842.67,580.22l-4.54-2.67a1.32,1.32,0,0,1,1.34-2.27L844,578a1.32,1.32,0,0,1,.46,1.8,1.3,1.3,0,0,1-1.13.65A1.35,1.35,0,0,1,842.67,580.22Zm-9.07-5.35-4.54-2.67a1.31,1.31,0,1,1,1.34-2.26l4.53,2.67a1.32,1.32,0,0,1-.66,2.45A1.26,1.26,0,0,1,833.6,574.87Zm-9.07-5.34L820,566.86a1.32,1.32,0,0,1,1.33-2.27l4.54,2.67a1.32,1.32,0,0,1,.47,1.81,1.34,1.34,0,0,1-1.14.64A1.31,1.31,0,0,1,824.53,569.53Zm-9.08-5.34-4.53-2.68a1.31,1.31,0,1,1,1.33-2.26l4.54,2.67a1.32,1.32,0,0,1,.46,1.8,1.3,1.3,0,0,1-1.13.65A1.35,1.35,0,0,1,815.45,564.19Zm-9.07-5.35-4.54-2.67a1.32,1.32,0,0,1,1.34-2.27l4.54,2.67a1.33,1.33,0,0,1,.46,1.81,1.31,1.31,0,0,1-1.13.64A1.35,1.35,0,0,1,806.38,558.84Zm-9.07-5.34-4.54-2.67a1.32,1.32,0,1,1,1.34-2.27l4.53,2.67a1.31,1.31,0,0,1,.47,1.8,1.32,1.32,0,0,1-1.14.65A1.34,1.34,0,0,1,797.31,553.5Z"/><path class="cls-3" d="M712.34,656l-4.54-2.67a1.32,1.32,0,1,1,1.34-2.27l4.53,2.68a1.31,1.31,0,0,1,.47,1.8,1.34,1.34,0,0,1-1.14.64A1.24,1.24,0,0,1,712.34,656Zm-9.08-5.34L698.73,648a1.32,1.32,0,1,1,1.33-2.27l4.54,2.67a1.32,1.32,0,0,1-.67,2.45A1.38,1.38,0,0,1,703.26,650.67Zm-9.07-5.35-4.53-2.67a1.31,1.31,0,1,1,1.33-2.26l4.54,2.67a1.32,1.32,0,0,1-.67,2.45A1.26,1.26,0,0,1,694.19,645.32ZM685.12,640l-4.54-2.67a1.32,1.32,0,0,1,1.34-2.27l4.53,2.67a1.31,1.31,0,0,1,.47,1.8,1.3,1.3,0,0,1-1.13.65A1.35,1.35,0,0,1,685.12,640Zm-9.07-5.35L671.51,632a1.31,1.31,0,1,1,1.34-2.26l4.53,2.67a1.31,1.31,0,0,1,.47,1.8,1.32,1.32,0,0,1-1.14.65A1.25,1.25,0,0,1,676.05,634.63ZM667,629.29l-4.53-2.67a1.32,1.32,0,1,1,1.33-2.27l4.54,2.67a1.32,1.32,0,0,1-.67,2.45A1.35,1.35,0,0,1,667,629.29Z"/><g class="cls-4"><path class="cls-5" d="M860.65,382.6l-72.52,41.87-72.37-41.79,72.52-41.86,72.37,41.78Zm5.41,0-77.8-44.92-77.91,45,77.8,44.92,77.91-45Z"/><polygon class="cls-5" points="777.21 433.56 699.71 388.82 702.86 387 780.36 431.74 777.21 433.56"/><polygon class="cls-5" points="768.22 438.75 690.72 394.01 693.87 392.19 771.37 436.93 768.22 438.75"/><polygon class="cls-5" points="722.89 423.13 681.58 399.28 684.73 397.47 726.04 421.32 722.89 423.13"/><path class="cls-5" d="M961.06,440.57l-72.51,41.87-72.37-41.78,72.51-41.87,72.37,41.78Zm5.42,0-77.8-44.91-77.92,45,77.8,44.92,77.92-45Z"/><polygon class="cls-5" points="877.62 491.53 800.13 446.79 803.27 444.97 880.77 489.72 877.62 491.53"/><polygon class="cls-5" points="868.63 496.72 791.14 451.98 794.28 450.16 871.78 494.91 868.63 496.72"/><polygon class="cls-5" points="823.31 481.11 782 457.26 785.14 455.44 826.46 479.29 823.31 481.11"/><path class="cls-5" d="M725.8,460.45l-72.52,41.87-72.37-41.78,72.52-41.87,72.37,41.78Zm5.41,0-77.79-44.91-77.92,45,77.8,44.92,77.91-45Z"/><polygon class="cls-5" points="642.36 511.41 564.87 466.67 568.01 464.85 645.51 509.6 642.36 511.41"/><polygon class="cls-5" points="633.37 516.6 555.88 471.86 559.02 470.04 636.52 514.79 633.37 516.6"/><polygon class="cls-5" points="588.05 500.99 546.74 477.14 549.88 475.32 591.19 499.17 588.05 500.99"/><path class="cls-5" d="M826.22,518.43,753.7,560.3l-72.37-41.79,72.52-41.87,72.37,41.79Zm5.41,0-77.8-44.92-77.91,45,77.8,44.92,77.91-45Z"/><polygon class="cls-5" points="742.78 569.39 665.28 524.64 668.42 522.83 745.92 567.57 742.78 569.39"/><polygon class="cls-5" points="733.79 574.58 656.29 529.84 659.43 528.02 736.93 572.76 733.79 574.58"/><polygon class="cls-5" points="688.46 558.96 647.15 535.11 650.3 533.29 691.61 557.15 688.46 558.96"/><path class="cls-5" d="M590.36,538.65l-72.52,41.87-72.37-41.78L518,496.87l72.38,41.78Zm5.41,0L518,493.75l-77.91,45,77.79,44.92,77.92-45Z"/><polygon class="cls-5" points="506.91 589.61 429.42 544.87 432.56 543.05 510.06 587.8 506.91 589.61"/><polygon class="cls-5" points="497.93 594.8 420.43 550.06 423.57 548.25 501.07 592.99 497.93 594.8"/><polygon class="cls-5" points="452.6 579.19 411.29 555.34 414.44 553.52 455.75 577.37 452.6 579.19"/><path class="cls-5" d="M690.77,596.63,618.25,638.5l-72.37-41.79,72.52-41.87,72.37,41.79Zm5.41,0-77.8-44.92-77.91,45,77.8,44.92,77.91-45Z"/><polygon class="cls-5" points="607.33 647.59 529.83 602.85 532.98 601.03 610.48 645.77 607.33 647.59"/><polygon class="cls-5" points="598.34 652.78 520.84 608.03 523.99 606.22 601.49 650.96 598.34 652.78"/><polygon class="cls-5" points="553.01 637.16 511.7 613.31 514.85 611.5 556.16 635.35 553.01 637.16"/><path class="cls-5" d="M828.05,304.66l26.5,15.3a4.36,4.36,0,0,0,4,0,1.2,1.2,0,0,0,0-2.28L832,302.39a4.36,4.36,0,0,0-4,0A1.2,1.2,0,0,0,828.05,304.66Zm23.79,16.87-26.5-15.3a4.33,4.33,0,0,0-4,0,1.2,1.2,0,0,0,0,2.28l26.5,15.3a4.4,4.4,0,0,0,4,0A1.2,1.2,0,0,0,851.84,321.53Zm-6.64,3.83-26.5-15.3a4.36,4.36,0,0,0-4,0c-1.09.62-1.09,1.64,0,2.28l26.5,15.29a4.33,4.33,0,0,0,4,0A1.21,1.21,0,0,0,845.2,325.36Z"/><path class="cls-5" d="M553.72,685.33,364.36,576c-12.47-7.2-12.54-18.88-.14-26L810.11,292.52c12.39-7.15,32.62-7.12,45.09.08l189.37,109.33c12.47,7.2,12.53,18.88.14,26L598.82,685.41C586.42,692.56,566.2,692.52,553.72,685.33ZM853.4,293.64c-11.47-6.62-30.08-6.66-41.48-.07L366,551c-11.4,6.59-11.34,17.33.13,24L555.52,684.29c11.48,6.62,30.09,6.65,41.49.07L1042.9,426.92c11.4-6.58,11.35-17.32-.13-23.95Z"/><path class="cls-5" d="M1009.17,415c0,.82-1.14,1.47-2.55,1.47s-2.55-.66-2.55-1.47,1.13-1.48,2.54-1.47S1009.16,414.16,1009.17,415Z"/><path class="cls-5" d="M1005.28,403.19h-.42v1.47h.42c10.55,0,19.15,5,19.19,11.08,0,0,0,0,0,.05H1027a.2.2,0,0,0,0-.05C1027,408.84,1017.23,403.21,1005.28,403.19Z"/><path class="cls-5" d="M1005.31,409.08l-.42,0v1.47l.42,0c4.92,0,8.94,2.33,8.95,5.17v0l2.55,0v0C1016.8,412.07,1011.64,409.09,1005.31,409.08Z"/><path class="cls-5" d="M1005.29,406.13h-.41v1.48l.42,0c7.74,0,14.05,3.66,14.07,8.13v0h2.55a.43.43,0,0,0,0,0C1021.9,410.46,1014.44,406.15,1005.29,406.13Z"/><polygon class="cls-5" points="956.04 387.85 879.6 343.71 884.55 340.86 960.99 384.99 956.04 387.85"/></g><g class="cls-6"><path class="cls-7" d="M531.47,650.26c13.19,0,25.17-2.89,34.62-8.35l482.46-277.7c12.62-7.29,19.86-18.83,19.86-31.65,0-14.05-8.72-27.15-23.92-35.92L836.39,176.49c-11.94-6.9-26.88-10.69-42-10.69-13.2,0-25.17,2.88-34.63,8.35L277.26,451.84c-12.63,7.29-19.87,18.83-19.87,31.65,0,14.05,8.72,27.15,23.93,35.93l208.1,120.15C501.36,646.46,516.29,650.26,531.47,650.26Z"/><path class="cls-8" d="M760.1,175,277.65,452.67c-12.13,7-19,18-18.94,30.2.06,13.31,8.41,25.78,23,34.2L480.41,631.79c.32.19,10.07,5.76,10.44,5.88,12.25,6.7,27.48,10.08,42.32,9.48A74.39,74.39,0,0,0,567.31,638L1047.1,361.86c12.13-7,19-18,18.94-30.19-.06-13.32-8.41-25.78-23-34.2L836.19,178a86.42,86.42,0,0,0-15.37-6.83,89.32,89.32,0,0,0-26.27-4.29C781.46,166.79,769.47,169.57,760.1,175Z"/><path class="cls-9" d="M760.48,175.81,278,453.51c-11.63,6.71-18.13,17.18-18,28.73.12,12.58,8.1,24.41,22.07,32.48L481.74,630c.64.37,9.8,5.55,10.55,5.78A80.58,80.58,0,0,0,534.87,644c10.79,0,25.92-5.42,33.66-9.89l477.12-274.63c11.63-6.72,18.13-17.19,18-28.74-.12-12.58-8.1-24.41-22.08-32.48L836,179.59a98.79,98.79,0,0,0-15.21-6.94,88.88,88.88,0,0,0-26-4.61C781.78,167.78,769.77,170.45,760.48,175.81Z"/><path class="cls-10" d="M760.87,176.64,278.42,454.34c-11.13,6.43-17.27,16.36-17.09,27.28.18,11.84,7.79,23,21.15,30.76L483.06,628.19c1,.55,9.54,5.34,10.66,5.68a78.12,78.12,0,0,0,42.85,7.07c9.59,0,26.29-6.7,33.17-10.67l474.46-273.1c11.14-6.43,17.27-16.36,17.09-27.28-.18-11.85-7.78-23.05-21.15-30.76l-204.35-118a116.39,116.39,0,0,0-15-7A88.5,88.5,0,0,0,795,169.16C782.1,168.78,770.07,171.33,760.87,176.64Z"/><path class="cls-11" d="M761.26,177.47,278.81,455.17c-10.64,6.14-16.4,15.54-16.17,25.82.24,11.11,7.48,21.68,20.22,29L484.39,626.38c1.28.74,9.27,5.14,10.76,5.6a75.78,75.78,0,0,0,43.12,5.85c8.39,0,26.67-8,32.69-11.44l471.79-271.57c10.64-6.14,16.41-15.54,16.17-25.82-.24-11.11-7.48-21.68-20.22-29L835.59,182.69a139,139,0,0,0-14.88-7.16,88.13,88.13,0,0,0-25.52-5.25C782.42,169.77,770.36,172.21,761.26,177.47Z"/><path class="cls-12" d="M761.65,178.3,279.2,456c-10.15,5.86-15.54,14.72-15.25,24.37.3,10.37,7.17,20.31,19.3,27.31l202.47,116.9c1.6.92,9,4.93,10.87,5.5,13.5,5.91,29.9,7.65,43.38,4.65,7.2,0,27-9.24,32.21-12.22l469.13-270c10.14-5.86,15.53-14.73,15.24-24.37-.3-10.38-7.17-20.31-19.3-27.32L835.39,184.25c-2.6-1.5-11.74-6.19-14.71-7.27a87.58,87.58,0,0,0-25.28-5.58C782.74,170.76,770.66,173.1,761.65,178.3Z"/><path class="cls-13" d="M762,179.13,279.58,456.83c-9.64,5.57-14.67,13.9-14.32,22.91.36,9.64,6.86,18.95,18.38,25.6L487,622.77c1.92,1.11,8.75,4.72,11,5.41,13.81,5.72,30.51,7,43.65,3.44,6,0,27.42-10.51,31.72-13l466.47-268.5c9.64-5.57,14.67-13.9,14.32-22.91-.36-9.64-6.86-19-18.38-25.6L835.19,185.8c-2.17-1.25-12.08-6.45-14.55-7.38-7.75-2.91-16.25-5.36-25-5.9C783.06,171.76,771,174,762,179.13Z"/><path class="cls-14" d="M762.42,180,280,457.66c-9.15,5.29-13.8,13.08-13.39,21.46C267,488,273.12,496.69,284,503L488.37,621a85.18,85.18,0,0,0,11.09,5.32c14.12,5.51,31.11,6.43,43.91,2.23,4.8,0,27.8-11.79,31.24-13.77l463.8-267c9.15-5.28,13.8-13.08,13.39-21.46-.42-8.9-6.54-17.57-17.45-23.87L835,187.35c-1.73-1-12.41-6.73-14.38-7.49-7.66-3-16.06-5.59-24.78-6.22C783.38,172.75,771.26,174.86,762.42,180Z"/><path class="cls-15" d="M762.81,180.8,280.36,458.49c-8.66,5-12.94,12.26-12.47,20,.48,8.16,6.23,16.2,16.52,22.14L489.7,619.16a74.35,74.35,0,0,0,11.19,5.23c14.44,5.32,31.73,5.82,44.18,1,3.6,0,28.18-13,30.75-14.54L1037,345.44c8.66-5,12.94-12.27,12.47-20-.48-8.17-6.23-16.2-16.52-22.14L834.78,188.9c-1.29-.75-12.74-7-14.21-7.6-7.57-3-15.88-5.82-24.53-6.54C783.7,173.74,771.56,175.74,762.81,180.8Z"/><path class="cls-16" d="M763.19,181.63,280.74,459.32c-8.15,4.71-12.07,11.44-11.54,18.55.54,7.43,5.92,14.84,15.6,20.43L491,617.36a67,67,0,0,0,11.3,5.13c14.75,5.13,32.34,5.21,44.45-.19,2.4,0,28.55-14.32,30.27-15.31l458.47-263.9c8.16-4.71,12.08-11.44,11.55-18.55-.54-7.43-5.93-14.84-15.6-20.42L834.58,190.45c-.86-.5-13.07-7.3-14.05-7.7-7.48-3.09-15.68-6.06-24.28-6.87C784,174.74,771.86,176.62,763.19,181.63Z"/><path class="cls-17" d="M763.58,182.46,281.13,460.16c-7.66,4.42-11.2,10.62-10.62,17.09.6,6.69,5.61,13.47,14.68,18.7L492.35,615.56a60.82,60.82,0,0,0,11.41,5c15.06,4.93,32.94,4.61,44.71-1.39,1.2,0,28.93-15.6,29.79-16.09l455.81-262.37c7.66-4.42,11.2-10.62,10.62-17.09-.6-6.7-5.62-13.47-14.68-18.7L834.38,192c-.43-.25-13.4-7.6-13.88-7.81-7.4-3.14-15.5-6.28-24-7.19C784.34,175.73,772.16,177.51,763.58,182.46Z"/><path d="M550.17,616.09,1032.62,338.4c14.48-8.36,12.66-23-4.06-32.62L820.46,185.63c-16.72-9.65-42-10.7-56.49-2.34L281.52,461c-14.48,8.36-12.67,23,4.05,32.61L493.68,613.75C510.4,623.4,535.69,624.45,550.17,616.09Z"/></g><path class="cls-18" d="M483.13,565.2,288.58,452.87c-21.95-12.67-19.2-34.8,6.14-49.43L752.21,139.31c25.34-14.63,63.68-16.22,85.62-3.55l194.56,112.33c21.95,12.67,19.2,34.8-6.15,49.43L568.76,561.65C543.41,576.28,505.08,577.87,483.13,565.2Z"/><path class="cls-19" d="M483.13,561.87,288.58,449.54c-9.81-5.66-14.68-13.21-14.82-21.14,0-.7,0-15.95.08-16.66.81-9.17,7.86-4.12,20.88-11.63L752.21,136c25.34-14.63,63.68-16.22,85.62-3.55l194.56,112.33c9.8,5.66,14.67-4.3,14.81,3.62,0,.69,0,18.88-.07,19.58-.79,9.19-7.84,18.71-20.89,26.24L568.76,558.32C543.41,573,505.08,574.54,483.13,561.87Z"/><path class="cls-20" d="M483.13,545.2,288.58,432.87c-21.95-12.67-19.2-34.8,6.14-49.44L752.21,119.3c25.34-14.63,63.68-16.22,85.62-3.55l194.56,112.33c21.95,12.67,19.2,34.8-6.15,49.44L568.76,541.65C543.41,556.28,505.08,557.87,483.13,545.2Z"/><path class="cls-21" d="M288.58,430.68,483.13,543c21.95,12.67,60.28,11.08,85.62-3.55l457.49-264.13c13.34-7.7,20.41-17.48,20.93-26.87.55,10-6.55,20.75-20.93,29.06L568.75,541.65c-25.34,14.63-63.67,16.22-85.62,3.55L288.58,432.87c-10.4-6-15.24-14.13-14.78-22.57C274.22,418,279.08,425.2,288.58,430.68Z"/><path class="cls-22" d="M299.87,386.72l458-264.45c22.21-12.82,55.82-14.22,75.06-3.11l193.52,111.73c19.24,11.11,16.83,30.51-5.39,43.34l-458,264.45c-22.21,12.82-55.82,14.22-75.06,3.11L294.48,430.06C275.24,419,277.65,399.55,299.87,386.72Z"/><path class="cls-23" d="M308.74,390.53,764.51,127.4c18.6-10.74,46.72-11.9,62.83-2.61l189.39,109.35c16.11,9.3,14.09,25.54-4.51,36.28L556.46,533.55c-18.6,10.74-46.73,11.9-62.83,2.61L304.23,426.81C288.13,417.51,290.15,401.27,308.74,390.53Z"/><path class="cls-24" d="M825.68,128.28c-15.17-8.76-39.7-8.81-54.79-.1l-460.79,266c-15.08,8.71-15,22.87.17,31.63l185,106.82c15.18,8.76,39.71,8.81,54.79.1l460.8-266c15.08-8.71,15-22.87-.18-31.63Z"/><path class="cls-25" d="M522.83,535.52c9.66,0,18.67-2.13,25.37-6l460.79-266c6-3.49,9.39-7.92,9.39-12.48s-3.4-9.1-9.56-12.66l-185-106.81c-6.81-3.93-15.93-6.1-25.68-6.1s-18.66,2.13-25.36,6L312,397.47c-6.06,3.49-9.39,7.93-9.39,12.47s3.4,9.11,9.56,12.66l185,106.82C504,533.35,513.09,535.52,522.83,535.52Z"/><path class="cls-26" d="M939.84,342l21.21-12.25c2.64-1.53,4.79-5.63,4.79-9.16h0c0-3.53-2.15-5.15-4.79-3.62l-21.21,12.25c-2.65,1.52-4.79,5.62-4.79,9.15h0C935.05,341.91,937.19,343.53,939.84,342Z"/><path class="cls-27" d="M939.84,342l21.21-12.25c2.64-1.53,4.79-5.63,4.79-9.16h0c0-3.53-2.15-5.15-4.79-3.62l-21.21,12.25c-2.65,1.52-4.79,5.62-4.79,9.15h0C935.05,341.91,937.19,343.53,939.84,342Z"/><path class="cls-28" d="M937.94,341.33a2.61,2.61,0,0,0,1.27-.41l21.21-12.24c2.26-1.3,4.17-5,4.17-8.07,0-1.36-.43-2.95-1.64-2.95a2.73,2.73,0,0,0-1.28.4l-21.21,12.25c-2.26,1.3-4.16,5-4.16,8.07C936.3,339.74,936.73,341.33,937.94,341.33Z"/><path class="cls-29" d="M902,363.86l21.21-12.24c2.64-1.53,4.79-5.63,4.79-9.16h0c0-3.53-2.15-5.15-4.79-3.62L902,351.08c-2.65,1.53-4.79,5.63-4.79,9.16h0C897.19,363.77,899.33,365.39,902,363.86Z"/><path class="cls-30" d="M902,363.86l21.21-12.24c2.64-1.53,4.79-5.63,4.79-9.16h0c0-3.53-2.15-5.15-4.79-3.62L902,351.08c-2.65,1.53-4.79,5.63-4.79,9.16h0C897.19,363.77,899.33,365.39,902,363.86Z"/><path class="cls-31" d="M900.08,363.19a2.61,2.61,0,0,0,1.27-.41l21.21-12.24c2.26-1.31,4.17-5,4.17-8.08,0-1.36-.43-2.95-1.64-2.95a2.72,2.72,0,0,0-1.28.41L902.6,352.17c-2.26,1.3-4.16,5-4.16,8.07C898.44,361.6,898.87,363.19,900.08,363.19Z"/><path class="cls-32" d="M717.16,456.34,1026.24,277.1c13-7.53,20.1-17.05,20.89-26.24,0-.3,0-4,.06-8.12,0,.08,0,19.1-.06,19.79-.79,9.19-7.84,18.71-20.89,26.24Z"/><ellipse class="cls-33" cx="866.72" cy="368.29" rx="139.45" ry="92.57" transform="translate(-74.98 362.33) rotate(-22.66)"/><ellipse class="cls-34" cx="531.83" cy="560.33" rx="48.17" ry="72.57" transform="matrix(0.38, -0.92, 0.92, 0.38, -188.6, 839.25)"/><path class="cls-35" d="M415,444.52,355.72,410.3c-5.86-3.38-5.13-9.28,1.64-13.19l55.47-32c6.77-3.9,17-4.33,22.85-.95l59.26,34.22c5.86,3.38,5.12,9.29-1.64,13.19l-55.48,32C431.06,447.47,420.83,447.9,415,444.52Z"/><path class="cls-36" d="M493.3,409.45l-55.48,32c-6.76,3.91-17,4.33-22.84.95l-59.26-34.21a7.35,7.35,0,0,1-3.83-4.61c-.44,2.49.78,4.93,3.83,6.69L415,444.52c5.85,3.38,16.08,3,22.84-.95l55.48-32c4.24-2.45,6.1-5.68,5.47-8.59C498.36,405.25,496.54,407.58,493.3,409.45Z"/><path d="M368.07,494.08l34.82,20.1h0c0-6.36-3.87-13.75-8.64-16.5l-17.54-10.13c-4.78-2.76-8.64.17-8.64,6.53Z"/><path class="cls-37" d="M623.72,429.24,591.44,410.6c-3.61-2.09-3.63-5.47,0-7.54l24.86-14.35a14.59,14.59,0,0,1,12.33-.36l9-5.18c7-4.05,18.47-4,25.53.05l8.07,4.66c7.06,4.07,7.1,10.68.08,14.74l-9,5.17c2.94,2.1,2.74,5.18-.62,7.12l-24.86,14.35A14.48,14.48,0,0,1,623.72,429.24ZM627.13,390a9.54,9.54,0,0,0-8.66,0l-24.86,14.35c-2.39,1.38-2.37,3.62,0,5L625.91,428a9.63,9.63,0,0,0,8.67,0l24.86-14.36c2.38-1.37,2.37-3.61,0-5l-1.5-.87L669,401.34c5.8-3.35,5.77-8.82-.07-12.2l-8.07-4.66c-5.85-3.37-15.33-3.39-21.13,0l-11.12,6.42Zm26.2,15.12-20.11-11.61,9.11-5.26c4.26-2.46,11.2-2.44,15.47,0l4.59,2.64c4.28,2.47,4.3,6.48.05,8.94Zm-15.72-11.6,15.7,9.06,6.93-4c3-1.75,3-4.62,0-6.39l-4.59-2.65a12.23,12.23,0,0,0-11.07,0Z"/><path class="cls-37" d="M619.72,416.51l-6.23-3.6,6.31-3.65c-.62-1.57.19-3.25,2.18-4.4a12.89,12.89,0,0,1,11.65,0c3.22,1.86,3.24,4.88,0,6.72a12.59,12.59,0,0,1-7.63,1.26Z"/><path class="cls-38" d="M452.81,385.22c-10.14-4.65-24.94-4.77-35.18-.28-7.76,3.41-12,8.78-11.31,14.38.31,2.54-1.22,5-4.2,6.71l-4.22,2.43c-2.24,1.3-2.61,3.25-1.18,4.8l-4.13,2.38c-2.47,1.43-2.46,3.76,0,5.2l3.34,1.92a10,10,0,0,0,9,0l4.12-2.38a11.18,11.18,0,0,0,8.31-.68l4.2-2.43a22.64,22.64,0,0,1,11.88-2.43c8.21.3,16.24-1.45,22-4.79C467.48,403.15,466.61,391.52,452.81,385.22Zm-19.17,27.84c-5.48-.2-10.68.87-14.27,2.95l-4.2,2.42a6.14,6.14,0,0,1-5.57,0l-3.36-1.94,19.42-11.21,11.53,0a1.83,1.83,0,0,0,1.44-.55c.24-.34.11-.73-.34-1l-12.74-7.35a2.46,2.46,0,0,0-1.71-.2c-.58.14-1,.47-1,.83l0,7.26L404,415.2,400.14,413c-1.54-.89-1.55-2.33,0-3.21l4.22-2.44c3.62-2.09,5.49-5,5.11-8.11-.61-5,3.16-9.78,10.09-12.82,9.12-4,22.3-3.89,31.33.26.81.37,1.57.76,2.29,1.17,10,5.8,10.1,15.21.11,21C448.12,411.76,441,413.32,433.64,413.06Z"/><path class="cls-37" d="M563.74,449l-4.12-2.37a14.74,14.74,0,0,0-13.35,0l-27.91,16.11c-6.87-.69-13.82.56-18.75,3.4-8.32,4.81-8.28,12.65.1,17.48s21.95,4.86,30.27.06c4.93-2.84,7.1-6.86,5.89-10.83l27.91-16.11C567.45,454.55,567.43,451.1,563.74,449Zm-2.13,6.46L532.54,472.2l.17.47c1.32,3.53-.51,7.15-4.9,9.68-7.13,4.12-18.77,4.1-25.94,0s-7.21-10.86-.08-15c4.39-2.53,10.66-3.59,16.77-2.83l.82.1,29.07-16.78a10,10,0,0,1,9,0l4.13,2.38C564.07,451.65,564.08,454,561.61,455.42Z"/><path class="cls-37" d="M548.89,457.54l-4.12-2.38a3.63,3.63,0,0,0-3.29,0l-20.78,12-3-.37A21.72,21.72,0,0,0,504.66,469c-5.56,3.21-5.53,8.44.06,11.67s14.66,3.25,20.22,0c3.42-2,4.84-4.8,3.82-7.55l-.64-1.72,20.78-12C549.81,458.91,549.8,458.06,548.89,457.54Z"/><path class="cls-37" d="M566.62,331.68l-3.25-1.88,2.3-1.33c1.58-.91,1.57-2.39,0-3.31l-4.82-2.78a6.32,6.32,0,0,0-5.73,0l-2.31,1.33-4.53-2.62c-3-1.71-8.32-1.5-11.67.43l-37.48,21.65c-2,1.17-3.19,2.81-3.19,4.5a4.34,4.34,0,0,0,2.44,3.72l3.25,1.87-2.49,1.44c-1.58.91-1.57,2.39,0,3.31l4.81,2.78a6.35,6.35,0,0,0,5.73,0l2.49-1.44,4.54,2.62a10.34,10.34,0,0,0,5.14,1.21,13.42,13.42,0,0,0,6.52-1.64l37.49-21.65c2-1.16,3.18-2.8,3.18-4.5A4.3,4.3,0,0,0,566.62,331.68Zm-2,6L527.1,359.31c-2.58,1.49-6.94,1.68-9.1.43l-18.35-10.59c-.43-.25-1.15-.77-1.15-1.49s.71-1.59,1.9-2.28l37.49-21.64a10.78,10.78,0,0,1,5.23-1.3,7.91,7.91,0,0,1,3.87.87l18.34,10.59c.43.25,1.16.77,1.16,1.49S565.78,337,564.59,337.67Z"/><polygon class="cls-37" points="521.08 336.86 532.44 343.41 511.63 349.04 544.99 344.6 534.73 338.67 553.88 334.31 521.08 336.86"/><path class="cls-37" d="M531.29,386.82a21.54,21.54,0,0,1-10.53-2.44L461.5,350.17c-2.94-1.7-4.56-4.11-4.56-6.79,0-3.14,2.26-6.24,6.2-8.52l55.48-32a27.87,27.87,0,0,1,13.53-3.39,21.43,21.43,0,0,1,10.53,2.45l59.26,34.21c2.94,1.7,4.56,4.11,4.56,6.78,0,3.14-2.26,6.25-6.2,8.52l-55.47,32A27.82,27.82,0,0,1,531.29,386.82Zm.86-84.94a25.4,25.4,0,0,0-12.31,3.06l-55.48,32c-3.17,1.83-5,4.17-5,6.41,0,1.77,1.19,3.43,3.35,4.67L522,382.27a19.07,19.07,0,0,0,9.31,2.12,25.36,25.36,0,0,0,12.32-3.07l55.47-32c3.17-1.83,5-4.16,5-6.41,0-1.79-1.16-3.41-3.35-4.67L541.46,304A19,19,0,0,0,532.15,301.88Z"/><path class="cls-37" d="M636.81,447.33a21.43,21.43,0,0,1-10.53-2.45L567,410.67c-2.94-1.7-4.56-4.11-4.56-6.79,0-3.13,2.26-6.24,6.2-8.51l55.47-32a27.83,27.83,0,0,1,13.54-3.4,21.43,21.43,0,0,1,10.53,2.45l59.26,34.21c2.94,1.7,4.56,4.11,4.56,6.79,0,3.13-2.26,6.24-6.2,8.51l-55.47,32A27.83,27.83,0,0,1,636.81,447.33Zm.86-84.95a25.36,25.36,0,0,0-12.32,3.07l-55.47,32c-3.17,1.84-5,4.17-5,6.41,0,1.77,1.19,3.43,3.35,4.68l59.26,34.21a19,19,0,0,0,9.31,2.12,25.36,25.36,0,0,0,12.32-3.07l55.47-32c3.17-1.84,5-4.17,5-6.41,0-1.77-1.19-3.43-3.35-4.68L647,364.5A19,19,0,0,0,637.67,362.38Z"/><path class="cls-37" d="M530.42,508.52a21.43,21.43,0,0,1-10.53-2.45l-59.26-34.21c-2.94-1.7-4.56-4.11-4.56-6.78,0-3.14,2.25-6.24,6.2-8.52l55.47-32a27.82,27.82,0,0,1,13.54-3.39,21.54,21.54,0,0,1,10.53,2.44l59.26,34.22c2.94,1.7,4.56,4.1,4.56,6.78,0,3.14-2.26,6.24-6.2,8.52l-55.48,32A27.87,27.87,0,0,1,530.42,508.52Zm.86-84.95A25.36,25.36,0,0,0,519,426.64l-55.47,32c-3.17,1.83-5,4.16-5,6.41,0,1.79,1.16,3.41,3.35,4.67L521.1,504a19,19,0,0,0,9.32,2.12A25.4,25.4,0,0,0,542.73,503l55.48-32c3.17-1.83,5-4.17,5-6.41,0-1.77-1.19-3.43-3.35-4.68l-59.26-34.21A19.07,19.07,0,0,0,531.28,423.57Z"/><path class="cls-39" d="M431.67,397.28a1.22,1.22,0,0,1-1.22-1.22v-.29a1.22,1.22,0,0,1,2.44,0v.29A1.22,1.22,0,0,1,431.67,397.28Zm0-5.17a1.21,1.21,0,0,1-1.22-1.22V386a1.22,1.22,0,0,1,2.44,0v4.87A1.22,1.22,0,0,1,431.67,392.11Zm0-9.75a1.21,1.21,0,0,1-1.22-1.22v-4.87a1.22,1.22,0,0,1,2.44,0v4.87A1.22,1.22,0,0,1,431.67,382.36Zm0-9.75a1.21,1.21,0,0,1-1.22-1.22v-4.87a1.22,1.22,0,1,1,2.44,0v4.87A1.22,1.22,0,0,1,431.67,372.61Zm0-9.75a1.21,1.21,0,0,1-1.22-1.22v-4.87a1.22,1.22,0,1,1,2.44,0v4.87A1.22,1.22,0,0,1,431.67,362.86Zm0-9.75a1.21,1.21,0,0,1-1.22-1.22V347a1.22,1.22,0,1,1,2.44,0v4.87A1.22,1.22,0,0,1,431.67,353.11Zm0-9.75a1.21,1.21,0,0,1-1.22-1.22v-4.87a1.22,1.22,0,1,1,2.44,0v4.87A1.22,1.22,0,0,1,431.67,343.36Zm0-9.75a1.21,1.21,0,0,1-1.22-1.22v-4.87a1.22,1.22,0,1,1,2.44,0v4.87A1.22,1.22,0,0,1,431.67,333.61Zm0-9.75a1.21,1.21,0,0,1-1.22-1.22v-4.87a1.22,1.22,0,1,1,2.44,0v4.87A1.22,1.22,0,0,1,431.67,323.86Zm0-9.75a1.21,1.21,0,0,1-1.22-1.22V308a1.22,1.22,0,1,1,2.44,0v4.87A1.22,1.22,0,0,1,431.67,314.11Zm0-9.75a1.21,1.21,0,0,1-1.22-1.21v-4.88a1.22,1.22,0,0,1,2.44,0v4.88A1.22,1.22,0,0,1,431.67,304.36Zm0-9.75a1.21,1.21,0,0,1-1.22-1.21v-4.88a1.22,1.22,0,0,1,2.44,0v4.88A1.22,1.22,0,0,1,431.67,294.61Zm0-9.75a1.21,1.21,0,0,1-1.22-1.21v-4.88a1.22,1.22,0,0,1,2.44,0v4.88A1.22,1.22,0,0,1,431.67,284.86Zm0-9.74a1.22,1.22,0,0,1-1.22-1.22V269a1.22,1.22,0,0,1,2.44,0v4.88A1.22,1.22,0,0,1,431.67,275.12Zm0-9.75a1.22,1.22,0,0,1-1.22-1.22v-4.88a1.22,1.22,0,0,1,2.44,0v4.88A1.22,1.22,0,0,1,431.67,265.37Zm0-9.75a1.22,1.22,0,0,1-1.22-1.22v-4.88a1.22,1.22,0,1,1,2.44,0v4.88A1.22,1.22,0,0,1,431.67,255.62Z"/><circle class="cls-40" cx="431.67" cy="398.91" r="26.32" transform="translate(-53.23 731.09) rotate(-77.15)"/><polygon class="cls-41" points="578.44 265.85 625.03 292.52 625.36 307.62 687.21 343.6 776.1 378.9 946.01 338.38 931.08 331.44 991.33 241.34 806.31 129.9 578.44 265.85"/><polygon class="cls-42" points="681.78 49.24 861.63 153.88 965.04 168.65 785.07 66.07 681.78 49.24"/><polygon class="cls-43" points="861.58 153.88 861.58 330.39 880.16 319.89 880.19 316 946.28 276.88 950.3 278.38 965.04 269.64 965.04 168.65 861.58 153.88"/><polygon class="cls-44" points="861.63 153.88 861.63 330.39 681.78 225.68 681.78 49.24 861.63 153.88"/><polygon class="cls-45" points="875.92 229.33 954.63 182.05 954.63 275.81 950.3 278.38 946.27 276.88 880.19 316 880.16 319.89 875.92 322.39 875.92 229.33"/><polygon class="cls-46" points="946.27 276.88 946.27 192.04 880.19 231.75 880.19 316 946.27 276.88"/><polygon class="cls-47" points="946.27 198.5 946.27 192.04 880.19 231.75 880.19 237.62 946.27 198.5"/><polygon class="cls-47" points="946.27 199.75 946.27 196.31 880.19 236.01 880.19 238.87 946.27 199.75"/><polygon class="cls-47" points="946.27 206.44 946.27 203 880.19 242.7 880.19 245.56 946.27 206.44"/><polygon class="cls-47" points="946.27 213.13 946.27 209.69 880.19 249.39 880.19 252.24 946.27 213.13"/><polygon class="cls-47" points="946.27 219.81 946.27 216.38 880.19 256.08 880.19 258.93 946.27 219.81"/><polygon class="cls-47" points="946.27 226.5 946.27 223.07 880.19 262.77 880.19 265.62 946.27 226.5"/><polygon class="cls-47" points="946.27 233.19 946.27 229.75 880.19 269.46 880.19 272.31 946.27 233.19"/><polygon class="cls-47" points="946.27 239.88 946.27 236.44 880.19 276.15 880.19 279 946.27 239.88"/><polygon class="cls-47" points="946.27 246.57 946.27 243.13 880.19 282.83 880.19 285.69 946.27 246.57"/><polygon class="cls-47" points="946.27 253.26 946.27 249.82 880.19 289.52 880.19 292.38 946.27 253.26"/><polygon class="cls-47" points="946.27 259.95 946.27 256.51 880.19 296.21 880.19 299.07 946.27 259.95"/><polygon class="cls-47" points="946.27 266.64 946.27 263.2 880.19 302.9 880.19 305.76 946.27 266.64"/><polygon class="cls-47" points="946.27 273.33 946.27 269.89 880.19 309.59 880.19 312.45 946.27 273.33"/><polygon class="cls-48" points="762.47 258.48 762.47 370.89 578.44 265.85 578.44 152.81 762.47 258.48"/><polygon class="cls-49" points="762.47 259.55 848.77 111.11 664.75 6.07 578.44 153.88 762.47 259.55"/><polygon class="cls-50" points="591.32 272.7 591.32 174.21 630.61 197.25 630.61 295.56 591.32 272.7"/><polygon class="cls-45" points="626.35 199.69 626.35 288.15 595.58 270.25 595.58 181.66 626.35 199.69"/><polygon class="cls-51" points="762.47 370.89 762.47 259.55 848.4 109.98 848.4 322.79 762.47 370.89"/><polygon class="cls-52" points="766.72 119.28 687.21 165.79 687.21 343.6 700.16 336.02 700.16 223.51 766.72 119.28"/><polygon class="Graphic-Style-184" points="599.49 268.29 626.35 283.92 626.35 199.69 599.49 183.95 599.49 268.29"/><polygon class="cls-53" points="599.49 268.29 626.35 199.69 599.49 183.95 599.49 268.29"/><path class="cls-54" d="M599.49,184v84.34l26.86,15.63V199.7Zm24.73,96.26-22.6-13.14v-79.4l22.6,13.25Z"/><polygon class="cls-55" points="687.21 165.79 687.21 343.6 625.36 307.62 625.36 129.53 687.21 165.79"/><polygon class="cls-50" points="636.64 313.76 636.64 215.27 675.93 238.31 675.93 336.62 636.64 313.76"/><polygon class="cls-45" points="671.67 240.75 671.67 329.2 640.9 311.3 640.9 222.72 671.67 240.75"/><polygon class="cls-50" points="711.02 340.77 711.02 242.28 750.32 265.32 750.32 363.63 711.02 340.77"/><polygon class="cls-45" points="746.05 267.77 746.05 356.22 715.28 338.32 715.28 249.73 746.05 267.77"/><polygon class="cls-50" points="636.64 202.33 636.64 149.16 675.93 172.19 675.93 225.19 636.64 202.33"/><polygon class="cls-45" points="671.67 174.63 671.67 217.77 640.9 199.87 640.9 156.6 671.67 174.63"/><polygon class="Graphic-Style-184" points="644.81 309.35 671.67 324.97 671.67 240.75 644.81 225.01 644.81 309.35"/><polygon class="cls-56" points="644.81 309.35 671.67 240.75 644.81 225.01 644.81 309.35"/><polygon class="Graphic-Style-184" points="719.19 336.36 746.05 351.99 746.05 267.77 719.19 252.02 719.19 336.36"/><polygon class="cls-57" points="719.19 336.36 746.05 267.77 719.19 252.02 719.19 336.36"/><polygon class="Graphic-Style-184" points="644.81 197.92 671.67 213.54 671.67 174.63 644.81 158.89 644.81 197.92"/><path class="cls-58" d="M719.19,252v84.34L746.05,352V267.77Zm24.73,96.26-22.59-13.14v-79.4L743.92,269Z"/><polygon class="cls-59" points="644.81 197.92 671.67 174.63 644.81 158.89 644.81 197.92"/><path class="cls-60" d="M644.81,158.89v39l26.86,15.62v-38.9Zm24.73,50.94L647,196.69V162.61l22.59,13.25Z"/><path class="cls-61" d="M644.81,225v84.34L671.67,325V240.75Zm24.73,96.25L647,308.12V228.73L669.54,242Z"/><polygon class="cls-45" points="785.52 247.73 792.27 243.86 831.88 220.81 831.88 163.31 785.52 247.73"/><polygon class="cls-50" points="796.85 236.26 827.62 218.36 827.62 180.42 796.85 236.26"/><polygon class="cls-45" points="786.23 259.44 831.88 233.31 831.88 331.8 786.23 357.75 786.23 259.44"/><polygon class="cls-50" points="790.5 261.88 790.5 350.33 827.62 329.35 827.62 240.76 790.5 261.88"/><polygon class="cls-62" points="824.06 327.39 824.06 242.84 790.5 261.88 790.5 346.31 824.06 327.39"/><path class="cls-47" d="M790.5,261.88v84.43l33.56-18.92V242.84Zm31.43,64.27-29.3,16.51V263.12l29.3-16.61Z"/><polygon class="Graphic-Style-183" points="824.06 186.87 800.11 230.34 824.06 216.41 824.06 186.87"/><path class="cls-63" d="M800.11,230.34l23.95-13.93V186.87Zm21.82-15.16-16.24,9.44,16.24-29.46Z"/><polygon class="cls-64" points="687.21 165.79 766.72 119.28 704.87 83.3 625.36 129.53 687.21 165.79"/><polygon class="cls-65" points="776.07 373.71 776.07 378.9 861.7 330.31 861.7 325.13 776.07 373.71"/><polygon class="cls-66" points="776.1 373.71 776.1 378.9 762.44 370.88 762.44 365.72 776.1 373.71"/><polygon class="cls-67" points="762.44 365.72 776.1 373.71 861.7 325.13 848.37 317.38 762.44 365.72"/><path class="cls-68" d="M798.24,296.19a4.83,4.83,0,0,1-2.19,3.78c-1.21.7-2.19.14-2.19-1.25a4.83,4.83,0,0,1,2.19-3.78C797.26,294.24,798.24,294.8,798.24,296.19Z"/><polygon class="cls-69" points="700.16 223.51 766.72 119.28 718.87 234.23 700.16 223.51"/><polygon class="cls-70" points="762.44 365.72 861.7 325.13 848.37 317.38 762.44 365.72"/><polygon class="cls-50" points="946.27 192.04 946.27 276.88 950.3 278.38 950.3 189.87 946.27 192.04"/><path class="cls-37" d="M778.72,523.27,747,504.93l-27.57,15.92,31.77,18.34Zm-27.58,13.86L723,520.86,747,507l28.19,16.28Zm45.31-22.22-35-20.21a14.17,14.17,0,0,0-12.81,0l-43.35,25,47.86,27.63,43.35-25C800,520.27,800,517,796.45,514.91Zm-43.33,30.36-44.27-25.56,36.73-21.2,44.27,25.55ZM791.63,523l-44.27-25.56,3.07-1.77a10.21,10.21,0,0,1,9.23,0l35,20.22c2.55,1.47,2.56,3.86,0,5.33Zm-4-8.59a4.33,4.33,0,0,0-3.89,0,1.19,1.19,0,0,0,0,2.25,4.33,4.33,0,0,0,3.89,0A1.19,1.19,0,0,0,787.58,514.45Zm-8.45-4.88a4.3,4.3,0,0,0-3.89,0c-1.07.61-1.06,1.62,0,2.24a4.3,4.3,0,0,0,3.89,0C780.21,511.2,780.21,510.2,779.13,509.57Zm-8.45-4.87a4.27,4.27,0,0,0-3.89,0,1.18,1.18,0,0,0,0,2.24,4.3,4.3,0,0,0,3.89,0A1.18,1.18,0,0,0,770.68,504.7Zm-8.45-4.88a4.3,4.3,0,0,0-3.89,0c-1.07.62-1.06,1.62,0,2.24a4.25,4.25,0,0,0,3.88,0A1.18,1.18,0,0,0,762.23,499.82Z"/><path class="cls-37" d="M640,609.31l7.19-4.16c3.37-1.94,3.36-5.13,0-7.09l-31.2-18a13.58,13.58,0,0,0-12.29,0l-7.19,4.16a15.28,15.28,0,0,0-9.55,1.45l-16.57,9.56,1.7,1L579.3,592l47.16,27.23-7.25,4.19,1.7,1,16.58-9.57C640.07,613.33,640.87,611.22,640,609.31ZM605.36,581a9.83,9.83,0,0,1,8.9,0l31.2,18c2.46,1.42,2.47,3.72,0,5.13L639,607.91a7.47,7.47,0,0,0-1.57-1.21l-.58-.34,1.31-.76c2.47-1.42,2.45-3.74,0-5.17l-8.84-5.11a10.07,10.07,0,0,0-7.55-.61c1.33-1.39,1-3.18-1.06-4.36l-8.84-5.1a9.89,9.89,0,0,0-9,0l-1.32.76-.58-.34a11.45,11.45,0,0,0-2.11-.9ZM617.7,595.3,603.27,587l1.32-.76a6.17,6.17,0,0,1,5.57,0l8.84,5.11c1.54.89,1.55,2.33,0,3.21Zm17.46,10.08-14.44-8.33,1.32-.76a6.14,6.14,0,0,1,5.57,0l8.84,5.1c1.54.89,1.55,2.34,0,3.22ZM581,591l7.63-4.41a11.79,11.79,0,0,1,10.68,0l36.45,21c3,1.71,3,4.47,0,6.17l-7.63,4.4Z"/><path class="cls-37" d="M920.88,447.81l-2.6-19.72c-.33-2.5-4-4.64-8.36-4.83l-34.16-1.5a13.3,13.3,0,0,0-7,1.5l-28,16.14L890.32,468l28-16.14C920.13,450.79,921.07,449.32,920.88,447.81ZM905,449.49l-32.17-18.57,2.25-1.3,32.17,18.57Zm-33.83-17.61,32.16,18.57L883.3,462l-32.17-18.58Zm19.13,34.19L885,463,910.6,448.2l-35.52-20.51-25.62,14.8-5.33-3.08,26.29-15.18a9.8,9.8,0,0,1,5.18-1.11l34.16,1.5c3.18.14,5.92,1.72,6.16,3.56l2.6,19.72c.14,1.12-.55,2.2-1.92,3Z"/><path class="cls-37" d="M998.39,517.85a15.38,15.38,0,0,1-8-1.68,6.67,6.67,0,0,1-2.54-2.37,4.37,4.37,0,0,1-.59-2.71,5.48,5.48,0,0,1,1.14-2.69,8.84,8.84,0,0,1,2.72-2.31,15.66,15.66,0,0,1,4.06-1.62,21.52,21.52,0,0,1,4.61-.64,19.77,19.77,0,0,1,4.62.39,14,14,0,0,1,4.06,1.5,6.89,6.89,0,0,1,3.21,3.1,3.52,3.52,0,0,1-.25,3.11l-2.95-.32a2.67,2.67,0,0,0,.16-2.57,5.36,5.36,0,0,0-2.25-2.17,9.65,9.65,0,0,0-3.07-1.09,15.25,15.25,0,0,0-3.45-.2,16.85,16.85,0,0,0-3.45.6,12.93,12.93,0,0,0-3,1.27,7.55,7.55,0,0,0-2.22,1.83,4.17,4.17,0,0,0-.92,2.05,3.05,3.05,0,0,0,.45,2,5.12,5.12,0,0,0,1.93,1.75c1.95,1.13,4.65,1.6,8.09,1.43l2.46-1.42-3.87-2.24,1.71-1,5.79,3.34-8.89,5.13L996,519.24Z"/><path class="cls-37" d="M1004.77,524.61a4.82,4.82,0,0,1-1.43-1.18,2.39,2.39,0,0,1-.53-1.32,2,2,0,0,1,.36-1.28,3.56,3.56,0,0,1,1.27-1.13,6.16,6.16,0,0,1,2-.72,8.82,8.82,0,0,1,2.42-.07,13.09,13.09,0,0,1,2.6.54,13.35,13.35,0,0,1,2.54,1.12,12,12,0,0,1,1.76,1.23,6.92,6.92,0,0,1,1.27,1.28l1.06-.61c1.07-.62,1.61-1.28,1.61-2s-.55-1.37-1.66-2a14.71,14.71,0,0,0-5.73-1.54l.7-1.25a17.73,17.73,0,0,1,6.84,2c1.74,1,2.63,2.05,2.68,3.14s-.77,2.12-2.45,3.08l-5.34,3.09c-.52.3-.56.59-.1.87l-1.91,1.1-.66-.29c-.17-.08-.33-.16-.5-.26-.44-.25-.66-.53-.66-.83a1,1,0,0,1,.47-.81l.88-.57a13.56,13.56,0,0,1-4-.25A12.12,12.12,0,0,1,1004.77,524.61ZM1007,524a9.69,9.69,0,0,0,2.65,1,9,9,0,0,0,2.72.22,3,3,0,0,0,1.46-.29l1.94-1.12a9.07,9.07,0,0,0-2.74-2.3,8.75,8.75,0,0,0-3.42-1.16,4.55,4.55,0,0,0-2.88.45,2.31,2.31,0,0,0-.81.72,1.27,1.27,0,0,0-.23.83,1.69,1.69,0,0,0,.38.85A3.18,3.18,0,0,0,1007,524Z"/><path class="cls-37" d="M1034.42,528.54a10.66,10.66,0,0,0-3.8-1.21,10.34,10.34,0,0,0-4,.25l-8.09,4.66-2.22-1.28,13.11-7.57,2.07,1.2-3,1.75a14.62,14.62,0,0,1,4-.23,9,9,0,0,1,3.32.83l.43.24a3.27,3.27,0,0,1,.28.19Z"/><path class="cls-37" d="M1029.21,538.72a4.84,4.84,0,0,1-1.43-1.19,2.43,2.43,0,0,1-.54-1.31,2,2,0,0,1,.36-1.28,3.62,3.62,0,0,1,1.28-1.14,5.79,5.79,0,0,1,2-.71,9.23,9.23,0,0,1,2.42-.07,12.95,12.95,0,0,1,5.13,1.66,13.49,13.49,0,0,1,1.77,1.22,8,8,0,0,1,1.27,1.29l1-.61q1.61-.93,1.62-2c0-.71-.55-1.38-1.66-2a14.76,14.76,0,0,0-5.73-1.54l.7-1.25a17.8,17.8,0,0,1,6.83,2c1.74,1,2.63,2.06,2.68,3.14s-.77,2.13-2.44,3.09l-5.35,3.09q-.78.45-.09.87l-1.91,1.11-.66-.3a4.74,4.74,0,0,1-.5-.26c-.44-.25-.66-.53-.66-.83a1,1,0,0,1,.47-.81l.88-.57a13.88,13.88,0,0,1-4-.25A12.3,12.3,0,0,1,1029.21,538.72Zm2.24-.62a9.25,9.25,0,0,0,2.65,1,8.64,8.64,0,0,0,2.72.22,3,3,0,0,0,1.46-.28l1.93-1.12a9.75,9.75,0,0,0-6.15-3.47,4.6,4.6,0,0,0-2.88.46,2.35,2.35,0,0,0-.82.72,1.25,1.25,0,0,0-.22.82,1.7,1.7,0,0,0,.37.86A3.11,3.11,0,0,0,1031.45,538.1Z"/><path class="cls-37" d="M1045.81,548.19a5.13,5.13,0,0,1-1.91-1.75,3.06,3.06,0,0,1-.45-2,3.83,3.83,0,0,1,.88-2,7.31,7.31,0,0,1,2.07-1.7,12.3,12.3,0,0,1,3.06-1.26,14.84,14.84,0,0,1,3.43-.53,13.75,13.75,0,0,1,3.4.26,10,10,0,0,1,3,1.13,4.34,4.34,0,0,1,2.08,2.13,3.57,3.57,0,0,1,0,2.35l2.61-1.51,2,1.14L1053,552a9.37,9.37,0,0,1-3,1.12,12.51,12.51,0,0,1-3.24.21,14.64,14.64,0,0,1-6.23-1.89,7.06,7.06,0,0,1-2.88-2.55,3.25,3.25,0,0,1-.22-2.57l2.42.09a2.42,2.42,0,0,0,.29,2.16,5.85,5.85,0,0,0,2.1,1.89,10.36,10.36,0,0,0,2,.85,9.17,9.17,0,0,0,2.18.39,9.31,9.31,0,0,0,2.23-.16,7.23,7.23,0,0,0,2.15-.82l2.31-1.34a13.13,13.13,0,0,1-2,.12,15.37,15.37,0,0,1-2-.17,12.94,12.94,0,0,1-1.81-.45A9.31,9.31,0,0,1,1045.81,548.19Zm2.49-.65a6.22,6.22,0,0,0,1.62.64,11.41,11.41,0,0,0,1.87.32,10.7,10.7,0,0,0,1.88,0,6,6,0,0,0,1.59-.33L1059,546a2.78,2.78,0,0,0,.51-1.13,2.4,2.4,0,0,0,0-1.13,2.63,2.63,0,0,0-.56-1.07,4.31,4.31,0,0,0-1.07-.88,6.71,6.71,0,0,0-2.24-.79,9.77,9.77,0,0,0-2.48-.13,11.73,11.73,0,0,0-2.45.42,9.21,9.21,0,0,0-2.1.87,4.73,4.73,0,0,0-1.51,1.27,2.73,2.73,0,0,0-.57,1.44,2.36,2.36,0,0,0,.39,1.42A3.75,3.75,0,0,0,1048.3,547.54Z"/><path class="cls-37" d="M1062.69,558.05a6.52,6.52,0,0,1-2.19-1.89,3.4,3.4,0,0,1-.65-2.07,3.66,3.66,0,0,1,.79-2.05,6.9,6.9,0,0,1,2.13-1.8,11.8,11.8,0,0,1,3.11-1.22,15,15,0,0,1,3.55-.45,15.51,15.51,0,0,1,3.6.39,11.7,11.7,0,0,1,3.27,1.26,6.25,6.25,0,0,1,2.17,1.89,3.39,3.39,0,0,1,.61,2,3.62,3.62,0,0,1-.81,2,7,7,0,0,1-2,1.73l-.52.28-.39.18L1064.37,552a4.57,4.57,0,0,0-1.33,1.29,2.39,2.39,0,0,0-.39,1.37,2.44,2.44,0,0,0,.47,1.32,4.07,4.07,0,0,0,1.3,1.13,7.54,7.54,0,0,0,1.35.59,10,10,0,0,0,1.53.37,9.24,9.24,0,0,0,1.57.13,7.26,7.26,0,0,0,1.51-.18l1.39,1.41a10.73,10.73,0,0,1-2.23.25,13.43,13.43,0,0,1-2.36-.15,14.75,14.75,0,0,1-2.34-.56A11,11,0,0,1,1062.69,558.05Zm12.21-1.82a4.06,4.06,0,0,0,1.25-1.27,2.28,2.28,0,0,0,.36-1.34,2.47,2.47,0,0,0-.51-1.3,4.45,4.45,0,0,0-1.35-1.14,7.5,7.5,0,0,0-2-.78,10.07,10.07,0,0,0-2.26-.29,10.43,10.43,0,0,0-2.3.22,9,9,0,0,0-2.16.73Z"/><path class="cls-37" d="M845.31,591.93l17.8-10.28,2.27,1.31-9.84,5.68,19.12-.35,2.45,1.41-15.06.38-2.37,10.15-2.47-1.43,2.14-8.77-6.32.06-5.45,3.15Z"/><path class="cls-37" d="M862.06,601.6,875.17,594l2.22,1.29-13.11,7.56Zm15.57-9,2.76-1.59,2.23,1.28-2.77,1.6Z"/><path class="cls-37" d="M876,608.88c-.2,0-.46-.09-.77-.17s-.65-.16-1-.27-.75-.24-1.14-.39a11.37,11.37,0,0,1-1.11-.54,2.69,2.69,0,0,1-1.43-1.6c-.15-.6.25-1.16,1.19-1.71l8.81-5.08-1.79-1,1.73-1,1.79,1,4.37-2.52,2.23,1.28-4.37,2.52,2.95,1.71-1.73,1-3-1.71-8.13,4.7c-.45.3-.65.59-.58.89a1.34,1.34,0,0,0,.69.77,5.79,5.79,0,0,0,1.41.57c.51.12.87.2,1.09.23Z"/><path class="cls-37" d="M883.55,606.41a12.16,12.16,0,0,1,3.09-1.23,14.68,14.68,0,0,1,3.51-.45,14.84,14.84,0,0,1,3.57.38,11.62,11.62,0,0,1,3.28,1.26,5.62,5.62,0,0,1,2.53,2.47,2.77,2.77,0,0,1-.16,2.59l-2.85-.87a1.78,1.78,0,0,0,0-1.65,3.61,3.61,0,0,0-1.51-1.46,7.24,7.24,0,0,0-2.08-.78,9.66,9.66,0,0,0-2.41-.22,12.06,12.06,0,0,0-2.45.35,8.93,8.93,0,0,0-2.28.92,5.46,5.46,0,0,0-1.58,1.32,2.9,2.9,0,0,0-.62,1.45,2.19,2.19,0,0,0,.35,1.41,3.66,3.66,0,0,0,1.33,1.2,6.31,6.31,0,0,0,1.31.57,8.67,8.67,0,0,0,1.47.34,9.27,9.27,0,0,0,1.47.11,5,5,0,0,0,1.29-.17l1.52,1.64a11.49,11.49,0,0,1-2.17.28,12.81,12.81,0,0,1-2.31-.15,14.62,14.62,0,0,1-2.31-.55,10.76,10.76,0,0,1-2.13-.94,6.28,6.28,0,0,1-2.18-1.89,3.5,3.5,0,0,1-.64-2.08,3.67,3.67,0,0,1,.8-2A6.79,6.79,0,0,1,883.55,606.41Z"/><path class="cls-37" d="M903.93,625.77l-2.22-1.28,7.33-4.23c1.35-.79,2.13-1.51,2.32-2.16s-.17-1.24-1.08-1.77a6.2,6.2,0,0,0-1.58-.6,10,10,0,0,0-1.94-.3,13.33,13.33,0,0,0-2.09,0,10.49,10.49,0,0,0-2,.41l-7.91,4.57-2.23-1.29,18.34-10.58,2.22,1.28-8,4.64a13.88,13.88,0,0,1,4.36-.06,10.57,10.57,0,0,1,3.74,1.23,3.86,3.86,0,0,1,1.54,1.38,1.69,1.69,0,0,1,.14,1.41,3.53,3.53,0,0,1-1.06,1.41,11.77,11.77,0,0,1-2,1.38Z"/><path class="cls-37" d="M913.61,631.65a6.42,6.42,0,0,1-2.19-1.89,3.33,3.33,0,0,1-.65-2.07,3.66,3.66,0,0,1,.79-2.05,6.9,6.9,0,0,1,2.13-1.8,11.8,11.8,0,0,1,3.11-1.22,16.05,16.05,0,0,1,3.55-.45,15.51,15.51,0,0,1,3.6.39,11.7,11.7,0,0,1,3.27,1.26,6.22,6.22,0,0,1,2.16,1.89,3.36,3.36,0,0,1,.62,2,3.59,3.59,0,0,1-.81,2,7,7,0,0,1-2.05,1.73l-.52.28-.39.18-10.94-6.32a4.59,4.59,0,0,0-1.33,1.3,2.36,2.36,0,0,0-.39,1.36,2.41,2.41,0,0,0,.47,1.32,4.07,4.07,0,0,0,1.3,1.13,7.54,7.54,0,0,0,1.35.59,10,10,0,0,0,1.53.37,9.16,9.16,0,0,0,1.57.13,6,6,0,0,0,1.5-.18l1.4,1.42a11.46,11.46,0,0,1-2.23.24,14.46,14.46,0,0,1-2.36-.15,13.73,13.73,0,0,1-2.34-.56A11,11,0,0,1,913.61,631.65Zm12.21-1.82a4,4,0,0,0,1.25-1.26,2.33,2.33,0,0,0,.36-1.35,2.44,2.44,0,0,0-.51-1.29,4.27,4.27,0,0,0-1.36-1.15,7.57,7.57,0,0,0-2-.78,9.91,9.91,0,0,0-2.25-.29,10.58,10.58,0,0,0-2.31.22,9.56,9.56,0,0,0-2.15.73Z"/><path class="cls-37" d="M935,643.73l-2.23-1.28,7.34-4.23c1.4-.82,2.21-1.53,2.42-2.14s-.13-1.18-1-1.69a6.45,6.45,0,0,0-1.63-.63,12.28,12.28,0,0,0-2-.33,11.77,11.77,0,0,0-2.14,0,10.68,10.68,0,0,0-2.07.4l-7.91,4.57-2.22-1.28,13.11-7.58,2,1.17-2.81,1.63a13.7,13.7,0,0,1,4.47,0,11.81,11.81,0,0,1,4,1.38,3.57,3.57,0,0,1,1.48,1.33,1.57,1.57,0,0,1,.06,1.37,3.81,3.81,0,0,1-1.1,1.38,13.59,13.59,0,0,1-2,1.37Z"/><path class="cls-37" d="M732.1,673.12a7.34,7.34,0,0,1-2.3.85,10.66,10.66,0,0,1-2.59.19,12.07,12.07,0,0,1-2.6-.43,10.32,10.32,0,0,1-2.36-1l-8.51-4.91,17.83-10.3,8.91,5.15a3.27,3.27,0,0,1,1.3,1.21,2.1,2.1,0,0,1,.24,1.35,2.7,2.7,0,0,1-.63,1.31,4.91,4.91,0,0,1-1.36,1.12,8.82,8.82,0,0,1-3.13,1,9.86,9.86,0,0,1-3.59-.14,2.44,2.44,0,0,1,.77,2.37A3.74,3.74,0,0,1,732.1,673.12Zm-1.9-1.56a3.33,3.33,0,0,0,1-.79,1.94,1.94,0,0,0,.41-.91,1.33,1.33,0,0,0-.2-.9,2.21,2.21,0,0,0-.86-.78l-6.42-3.71L718,668l6.24,3.6a4.58,4.58,0,0,0,1.41.53,7.75,7.75,0,0,0,1.6.15,6.55,6.55,0,0,0,1.6-.19A5.37,5.37,0,0,0,730.2,671.56ZM731.88,660l-6,3.44,5.71,3.3a4.44,4.44,0,0,0,1.35.5,6.39,6.39,0,0,0,1.51.14,7.83,7.83,0,0,0,1.52-.21,4.72,4.72,0,0,0,1.36-.54,3.35,3.35,0,0,0,1-.8,1.83,1.83,0,0,0,.41-.86,1.18,1.18,0,0,0-.21-.84,2.21,2.21,0,0,0-.82-.74Z"/><path class="cls-37" d="M736.55,681.29a6.52,6.52,0,0,1-2.19-1.89,3.4,3.4,0,0,1-.65-2.07,3.67,3.67,0,0,1,.8-2.05,6.9,6.9,0,0,1,2.13-1.8,11.73,11.73,0,0,1,3.1-1.22,15,15,0,0,1,3.55-.45,15.51,15.51,0,0,1,3.6.39,11.58,11.58,0,0,1,3.28,1.26,6.3,6.3,0,0,1,2.16,1.89,3.41,3.41,0,0,1,.62,2,3.62,3.62,0,0,1-.81,2,7.17,7.17,0,0,1-2.06,1.73l-.52.28-.38.18-10.94-6.32a4.44,4.44,0,0,0-1.33,1.29,2.33,2.33,0,0,0-.4,1.37,2.49,2.49,0,0,0,.47,1.32,4,4,0,0,0,1.31,1.13,7,7,0,0,0,1.35.59,9.63,9.63,0,0,0,1.52.37,9.36,9.36,0,0,0,1.58.13,6.56,6.56,0,0,0,1.5-.18l1.39,1.41a10.65,10.65,0,0,1-2.23.25,14.34,14.34,0,0,1-2.35-.15,14.86,14.86,0,0,1-2.35-.56A11.3,11.3,0,0,1,736.55,681.29Zm12.21-1.82A4,4,0,0,0,750,678.2a2.28,2.28,0,0,0,.36-1.34,2.47,2.47,0,0,0-.51-1.3,4.33,4.33,0,0,0-1.35-1.14,7.57,7.57,0,0,0-2-.78,9.52,9.52,0,0,0-2.26-.29,10.49,10.49,0,0,0-2.3.22,9.16,9.16,0,0,0-2.16.73Z"/><path class="cls-37" d="M751.72,690a5.51,5.51,0,0,1-2-1.77,3.2,3.2,0,0,1-.51-2,3.82,3.82,0,0,1,.86-2,7,7,0,0,1,2.11-1.76,12.93,12.93,0,0,1,3.07-1.26,15.33,15.33,0,0,1,3.41-.54,14.4,14.4,0,0,1,3.36.24,9.83,9.83,0,0,1,3,1.08,4.21,4.21,0,0,1,2,2.12,3.17,3.17,0,0,1,0,2.31l7.83-4.52,2.23,1.28-15.62,9c-.52.3-.55.59-.1.87l-1.91,1.1-.64-.28a3.61,3.61,0,0,1-.44-.23,1.21,1.21,0,0,1-.71-.91.89.89,0,0,1,.52-.88l1.11-.64a13.6,13.6,0,0,1-4.08,0A10.22,10.22,0,0,1,751.72,690Zm2.44-.79a6.33,6.33,0,0,0,1.47.59,11.76,11.76,0,0,0,1.84.34,11.32,11.32,0,0,0,1.93,0,6,6,0,0,0,1.69-.34l3.76-2.18a2.3,2.3,0,0,0,.51-1.08,2.53,2.53,0,0,0,0-1.16,2.9,2.9,0,0,0-.56-1.07,3.76,3.76,0,0,0-1-.88,6.81,6.81,0,0,0-2.19-.79,10.7,10.7,0,0,0-2.47-.15,11.93,11.93,0,0,0-2.46.41,9.5,9.5,0,0,0-2.12.88,4.92,4.92,0,0,0-1.52,1.29,2.61,2.61,0,0,0-.58,1.44,2.4,2.4,0,0,0,.38,1.43A3.94,3.94,0,0,0,754.16,689.25Z"/><path class="cls-37" d="M781.21,693.88a10.66,10.66,0,0,0-3.8-1.21,10.34,10.34,0,0,0-4,.25l-8.09,4.67-2.22-1.29,13.11-7.56,2.07,1.19-3,1.76a15,15,0,0,1,4-.24,9.18,9.18,0,0,1,3.32.83l.43.25a1.91,1.91,0,0,1,.28.19Z"/><path class="cls-37" d="M778.07,705.26a6.2,6.2,0,0,1-2.16-1.89,3.35,3.35,0,0,1-.62-2.06,3.68,3.68,0,0,1,.81-2,6.86,6.86,0,0,1,2.11-1.77,11.73,11.73,0,0,1,3.1-1.22,15.37,15.37,0,0,1,3.52-.46,15,15,0,0,1,3.59.35,11.45,11.45,0,0,1,3.24,1.23,6.34,6.34,0,0,1,2.15,1.89,3.41,3.41,0,0,1,.63,2.07,3.83,3.83,0,0,1-.8,2,6.74,6.74,0,0,1-2.12,1.79,12.38,12.38,0,0,1-3.06,1.22,15.31,15.31,0,0,1-3.53.45,15.52,15.52,0,0,1-3.59-.36A11.21,11.21,0,0,1,778.07,705.26Zm2.39-6.43a5.28,5.28,0,0,0-1.57,1.31,2.67,2.67,0,0,0-.6,1.42,2.25,2.25,0,0,0,.36,1.4,3.74,3.74,0,0,0,1.33,1.2,7.23,7.23,0,0,0,2.08.77,10.36,10.36,0,0,0,2.45.2,10.54,10.54,0,0,0,2.5-.35,8.7,8.7,0,0,0,2.26-.91,5.43,5.43,0,0,0,1.56-1.29,2.7,2.7,0,0,0,.61-1.45,2.27,2.27,0,0,0-.36-1.41,3.66,3.66,0,0,0-1.33-1.2,7,7,0,0,0-2.09-.76,11,11,0,0,0-2.45-.2,11.69,11.69,0,0,0-2.49.36A9.29,9.29,0,0,0,780.46,698.83Z"/><path class="cls-37" d="M793.84,714.37a6.31,6.31,0,0,1-2.16-1.89,3.4,3.4,0,0,1-.62-2.07,3.71,3.71,0,0,1,.81-2,7.08,7.08,0,0,1,2.1-1.77,11.93,11.93,0,0,1,3.11-1.22,15.94,15.94,0,0,1,3.52-.46,15.38,15.38,0,0,1,3.58.36,11.11,11.11,0,0,1,3.25,1.23,6.42,6.42,0,0,1,2.15,1.88,3.49,3.49,0,0,1,.63,2.08,3.77,3.77,0,0,1-.8,2,6.85,6.85,0,0,1-2.12,1.79,12.15,12.15,0,0,1-3.06,1.22,15.47,15.47,0,0,1-7.12.09A11.36,11.36,0,0,1,793.84,714.37Zm2.38-6.43a5.33,5.33,0,0,0-1.56,1.3,2.7,2.7,0,0,0-.6,1.42,2.25,2.25,0,0,0,.36,1.4,3.66,3.66,0,0,0,1.33,1.2,7,7,0,0,0,2.08.77,10.91,10.91,0,0,0,2.45.21,11.77,11.77,0,0,0,2.5-.35A9.46,9.46,0,0,0,805,713a5.29,5.29,0,0,0,1.56-1.3,2.78,2.78,0,0,0,.61-1.44,2.31,2.31,0,0,0-.36-1.42,3.75,3.75,0,0,0-1.33-1.2,7,7,0,0,0-2.1-.76,10.92,10.92,0,0,0-2.44-.19,11.69,11.69,0,0,0-2.49.36A8.77,8.77,0,0,0,796.22,707.94Z"/><path class="cls-37" d="M824,731.48l-2.22-1.28L829.1,726c1.37-.79,2.16-1.5,2.36-2.14s-.13-1.2-1-1.71a7.12,7.12,0,0,0-3.41-.85,12.25,12.25,0,0,0-4,.56l-7.89,4.55-2.22-1.28,7.33-4.23c1.41-.82,2.21-1.53,2.41-2.15s-.15-1.19-1-1.69a7.37,7.37,0,0,0-3.37-.86,11.71,11.71,0,0,0-4,.55l-7.91,4.57L804.1,720l13.11-7.57,2,1.16-2.81,1.63a14.43,14.43,0,0,1,4.34-.09,10.1,10.1,0,0,1,3.7,1.22c1.11.65,1.69,1.33,1.75,2a2.37,2.37,0,0,1-1.1,2c3.31-.54,6-.19,8.22,1.07a3.62,3.62,0,0,1,1.49,1.34,1.54,1.54,0,0,1,.07,1.37,3.88,3.88,0,0,1-1.09,1.39,13,13,0,0,1-2,1.38Z"/><path class="cls-37" d="M270.94,238.82a6.87,6.87,0,0,1-2.08.76,9.57,9.57,0,0,1-2.34.17,10.31,10.31,0,0,1-2.34-.39,9.2,9.2,0,0,1-2.13-.89L254.36,234l16.1-9.29,8.05,4.65a3,3,0,0,1,1.17,1.09,2,2,0,0,1,.22,1.21,2.5,2.5,0,0,1-.58,1.19,4.39,4.39,0,0,1-1.22,1,8.14,8.14,0,0,1-2.83.94,8.84,8.84,0,0,1-3.24-.12,2.17,2.17,0,0,1,.69,2.14A3.41,3.41,0,0,1,270.94,238.82Zm-1.71-1.41a3,3,0,0,0,.86-.72,1.76,1.76,0,0,0,.37-.82,1.24,1.24,0,0,0-.18-.81,2.06,2.06,0,0,0-.77-.71l-5.8-3.35-5.53,3.2,5.63,3.25a4.35,4.35,0,0,0,1.28.48,7.67,7.67,0,0,0,1.45.14,6.92,6.92,0,0,0,1.44-.18A4.65,4.65,0,0,0,269.23,237.41ZM270.74,227l-5.38,3.1,5.16,3a3.81,3.81,0,0,0,1.22.46,6.24,6.24,0,0,0,1.37.12,5.8,5.8,0,0,0,1.37-.19,4.64,4.64,0,0,0,1.23-.48,3.27,3.27,0,0,0,.88-.72,1.55,1.55,0,0,0,.37-.78,1.08,1.08,0,0,0-.19-.76A2,2,0,0,0,276,230Z"/><path class="cls-37" d="M286.3,240.83a9.66,9.66,0,0,0-3.43-1.09,9.31,9.31,0,0,0-3.65.22l-7.3,4.22-2-1.16,11.83-6.84,1.87,1.08-2.74,1.59a13,13,0,0,1,3.6-.21,8.26,8.26,0,0,1,3,.74l.39.23.25.17Z"/><path class="cls-37" d="M278.77,248.13l11.84-6.84,2,1.16-11.83,6.84ZM292.83,240l2.49-1.44,2,1.16-2.5,1.44Z"/><path class="cls-37" d="M289.2,254.3a4.46,4.46,0,0,1-1.73-1.57,2.83,2.83,0,0,1-.41-1.78,3.54,3.54,0,0,1,.8-1.76,6.35,6.35,0,0,1,1.87-1.54,11.67,11.67,0,0,1,2.77-1.14,13.44,13.44,0,0,1,3.09-.48,13.09,13.09,0,0,1,3.07.24,9.46,9.46,0,0,1,2.74,1,3.92,3.92,0,0,1,1.87,1.92,3.18,3.18,0,0,1,0,2.13l2.36-1.37,1.78,1-11.7,6.76a8.79,8.79,0,0,1-2.71,1,11,11,0,0,1-2.92.18,12.8,12.8,0,0,1-2.93-.53,13.35,13.35,0,0,1-2.7-1.17,6.54,6.54,0,0,1-2.61-2.3,3,3,0,0,1-.19-2.33l2.18.09a2.2,2.2,0,0,0,.26,1.95,5.33,5.33,0,0,0,1.9,1.7,8.48,8.48,0,0,0,1.79.77,7.84,7.84,0,0,0,2,.35,8,8,0,0,0,2-.14,6.37,6.37,0,0,0,1.94-.74l2.09-1.21a11.93,11.93,0,0,1-1.8.1,12.53,12.53,0,0,1-1.76-.15,10.49,10.49,0,0,1-1.63-.4A7.62,7.62,0,0,1,289.2,254.3Zm2.24-.58a6,6,0,0,0,1.46.58,10.4,10.4,0,0,0,1.7.28,9.54,9.54,0,0,0,1.69,0,5.71,5.71,0,0,0,1.44-.3l3.4-2a2.65,2.65,0,0,0,.46-1,2.32,2.32,0,0,0-.54-2,3.38,3.38,0,0,0-1-.8,6.18,6.18,0,0,0-2-.72,9.39,9.39,0,0,0-2.25-.12,11.62,11.62,0,0,0-2.21.39,8,8,0,0,0-1.9.78,4.38,4.38,0,0,0-1.36,1.15,2.5,2.5,0,0,0-.51,1.3,2.16,2.16,0,0,0,.35,1.29A3.57,3.57,0,0,0,291.44,253.72Z"/><path class="cls-37" d="M309.73,266l-2-1.16,6.62-3.82c1.23-.71,1.92-1.35,2.09-1.94s-.15-1.13-1-1.6a5.46,5.46,0,0,0-1.42-.55,9.81,9.81,0,0,0-1.76-.27,13.21,13.21,0,0,0-1.88,0,9.29,9.29,0,0,0-1.86.37l-7.14,4.13-2-1.16L316,250.48l2,1.16-7.25,4.19a12.36,12.36,0,0,1,3.93-.06,9.05,9.05,0,0,1,3.37,1.11,3.5,3.5,0,0,1,1.4,1.25,1.51,1.51,0,0,1,.12,1.27,3.2,3.2,0,0,1-.95,1.27,10.33,10.33,0,0,1-1.77,1.25Z"/><path class="cls-37" d="M320.06,271.29l-.69-.15-.93-.25q-.49-.15-1-.36a7.69,7.69,0,0,1-1-.48,2.42,2.42,0,0,1-1.3-1.44c-.13-.54.23-1.06,1.08-1.55l7.95-4.59-1.62-.94,1.57-.9,1.62.94,3.94-2.28,2,1.16-3.94,2.28,2.67,1.54-1.57.9-2.67-1.54-7.34,4.24c-.41.27-.59.54-.52.8a1.17,1.17,0,0,0,.61.7,4.76,4.76,0,0,0,1.28.51,9.58,9.58,0,0,0,1,.21Z"/><path class="cls-37" d="M332.25,279l-2-1.16,6.62-3.82c1.27-.73,2-1.37,2.19-1.93s-.12-1.06-.91-1.52a5.5,5.5,0,0,0-1.47-.57,10.21,10.21,0,0,0-1.81-.3,10.49,10.49,0,0,0-1.94,0,9.42,9.42,0,0,0-1.86.36l-7.14,4.13-2-1.16,11.84-6.84,1.82,1.06L333,268.72a12.75,12.75,0,0,1,4,0,10.69,10.69,0,0,1,3.66,1.25,3.18,3.18,0,0,1,1.33,1.2,1.42,1.42,0,0,1,.06,1.24,3.41,3.41,0,0,1-1,1.24,12,12,0,0,1-1.8,1.24Z"/><path class="cls-37" d="M341,284.31a5.87,5.87,0,0,1-2-1.7,3,3,0,0,1-.59-1.87,3.39,3.39,0,0,1,.72-1.86,6.28,6.28,0,0,1,1.92-1.62,10.84,10.84,0,0,1,2.81-1.11,14.75,14.75,0,0,1,3.2-.4,14.28,14.28,0,0,1,3.26.35,10.7,10.7,0,0,1,2.95,1.14,5.57,5.57,0,0,1,2,1.71,3,3,0,0,1,.56,1.85,3.25,3.25,0,0,1-.73,1.8,6.07,6.07,0,0,1-1.86,1.56l-.46.26a2.53,2.53,0,0,1-.36.16l-9.87-5.7a3.93,3.93,0,0,0-1.2,1.16,2.13,2.13,0,0,0-.36,1.24,2.22,2.22,0,0,0,.43,1.19,3.6,3.6,0,0,0,1.17,1,6.15,6.15,0,0,0,1.22.53,9.27,9.27,0,0,0,1.38.34,7.55,7.55,0,0,0,1.42.11,5.45,5.45,0,0,0,1.36-.16l1.25,1.28a9.9,9.9,0,0,1-2,.22,11.68,11.68,0,0,1-2.12-.14,12.09,12.09,0,0,1-2.12-.5A10.37,10.37,0,0,1,341,284.31Zm11-1.65a3.7,3.7,0,0,0,1.13-1.14,2,2,0,0,0-.14-2.38,3.85,3.85,0,0,0-1.22-1,6.63,6.63,0,0,0-1.79-.71,9.18,9.18,0,0,0-2-.26,9.71,9.71,0,0,0-2.08.2,8,8,0,0,0-1.95.66Z"/><path class="cls-37" d="M354,291.79a9.62,9.62,0,0,1-2.39-1.88,4.23,4.23,0,0,1-1.11-2.13l2.2-.27a4.86,4.86,0,0,0,.91,1.9,6.24,6.24,0,0,0,1.82,1.51,6.48,6.48,0,0,0,2.57.89,3.46,3.46,0,0,0,2.2-.39,1,1,0,0,0,.53-.54.83.83,0,0,0-.08-.66,3.22,3.22,0,0,0-.64-.84c-.3-.32-.67-.68-1.1-1.08s-1-1-1.32-1.37a3.32,3.32,0,0,1-.69-1.08,1,1,0,0,1,.09-.89,2.57,2.57,0,0,1,.95-.81,6,6,0,0,1,1.93-.71,7.89,7.89,0,0,1,2.12-.11,9.53,9.53,0,0,1,2.15.43,10,10,0,0,1,2,.9,7.17,7.17,0,0,1,2.08,1.7,3.5,3.5,0,0,1,.83,1.78l-2.11.17a2.93,2.93,0,0,0-.71-1.54,5.76,5.76,0,0,0-1.58-1.3,6.54,6.54,0,0,0-2.33-.81,3.47,3.47,0,0,0-2.25.42,1.33,1.33,0,0,0-.53.48.65.65,0,0,0,0,.56,2.81,2.81,0,0,0,.52.71c.25.27.57.59.95.94.61.57,1.11,1.07,1.51,1.52a3.93,3.93,0,0,1,.79,1.23,1.24,1.24,0,0,1,0,1,2.45,2.45,0,0,1-1,.9,6.54,6.54,0,0,1-3.9.78A10.35,10.35,0,0,1,354,291.79Z"/><path class="cls-37" d="M365.79,298.63a9.42,9.42,0,0,1-2.39-1.89,4.21,4.21,0,0,1-1.11-2.12l2.2-.27a4.86,4.86,0,0,0,.91,1.9,6.35,6.35,0,0,0,1.82,1.5,6.67,6.67,0,0,0,2.57.9,3.49,3.49,0,0,0,2.21-.39,1.13,1.13,0,0,0,.53-.54.87.87,0,0,0-.09-.67,3.58,3.58,0,0,0-.64-.84c-.3-.31-.67-.68-1.09-1.08s-1-1-1.33-1.37a3.29,3.29,0,0,1-.69-1.07,1,1,0,0,1,.09-.9,2.57,2.57,0,0,1,1-.81,6,6,0,0,1,1.93-.7,7.91,7.91,0,0,1,2.12-.11,9.53,9.53,0,0,1,2.15.43,10,10,0,0,1,2,.9,7.15,7.15,0,0,1,2.08,1.69,3.52,3.52,0,0,1,.83,1.79l-2.11.17a3,3,0,0,0-.71-1.55,5.73,5.73,0,0,0-1.58-1.29,6.35,6.35,0,0,0-2.33-.81,3.47,3.47,0,0,0-2.25.42,1.26,1.26,0,0,0-.53.48.63.63,0,0,0,0,.55,2.69,2.69,0,0,0,.51.72c.25.27.57.58.95.94.61.56,1.11,1.07,1.51,1.51a4,4,0,0,1,.79,1.23,1.26,1.26,0,0,1,0,1,2.45,2.45,0,0,1-1,.9,6.69,6.69,0,0,1-3.9.78A10.49,10.49,0,0,1,365.79,298.63Z"/><g class="cls-4"><path class="cls-71" d="M381,226.82c-29.83-17.22-30-45.16-.34-62.27s78-17,107.86.19,30,45.16.33,62.27S410.79,244,381,226.82Zm103.92-60c-27.83-16.07-73-16.15-100.64-.18s-27.52,42,.31,58.1,73,16.15,100.65.18S512.71,182.89,484.88,166.82Z"/><path class="cls-72" d="M365.8,235.57c-38.25-22.08-38.44-57.89-.44-79.83s100-21.83,138.28.25,38.44,57.89.43,79.83S404,257.65,365.8,235.57ZM498.25,159.1c-35.25-20.35-92.43-20.45-127.46-.23s-34.85,53.24.4,73.59,92.42,20.45,127.46.23S533.49,179.45,498.25,159.1Z"/><path class="cls-73" d="M349.61,244.92c-47.22-27.27-47.46-71.49-.53-98.58s123.52-27,170.74.31,47.46,71.48.54,98.57S396.83,272.18,349.61,244.92Zm163-94.12c-43.23-25-113.35-25.09-156.31-.29s-42.75,65.29.49,90.25,113.35,25.09,156.31.29S555.86,175.76,512.63,150.8Z"/><path class="cls-71" d="M449.51,201.78c8.16-4.7,7.54-12.57-1.82-16.86-6.88-3.16-16.91-3.24-23.87-.19-5.57,2.44-8.12,6.14-7.68,9.76.24,2-.92,3.92-3.34,5.32l-3,1.74c-1.54.89-1.53,2.33,0,3.23l6.79,3.92a6.16,6.16,0,0,0,5.58,0l3-1.74a18,18,0,0,1,9.39-1.93C439.94,205.23,445.42,204.15,449.51,201.78Z"/><path class="cls-71" d="M407.18,210.21h0c-2-1.16-1.76-3.19.56-4.53l.42-.25,7.29,4.21-.43.24C412.7,211.22,409.19,211.37,407.18,210.21Z"/><path class="cls-71" d="M433.89,179.67c1.12,0,2.23,0,3.35,0l0-7c0-.53-.75-1-1.68-1s-1.68.43-1.67,1Z"/><path class="cls-71" d="M419.45,183.06l-8.6-5a2.61,2.61,0,0,0-2.37,0,.72.72,0,0,0,0,1.36l8.6,5A25.22,25.22,0,0,1,419.45,183.06Z"/><path class="cls-71" d="M460.14,194.79l12.11,0c.93,0,1.68-.43,1.67-1s-.75-1-1.68-1l-12.11,0A7.87,7.87,0,0,1,460.14,194.79Z"/><path class="cls-71" d="M453,183.77c.4.23.76.47,1.13.72l8.53-4.93c.66-.37.65-1,0-1.37a2.61,2.61,0,0,0-2.37,0l-8.53,4.93C452.14,183.33,452.58,183.54,453,183.77Z"/><path class="cls-71" d="M462.79,208.08l-8.59-5c-.36.24-.72.48-1.12.71s-.82.44-1.24.65l8.58,5a2.61,2.61,0,0,0,2.37,0C463.45,209.08,463.44,208.46,462.79,208.08Z"/><path class="cls-71" d="M408.49,208.12c-.46.38-.42.89.16,1.23a2.65,2.65,0,0,0,2.14.1Z"/></g></g></g></svg>